<ttFont>
    <TTGlyph name="A" xMin="15" yMin="-5" xMax="628" yMax="696">
      <contour>
        <pt x="484" y="-5" on="1"/>
        <pt x="435" y="190" on="1"/>
        <pt x="196" y="190" on="1"/>
        <pt x="143" y="0" on="1"/>
        <pt x="15" y="10" on="1"/>
        <pt x="103" y="253" on="1"/>
        <pt x="237" y="683" on="1"/>
        <pt x="416" y="696" on="1"/>
        <pt x="545" y="268" on="1"/>
        <pt x="628" y="17" on="1"/>
      </contour>
      <contour>
        <pt x="326" y="566" on="1"/>
        <pt x="313" y="566" on="1"/>
        <pt x="227" y="296" on="1"/>
        <pt x="405" y="296" on="1"/>
      </contour>
    </TTGlyph>
    <TTGlyph name="AE" xMin="-5" yMin="0" xMax="810" yMax="690">
      <contour>
        <pt x="462" y="0" on="1"/>
        <pt x="427" y="190" on="1"/>
        <pt x="188" y="190" on="1"/>
        <pt x="122" y="0" on="1"/>
        <pt x="-5" y="10" on="1"/>
        <pt x="100" y="253" on="1"/>
        <pt x="267" y="690" on="1"/>
        <pt x="767" y="690" on="1"/>
        <pt x="756" y="583" on="1"/>
        <pt x="460" y="583" on="1"/>
        <pt x="501" y="406" on="1"/>
        <pt x="745" y="406" on="1"/>
        <pt x="734" y="300" on="1"/>
        <pt x="525" y="300" on="1"/>
        <pt x="575" y="106" on="1"/>
        <pt x="810" y="106" on="1"/>
        <pt x="799" y="0" on="1"/>
      </contour>
      <contour>
        <pt x="345" y="566" on="1"/>
        <pt x="332" y="566" on="1"/>
        <pt x="228" y="296" on="1"/>
        <pt x="405" y="296" on="1"/>
      </contour>
    </TTGlyph>
    <TTGlyph name="Aacute" xMin="15" yMin="-5" xMax="628" yMax="910">
      <contour>
        <pt x="484" y="-5" on="1"/>
        <pt x="435" y="190" on="1"/>
        <pt x="196" y="190" on="1"/>
        <pt x="143" y="0" on="1"/>
        <pt x="15" y="10" on="1"/>
        <pt x="103" y="253" on="1"/>
        <pt x="237" y="683" on="1"/>
        <pt x="416" y="696" on="1"/>
        <pt x="545" y="268" on="1"/>
        <pt x="628" y="17" on="1"/>
      </contour>
      <contour>
        <pt x="326" y="566" on="1"/>
        <pt x="313" y="566" on="1"/>
        <pt x="227" y="296" on="1"/>
        <pt x="405" y="296" on="1"/>
      </contour>
      <contour>
        <pt x="433" y="910" on="1"/>
        <pt x="444" y="808" on="1"/>
        <pt x="313" y="778" on="0"/>
        <pt x="209" y="760" on="1"/>
        <pt x="204" y="832" on="1"/>
        <pt x="290" y="857" on="0"/>
      </contour>
    </TTGlyph>
    <TTGlyph name="Acircumflex" xMin="15" yMin="-5" xMax="628" yMax="898">
      <contour>
        <pt x="484" y="-5" on="1"/>
        <pt x="435" y="190" on="1"/>
        <pt x="196" y="190" on="1"/>
        <pt x="143" y="0" on="1"/>
        <pt x="15" y="10" on="1"/>
        <pt x="103" y="253" on="1"/>
        <pt x="237" y="683" on="1"/>
        <pt x="416" y="696" on="1"/>
        <pt x="545" y="268" on="1"/>
        <pt x="628" y="17" on="1"/>
      </contour>
      <contour>
        <pt x="326" y="566" on="1"/>
        <pt x="313" y="566" on="1"/>
        <pt x="227" y="296" on="1"/>
        <pt x="405" y="296" on="1"/>
      </contour>
      <contour>
        <pt x="322" y="751" on="1"/>
        <pt x="178" y="836" on="1"/>
        <pt x="193" y="898" on="1"/>
        <pt x="322" y="851" on="1"/>
        <pt x="453" y="898" on="1"/>
        <pt x="468" y="836" on="1"/>
      </contour>
    </TTGlyph>
    <TTGlyph name="Adieresis" xMin="15" yMin="-5" xMax="628" yMax="913">
      <contour>
        <pt x="484" y="-5" on="1"/>
        <pt x="435" y="190" on="1"/>
        <pt x="196" y="190" on="1"/>
        <pt x="143" y="0" on="1"/>
        <pt x="15" y="10" on="1"/>
        <pt x="103" y="253" on="1"/>
        <pt x="237" y="683" on="1"/>
        <pt x="416" y="696" on="1"/>
        <pt x="545" y="268" on="1"/>
        <pt x="628" y="17" on="1"/>
      </contour>
      <contour>
        <pt x="326" y="566" on="1"/>
        <pt x="313" y="566" on="1"/>
        <pt x="227" y="296" on="1"/>
        <pt x="405" y="296" on="1"/>
      </contour>
      <contour>
        <pt x="339" y="869" on="0"/>
        <pt x="381" y="913" on="0"/>
        <pt x="410" y="913" on="1"/>
        <pt x="467" y="913" on="0"/>
        <pt x="467" y="855" on="1"/>
        <pt x="467" y="821" on="0"/>
        <pt x="426" y="777" on="0"/>
        <pt x="371" y="777" on="0"/>
        <pt x="339" y="813" on="0"/>
      </contour>
      <contour>
        <pt x="177" y="869" on="0"/>
        <pt x="219" y="913" on="0"/>
        <pt x="275" y="913" on="0"/>
        <pt x="305" y="882" on="0"/>
        <pt x="305" y="821" on="0"/>
        <pt x="263" y="777" on="0"/>
        <pt x="208" y="777" on="0"/>
        <pt x="177" y="813" on="0"/>
      </contour>
    </TTGlyph>
    <TTGlyph name="Agrave" xMin="15" yMin="-5" xMax="628" yMax="910">
      <contour>
        <pt x="484" y="-5" on="1"/>
        <pt x="435" y="190" on="1"/>
        <pt x="196" y="190" on="1"/>
        <pt x="143" y="0" on="1"/>
        <pt x="15" y="10" on="1"/>
        <pt x="103" y="253" on="1"/>
        <pt x="237" y="683" on="1"/>
        <pt x="416" y="696" on="1"/>
        <pt x="545" y="268" on="1"/>
        <pt x="628" y="17" on="1"/>
      </contour>
      <contour>
        <pt x="326" y="566" on="1"/>
        <pt x="313" y="566" on="1"/>
        <pt x="227" y="296" on="1"/>
        <pt x="405" y="296" on="1"/>
      </contour>
      <contour>
        <pt x="204" y="808" on="1"/>
        <pt x="215" y="910" on="1"/>
        <pt x="343" y="862" on="0"/>
        <pt x="444" y="832" on="1"/>
        <pt x="439" y="760" on="1"/>
      </contour>
    </TTGlyph>
    <TTGlyph name="Aring" xMin="15" yMin="-5" xMax="628" yMax="959">
      <contour>
        <pt x="484" y="-5" on="1"/>
        <pt x="435" y="190" on="1"/>
        <pt x="196" y="190" on="1"/>
        <pt x="143" y="0" on="1"/>
        <pt x="15" y="10" on="1"/>
        <pt x="103" y="253" on="1"/>
        <pt x="237" y="683" on="1"/>
        <pt x="416" y="696" on="1"/>
        <pt x="545" y="268" on="1"/>
        <pt x="628" y="17" on="1"/>
      </contour>
      <contour>
        <pt x="210" y="891" on="0"/>
        <pt x="276" y="959" on="0"/>
        <pt x="374" y="959" on="0"/>
        <pt x="434" y="903" on="0"/>
        <pt x="434" y="801" on="0"/>
        <pt x="368" y="731" on="0"/>
        <pt x="272" y="731" on="0"/>
        <pt x="210" y="794" on="0"/>
      </contour>
      <contour>
        <pt x="326" y="566" on="1"/>
        <pt x="313" y="566" on="1"/>
        <pt x="227" y="296" on="1"/>
        <pt x="405" y="296" on="1"/>
      </contour>
      <contour>
        <pt x="375" y="874" on="0"/>
        <pt x="347" y="903" on="0"/>
        <pt x="300" y="903" on="0"/>
        <pt x="269" y="870" on="0"/>
        <pt x="269" y="820" on="0"/>
        <pt x="298" y="787" on="0"/>
        <pt x="343" y="787" on="0"/>
        <pt x="375" y="823" on="0"/>
      </contour>
    </TTGlyph>
    <TTGlyph name="Atilde" xMin="15" yMin="-5" xMax="628" yMax="888">
      <contour>
        <pt x="484" y="-5" on="1"/>
        <pt x="435" y="190" on="1"/>
        <pt x="196" y="190" on="1"/>
        <pt x="143" y="0" on="1"/>
        <pt x="15" y="10" on="1"/>
        <pt x="103" y="253" on="1"/>
        <pt x="237" y="683" on="1"/>
        <pt x="416" y="696" on="1"/>
        <pt x="545" y="268" on="1"/>
        <pt x="628" y="17" on="1"/>
      </contour>
      <contour>
        <pt x="460" y="888" on="1"/>
        <pt x="488" y="845" on="1"/>
        <pt x="460" y="811" on="0"/>
        <pt x="399" y="759" on="0"/>
        <pt x="383" y="759" on="1"/>
        <pt x="368" y="761" on="0"/>
        <pt x="265" y="799" on="0"/>
        <pt x="250" y="801" on="1"/>
        <pt x="184" y="759" on="1"/>
        <pt x="156" y="802" on="1"/>
        <pt x="184" y="836" on="0"/>
        <pt x="245" y="888" on="0"/>
        <pt x="261" y="888" on="1"/>
        <pt x="276" y="886" on="0"/>
        <pt x="379" y="848" on="0"/>
        <pt x="394" y="846" on="1"/>
      </contour>
      <contour>
        <pt x="326" y="566" on="1"/>
        <pt x="313" y="566" on="1"/>
        <pt x="227" y="296" on="1"/>
        <pt x="405" y="296" on="1"/>
      </contour>
    </TTGlyph>
    <TTGlyph name="B" xMin="80" yMin="-11" xMax="539" yMax="690">
      <contour>
        <pt x="297" y="690" on="1"/>
        <pt x="393" y="690" on="0"/>
        <pt x="505" y="603" on="0"/>
        <pt x="505" y="530" on="1"/>
        <pt x="505" y="413" on="0"/>
        <pt x="409" y="367" on="1"/>
        <pt x="539" y="322" on="0"/>
        <pt x="539" y="201" on="1"/>
        <pt x="539" y="110" on="0"/>
        <pt x="383" y="-11" on="0"/>
        <pt x="265" y="-11" on="1"/>
        <pt x="203" y="-11" on="0"/>
        <pt x="80" y="0" on="1"/>
        <pt x="92" y="243" on="1"/>
        <pt x="80" y="690" on="1"/>
      </contour>
      <contour>
        <pt x="284" y="297" on="1"/>
        <pt x="203" y="297" on="1"/>
        <pt x="202" y="260" on="1"/>
        <pt x="209" y="97" on="1"/>
        <pt x="267" y="92" on="0"/>
        <pt x="298" y="92" on="1"/>
        <pt x="351" y="92" on="0"/>
        <pt x="410" y="145" on="0"/>
        <pt x="410" y="247" on="0"/>
        <pt x="350" y="297" on="0"/>
      </contour>
      <contour>
        <pt x="261" y="589" on="1"/>
        <pt x="212" y="589" on="1"/>
        <pt x="206" y="394" on="1"/>
        <pt x="271" y="394" on="1"/>
        <pt x="322" y="394" on="0"/>
        <pt x="376" y="449" on="0"/>
        <pt x="376" y="500" on="1"/>
        <pt x="376" y="589" on="0"/>
      </contour>
    </TTGlyph>
    <TTGlyph name="C" xMin="30" yMin="-11" xMax="548" yMax="701">
      <contour>
        <pt x="293" y="-11" on="1"/>
        <pt x="182" y="-11" on="0"/>
        <pt x="30" y="175" on="0"/>
        <pt x="30" y="310" on="1"/>
        <pt x="30" y="475" on="0"/>
        <pt x="213" y="701" on="0"/>
        <pt x="346" y="701" on="1"/>
        <pt x="398" y="701" on="0"/>
        <pt x="487" y="680" on="0"/>
        <pt x="506" y="669" on="1"/>
        <pt x="524" y="658" on="1"/>
        <pt x="456" y="519" on="1"/>
        <pt x="433" y="539" on="0"/>
        <pt x="349" y="574" on="0"/>
        <pt x="315" y="574" on="1"/>
        <pt x="246" y="574" on="0"/>
        <pt x="163" y="460" on="0"/>
        <pt x="163" y="249" on="0"/>
        <pt x="249" y="114" on="0"/>
        <pt x="323" y="114" on="1"/>
        <pt x="371" y="114" on="0"/>
        <pt x="449" y="174" on="0"/>
        <pt x="465" y="224" on="1"/>
        <pt x="548" y="176" on="1"/>
        <pt x="515" y="88" on="0"/>
        <pt x="379" y="-11" on="0"/>
      </contour>
    </TTGlyph>
    <TTGlyph name="Ccedilla" xMin="30" yMin="-220" xMax="548" yMax="701">
      <contour>
        <pt x="321" y="-125" on="1"/>
        <pt x="321" y="-94" on="0"/>
        <pt x="252" y="-85" on="1"/>
        <pt x="267" y="-9" on="1"/>
        <pt x="165" y="2" on="0"/>
        <pt x="30" y="183" on="0"/>
        <pt x="30" y="310" on="1"/>
        <pt x="30" y="475" on="0"/>
        <pt x="213" y="701" on="0"/>
        <pt x="346" y="701" on="1"/>
        <pt x="398" y="701" on="0"/>
        <pt x="487" y="680" on="0"/>
        <pt x="506" y="669" on="1"/>
        <pt x="524" y="658" on="1"/>
        <pt x="456" y="519" on="1"/>
        <pt x="433" y="539" on="0"/>
        <pt x="349" y="574" on="0"/>
        <pt x="315" y="574" on="1"/>
        <pt x="246" y="574" on="0"/>
        <pt x="163" y="460" on="0"/>
        <pt x="163" y="249" on="0"/>
        <pt x="249" y="114" on="0"/>
        <pt x="323" y="114" on="1"/>
        <pt x="371" y="114" on="0"/>
        <pt x="449" y="174" on="0"/>
        <pt x="465" y="224" on="1"/>
        <pt x="548" y="176" on="1"/>
        <pt x="518" y="97" on="0"/>
        <pt x="403" y="1" on="0"/>
        <pt x="329" y="-8" on="1"/>
        <pt x="324" y="-40" on="1"/>
        <pt x="364" y="-50" on="0"/>
        <pt x="407" y="-89" on="0"/>
        <pt x="407" y="-115" on="1"/>
        <pt x="407" y="-152" on="0"/>
        <pt x="325" y="-212" on="0"/>
        <pt x="263" y="-220" on="1"/>
        <pt x="231" y="-176" on="1"/>
        <pt x="321" y="-160" on="0"/>
      </contour>
    </TTGlyph>
    <TTGlyph name="D" xMin="80" yMin="-11" xMax="634" yMax="690">
      <contour>
        <pt x="285" y="-11" on="1"/>
        <pt x="214" y="-11" on="0"/>
        <pt x="80" y="0" on="1"/>
        <pt x="92" y="243" on="1"/>
        <pt x="80" y="690" on="1"/>
        <pt x="347" y="690" on="1"/>
        <pt x="482" y="690" on="0"/>
        <pt x="634" y="528" on="0"/>
        <pt x="634" y="384" on="1"/>
        <pt x="634" y="202" on="0"/>
        <pt x="446" y="-11" on="0"/>
      </contour>
      <contour>
        <pt x="311" y="582" on="1"/>
        <pt x="245" y="582" on="0"/>
        <pt x="218" y="581" on="1"/>
        <pt x="208" y="260" on="1"/>
        <pt x="215" y="98" on="1"/>
        <pt x="299" y="92" on="0"/>
        <pt x="328" y="92" on="1"/>
        <pt x="407" y="92" on="0"/>
        <pt x="498" y="220" on="0"/>
        <pt x="498" y="464" on="0"/>
        <pt x="409" y="582" on="0"/>
      </contour>
    </TTGlyph>
    <TTGlyph name="E" xMin="80" yMin="0" xMax="457" yMax="690">
      <contour>
        <pt x="80" y="0" on="1"/>
        <pt x="92" y="243" on="1"/>
        <pt x="80" y="690" on="1"/>
        <pt x="455" y="690" on="1"/>
        <pt x="444" y="583" on="1"/>
        <pt x="219" y="583" on="1"/>
        <pt x="213" y="406" on="1"/>
        <pt x="413" y="406" on="1"/>
        <pt x="402" y="300" on="1"/>
        <pt x="209" y="300" on="1"/>
        <pt x="208" y="260" on="1"/>
        <pt x="215" y="106" on="1"/>
        <pt x="457" y="106" on="1"/>
        <pt x="446" y="0" on="1"/>
      </contour>
    </TTGlyph>
    <TTGlyph name="Eacute" xMin="80" yMin="0" xMax="457" yMax="910">
      <contour>
        <pt x="80" y="0" on="1"/>
        <pt x="92" y="243" on="1"/>
        <pt x="80" y="690" on="1"/>
        <pt x="455" y="690" on="1"/>
        <pt x="444" y="583" on="1"/>
        <pt x="219" y="583" on="1"/>
        <pt x="213" y="406" on="1"/>
        <pt x="413" y="406" on="1"/>
        <pt x="402" y="300" on="1"/>
        <pt x="209" y="300" on="1"/>
        <pt x="208" y="260" on="1"/>
        <pt x="215" y="106" on="1"/>
        <pt x="457" y="106" on="1"/>
        <pt x="446" y="0" on="1"/>
      </contour>
      <contour>
        <pt x="390" y="910" on="1"/>
        <pt x="401" y="808" on="1"/>
        <pt x="270" y="778" on="0"/>
        <pt x="166" y="760" on="1"/>
        <pt x="161" y="832" on="1"/>
        <pt x="246" y="857" on="0"/>
      </contour>
    </TTGlyph>
    <TTGlyph name="Ecircumflex" xMin="80" yMin="0" xMax="457" yMax="898">
      <contour>
        <pt x="279" y="751" on="1"/>
        <pt x="135" y="836" on="1"/>
        <pt x="150" y="898" on="1"/>
        <pt x="279" y="851" on="1"/>
        <pt x="410" y="898" on="1"/>
        <pt x="425" y="836" on="1"/>
      </contour>
      <contour>
        <pt x="80" y="0" on="1"/>
        <pt x="92" y="243" on="1"/>
        <pt x="80" y="690" on="1"/>
        <pt x="455" y="690" on="1"/>
        <pt x="444" y="583" on="1"/>
        <pt x="219" y="583" on="1"/>
        <pt x="213" y="406" on="1"/>
        <pt x="413" y="406" on="1"/>
        <pt x="402" y="300" on="1"/>
        <pt x="209" y="300" on="1"/>
        <pt x="208" y="260" on="1"/>
        <pt x="215" y="106" on="1"/>
        <pt x="457" y="106" on="1"/>
        <pt x="446" y="0" on="1"/>
      </contour>
    </TTGlyph>
    <TTGlyph name="Edieresis" xMin="80" yMin="0" xMax="457" yMax="913">
      <contour>
        <pt x="80" y="0" on="1"/>
        <pt x="92" y="243" on="1"/>
        <pt x="80" y="690" on="1"/>
        <pt x="455" y="690" on="1"/>
        <pt x="444" y="583" on="1"/>
        <pt x="219" y="583" on="1"/>
        <pt x="213" y="406" on="1"/>
        <pt x="413" y="406" on="1"/>
        <pt x="402" y="300" on="1"/>
        <pt x="209" y="300" on="1"/>
        <pt x="208" y="260" on="1"/>
        <pt x="215" y="106" on="1"/>
        <pt x="457" y="106" on="1"/>
        <pt x="446" y="0" on="1"/>
      </contour>
      <contour>
        <pt x="134" y="869" on="0"/>
        <pt x="176" y="913" on="0"/>
        <pt x="232" y="913" on="0"/>
        <pt x="262" y="882" on="0"/>
        <pt x="262" y="821" on="0"/>
        <pt x="220" y="777" on="0"/>
        <pt x="165" y="777" on="0"/>
        <pt x="134" y="813" on="0"/>
      </contour>
      <contour>
        <pt x="296" y="869" on="0"/>
        <pt x="338" y="913" on="0"/>
        <pt x="366" y="913" on="1"/>
        <pt x="424" y="913" on="0"/>
        <pt x="424" y="855" on="1"/>
        <pt x="424" y="821" on="0"/>
        <pt x="383" y="777" on="0"/>
        <pt x="328" y="777" on="0"/>
        <pt x="296" y="813" on="0"/>
      </contour>
    </TTGlyph>
    <TTGlyph name="Egrave" xMin="80" yMin="0" xMax="457" yMax="910">
      <contour>
        <pt x="80" y="0" on="1"/>
        <pt x="92" y="243" on="1"/>
        <pt x="80" y="690" on="1"/>
        <pt x="455" y="690" on="1"/>
        <pt x="444" y="583" on="1"/>
        <pt x="219" y="583" on="1"/>
        <pt x="213" y="406" on="1"/>
        <pt x="413" y="406" on="1"/>
        <pt x="402" y="300" on="1"/>
        <pt x="209" y="300" on="1"/>
        <pt x="208" y="260" on="1"/>
        <pt x="215" y="106" on="1"/>
        <pt x="457" y="106" on="1"/>
        <pt x="446" y="0" on="1"/>
      </contour>
      <contour>
        <pt x="161" y="808" on="1"/>
        <pt x="172" y="910" on="1"/>
        <pt x="300" y="862" on="0"/>
        <pt x="401" y="832" on="1"/>
        <pt x="396" y="760" on="1"/>
      </contour>
    </TTGlyph>
    <TTGlyph name="Eth" xMin="4" yMin="-11" xMax="649" yMax="690">
      <contour>
        <pt x="362" y="690" on="1"/>
        <pt x="497" y="690" on="0"/>
        <pt x="649" y="528" on="0"/>
        <pt x="649" y="384" on="1"/>
        <pt x="649" y="202" on="0"/>
        <pt x="461" y="-11" on="0"/>
        <pt x="300" y="-11" on="1"/>
        <pt x="229" y="-11" on="0"/>
        <pt x="95" y="0" on="1"/>
        <pt x="107" y="243" on="1"/>
        <pt x="105" y="319" on="1"/>
        <pt x="4" y="319" on="1"/>
        <pt x="9" y="366" on="1"/>
        <pt x="103" y="366" on="1"/>
        <pt x="95" y="690" on="1"/>
      </contour>
      <contour>
        <pt x="343" y="92" on="1"/>
        <pt x="422" y="92" on="0"/>
        <pt x="513" y="220" on="0"/>
        <pt x="513" y="464" on="0"/>
        <pt x="424" y="582" on="0"/>
        <pt x="326" y="582" on="1"/>
        <pt x="260" y="582" on="0"/>
        <pt x="233" y="581" on="1"/>
        <pt x="226" y="366" on="1"/>
        <pt x="367" y="366" on="1"/>
        <pt x="363" y="319" on="1"/>
        <pt x="225" y="319" on="1"/>
        <pt x="223" y="260" on="1"/>
        <pt x="230" y="98" on="1"/>
        <pt x="314" y="92" on="0"/>
      </contour>
    </TTGlyph>
    <TTGlyph name="Euro" xMin="13" yMin="-11" xMax="576" yMax="650">
      <contour>
        <pt x="245" y="177" on="0"/>
        <pt x="315" y="108" on="0"/>
        <pt x="411" y="108" on="0"/>
        <pt x="481" y="163" on="0"/>
        <pt x="496" y="209" on="1"/>
        <pt x="576" y="163" on="1"/>
        <pt x="545" y="81" on="0"/>
        <pt x="419" y="-11" on="0"/>
        <pt x="246" y="-11" on="0"/>
        <pt x="110" y="133" on="0"/>
        <pt x="97" y="243" on="1"/>
        <pt x="13" y="243" on="1"/>
        <pt x="18" y="290" on="1"/>
        <pt x="95" y="290" on="1"/>
        <pt x="95" y="332" on="0"/>
        <pt x="102" y="367" on="1"/>
        <pt x="13" y="367" on="1"/>
        <pt x="18" y="414" on="1"/>
        <pt x="113" y="414" on="1"/>
        <pt x="144" y="520" on="0"/>
        <pt x="293" y="650" on="0"/>
        <pt x="388" y="650" on="1"/>
        <pt x="436" y="650" on="0"/>
        <pt x="519" y="630" on="0"/>
        <pt x="536" y="620" on="1"/>
        <pt x="554" y="610" on="1"/>
        <pt x="489" y="478" on="1"/>
        <pt x="465" y="498" on="0"/>
        <pt x="392" y="529" on="0"/>
        <pt x="311" y="529" on="0"/>
        <pt x="244" y="469" on="0"/>
        <pt x="230" y="414" on="1"/>
        <pt x="456" y="414" on="1"/>
        <pt x="452" y="367" on="1"/>
        <pt x="223" y="367" on="1"/>
        <pt x="222" y="358" on="0"/>
        <pt x="222" y="305" on="0"/>
        <pt x="224" y="290" on="1"/>
        <pt x="456" y="290" on="1"/>
        <pt x="452" y="243" on="1"/>
        <pt x="231" y="243" on="1"/>
      </contour>
    </TTGlyph>
    <TTGlyph name="F" xMin="80" yMin="0" xMax="442" yMax="690">
      <contour>
        <pt x="431" y="583" on="1"/>
        <pt x="218" y="583" on="1"/>
        <pt x="212" y="399" on="1"/>
        <pt x="403" y="399" on="1"/>
        <pt x="392" y="293" on="1"/>
        <pt x="209" y="293" on="1"/>
        <pt x="208" y="260" on="1"/>
        <pt x="220" y="0" on="1"/>
        <pt x="80" y="0" on="1"/>
        <pt x="92" y="243" on="1"/>
        <pt x="80" y="690" on="1"/>
        <pt x="442" y="690" on="1"/>
      </contour>
    </TTGlyph>
    <TTGlyph name="G" xMin="30" yMin="-11" xMax="574" yMax="701">
      <contour>
        <pt x="321" y="-11" on="1"/>
        <pt x="190" y="-11" on="0"/>
        <pt x="30" y="165" on="0"/>
        <pt x="30" y="310" on="1"/>
        <pt x="30" y="475" on="0"/>
        <pt x="230" y="701" on="0"/>
        <pt x="376" y="701" on="1"/>
        <pt x="434" y="701" on="0"/>
        <pt x="533" y="680" on="0"/>
        <pt x="554" y="669" on="1"/>
        <pt x="574" y="658" on="1"/>
        <pt x="516" y="519" on="1"/>
        <pt x="486" y="539" on="0"/>
        <pt x="384" y="574" on="0"/>
        <pt x="345" y="574" on="1"/>
        <pt x="264" y="574" on="0"/>
        <pt x="166" y="460" on="0"/>
        <pt x="166" y="366" on="1"/>
        <pt x="166" y="239" on="0"/>
        <pt x="259" y="97" on="0"/>
        <pt x="342" y="97" on="1"/>
        <pt x="396" y="97" on="0"/>
        <pt x="444" y="112" on="1"/>
        <pt x="444" y="267" on="1"/>
        <pt x="315" y="267" on="1"/>
        <pt x="325" y="368" on="1"/>
        <pt x="565" y="368" on="1"/>
        <pt x="556" y="205" on="1"/>
        <pt x="563" y="32" on="1"/>
        <pt x="416" y="-11" on="0"/>
      </contour>
    </TTGlyph>
    <TTGlyph name="H" xMin="80" yMin="0" xMax="610" yMax="695">
      <contour>
        <pt x="610" y="695" on="1"/>
        <pt x="596" y="260" on="1"/>
        <pt x="608" y="0" on="1"/>
        <pt x="468" y="0" on="1"/>
        <pt x="480" y="243" on="1"/>
        <pt x="478" y="296" on="1"/>
        <pt x="209" y="296" on="1"/>
        <pt x="208" y="260" on="1"/>
        <pt x="220" y="0" on="1"/>
        <pt x="80" y="0" on="1"/>
        <pt x="92" y="243" on="1"/>
        <pt x="80" y="670" on="1"/>
        <pt x="222" y="695" on="1"/>
        <pt x="212" y="402" on="1"/>
        <pt x="475" y="402" on="1"/>
        <pt x="468" y="670" on="1"/>
      </contour>
    </TTGlyph>
    <TTGlyph name="I" xMin="80" yMin="0" xMax="222" yMax="695">
      <contour>
        <pt x="222" y="695" on="1"/>
        <pt x="208" y="260" on="1"/>
        <pt x="220" y="0" on="1"/>
        <pt x="80" y="0" on="1"/>
        <pt x="92" y="243" on="1"/>
        <pt x="80" y="670" on="1"/>
      </contour>
    </TTGlyph>
    <TTGlyph name="Iacute" xMin="34" yMin="0" xMax="274" yMax="910">
      <contour>
        <pt x="222" y="695" on="1"/>
        <pt x="208" y="260" on="1"/>
        <pt x="220" y="0" on="1"/>
        <pt x="80" y="0" on="1"/>
        <pt x="92" y="243" on="1"/>
        <pt x="80" y="670" on="1"/>
      </contour>
      <contour>
        <pt x="263" y="910" on="1"/>
        <pt x="274" y="808" on="1"/>
        <pt x="143" y="778" on="0"/>
        <pt x="39" y="760" on="1"/>
        <pt x="34" y="832" on="1"/>
        <pt x="120" y="857" on="0"/>
      </contour>
    </TTGlyph>
    <TTGlyph name="Icircumflex" xMin="8" yMin="0" xMax="298" yMax="898">
      <contour>
        <pt x="152" y="751" on="1"/>
        <pt x="8" y="836" on="1"/>
        <pt x="23" y="898" on="1"/>
        <pt x="152" y="851" on="1"/>
        <pt x="283" y="898" on="1"/>
        <pt x="298" y="836" on="1"/>
      </contour>
      <contour>
        <pt x="222" y="695" on="1"/>
        <pt x="208" y="260" on="1"/>
        <pt x="220" y="0" on="1"/>
        <pt x="80" y="0" on="1"/>
        <pt x="92" y="243" on="1"/>
        <pt x="80" y="670" on="1"/>
      </contour>
    </TTGlyph>
    <TTGlyph name="Idieresis" xMin="7" yMin="0" xMax="297" yMax="913">
      <contour>
        <pt x="222" y="695" on="1"/>
        <pt x="208" y="260" on="1"/>
        <pt x="220" y="0" on="1"/>
        <pt x="80" y="0" on="1"/>
        <pt x="92" y="243" on="1"/>
        <pt x="80" y="670" on="1"/>
      </contour>
      <contour>
        <pt x="7" y="869" on="0"/>
        <pt x="49" y="913" on="0"/>
        <pt x="105" y="913" on="0"/>
        <pt x="135" y="882" on="0"/>
        <pt x="135" y="821" on="0"/>
        <pt x="93" y="777" on="0"/>
        <pt x="38" y="777" on="0"/>
        <pt x="7" y="813" on="0"/>
      </contour>
      <contour>
        <pt x="169" y="869" on="0"/>
        <pt x="211" y="913" on="0"/>
        <pt x="240" y="913" on="1"/>
        <pt x="297" y="913" on="0"/>
        <pt x="297" y="855" on="1"/>
        <pt x="297" y="821" on="0"/>
        <pt x="256" y="777" on="0"/>
        <pt x="201" y="777" on="0"/>
        <pt x="169" y="813" on="0"/>
      </contour>
    </TTGlyph>
    <TTGlyph name="Igrave" xMin="34" yMin="0" xMax="274" yMax="910">
      <contour>
        <pt x="222" y="695" on="1"/>
        <pt x="208" y="260" on="1"/>
        <pt x="220" y="0" on="1"/>
        <pt x="80" y="0" on="1"/>
        <pt x="92" y="243" on="1"/>
        <pt x="80" y="670" on="1"/>
      </contour>
      <contour>
        <pt x="34" y="808" on="1"/>
        <pt x="45" y="910" on="1"/>
        <pt x="173" y="862" on="0"/>
        <pt x="274" y="832" on="1"/>
        <pt x="269" y="760" on="1"/>
      </contour>
    </TTGlyph>
    <TTGlyph name="Itilde" xMin="-14" yMin="0" xMax="318" yMax="888">
      <contour>
        <pt x="222" y="695" on="1"/>
        <pt x="208" y="260" on="1"/>
        <pt x="220" y="0" on="1"/>
        <pt x="80" y="0" on="1"/>
        <pt x="92" y="243" on="1"/>
        <pt x="80" y="670" on="1"/>
      </contour>
      <contour>
        <pt x="290" y="888" on="1"/>
        <pt x="318" y="845" on="1"/>
        <pt x="290" y="811" on="0"/>
        <pt x="229" y="759" on="0"/>
        <pt x="213" y="759" on="1"/>
        <pt x="198" y="761" on="0"/>
        <pt x="95" y="799" on="0"/>
        <pt x="80" y="801" on="1"/>
        <pt x="14" y="759" on="1"/>
        <pt x="-14" y="802" on="1"/>
        <pt x="14" y="836" on="0"/>
        <pt x="75" y="888" on="0"/>
        <pt x="91" y="888" on="1"/>
        <pt x="106" y="886" on="0"/>
        <pt x="209" y="848" on="0"/>
        <pt x="224" y="846" on="1"/>
      </contour>
    </TTGlyph>
    <TTGlyph name="J" xMin="0" yMin="-10" xMax="285" yMax="695">
      <contour>
        <pt x="82" y="-10" on="1"/>
        <pt x="41" y="-10" on="0"/>
        <pt x="0" y="-1" on="1"/>
        <pt x="32" y="119" on="1"/>
        <pt x="65" y="108" on="0"/>
        <pt x="96" y="108" on="1"/>
        <pt x="157" y="108" on="0"/>
        <pt x="157" y="209" on="1"/>
        <pt x="143" y="670" on="1"/>
        <pt x="285" y="695" on="1"/>
        <pt x="271" y="244" on="1"/>
        <pt x="271" y="135" on="0"/>
        <pt x="165" y="-10" on="0"/>
      </contour>
    </TTGlyph>
    <TTGlyph name="Jcircumflex" xMin="0" yMin="-10" xMax="361" yMax="898">
      <contour>
        <pt x="215" y="751" on="1"/>
        <pt x="71" y="836" on="1"/>
        <pt x="86" y="898" on="1"/>
        <pt x="215" y="851" on="1"/>
        <pt x="346" y="898" on="1"/>
        <pt x="361" y="836" on="1"/>
      </contour>
      <contour>
        <pt x="82" y="-10" on="1"/>
        <pt x="41" y="-10" on="0"/>
        <pt x="0" y="-1" on="1"/>
        <pt x="32" y="119" on="1"/>
        <pt x="65" y="108" on="0"/>
        <pt x="96" y="108" on="1"/>
        <pt x="157" y="108" on="0"/>
        <pt x="157" y="209" on="1"/>
        <pt x="143" y="670" on="1"/>
        <pt x="285" y="695" on="1"/>
        <pt x="271" y="244" on="1"/>
        <pt x="271" y="135" on="0"/>
        <pt x="165" y="-10" on="0"/>
      </contour>
    </TTGlyph>
    <TTGlyph name="K" xMin="80" yMin="-11" xMax="582" yMax="695">
      <contour>
        <pt x="222" y="695" on="1"/>
        <pt x="211" y="369" on="1"/>
        <pt x="466" y="693" on="1"/>
        <pt x="568" y="625" on="1"/>
        <pt x="338" y="358" on="1"/>
        <pt x="582" y="69" on="1"/>
        <pt x="454" y="-11" on="1"/>
        <pt x="210" y="334" on="1"/>
        <pt x="208" y="260" on="1"/>
        <pt x="220" y="0" on="1"/>
        <pt x="80" y="0" on="1"/>
        <pt x="92" y="243" on="1"/>
        <pt x="80" y="670" on="1"/>
      </contour>
    </TTGlyph>
    <TTGlyph name="L" xMin="80" yMin="0" xMax="420" yMax="695">
      <contour>
        <pt x="80" y="0" on="1"/>
        <pt x="92" y="243" on="1"/>
        <pt x="80" y="670" on="1"/>
        <pt x="222" y="695" on="1"/>
        <pt x="208" y="260" on="1"/>
        <pt x="215" y="98" on="1"/>
        <pt x="420" y="114" on="1"/>
        <pt x="409" y="0" on="1"/>
      </contour>
    </TTGlyph>
    <TTGlyph name="Lslash" xMin="3" yMin="0" xMax="440" yMax="695">
      <contour>
        <pt x="242" y="695" on="1"/>
        <pt x="234" y="451" on="1"/>
        <pt x="349" y="515" on="1"/>
        <pt x="369" y="471" on="1"/>
        <pt x="232" y="395" on="1"/>
        <pt x="228" y="260" on="1"/>
        <pt x="235" y="98" on="1"/>
        <pt x="440" y="114" on="1"/>
        <pt x="429" y="0" on="1"/>
        <pt x="100" y="0" on="1"/>
        <pt x="112" y="243" on="1"/>
        <pt x="109" y="328" on="1"/>
        <pt x="21" y="279" on="1"/>
        <pt x="3" y="323" on="1"/>
        <pt x="108" y="381" on="1"/>
        <pt x="100" y="670" on="1"/>
      </contour>
    </TTGlyph>
    <TTGlyph name="M" xMin="65" yMin="0" xMax="687" yMax="697">
      <contour>
        <pt x="370" y="312" on="1"/>
        <pt x="380" y="312" on="1"/>
        <pt x="526" y="692" on="1"/>
        <pt x="664" y="688" on="1"/>
        <pt x="668" y="258" on="1"/>
        <pt x="687" y="0" on="1"/>
        <pt x="552" y="0" on="1"/>
        <pt x="557" y="260" on="1"/>
        <pt x="546" y="523" on="1"/>
        <pt x="426" y="192" on="1"/>
        <pt x="303" y="186" on="1"/>
        <pt x="191" y="523" on="1"/>
        <pt x="182" y="260" on="1"/>
        <pt x="189" y="0" on="1"/>
        <pt x="65" y="0" on="1"/>
        <pt x="79" y="243" on="1"/>
        <pt x="85" y="672" on="1"/>
        <pt x="244" y="697" on="1"/>
      </contour>
    </TTGlyph>
    <TTGlyph name="N" xMin="80" yMin="-3" xMax="609" yMax="693">
      <contour>
        <pt x="609" y="692" on="1"/>
        <pt x="596" y="260" on="1"/>
        <pt x="607" y="22" on="1"/>
        <pt x="489" y="-3" on="1"/>
        <pt x="191" y="479" on="1"/>
        <pt x="191" y="260" on="1"/>
        <pt x="205" y="0" on="1"/>
        <pt x="80" y="0" on="1"/>
        <pt x="92" y="243" on="1"/>
        <pt x="80" y="687" on="1"/>
        <pt x="200" y="693" on="1"/>
        <pt x="497" y="204" on="1"/>
        <pt x="487" y="677" on="1"/>
      </contour>
    </TTGlyph>
    <TTGlyph name="Nacute" xMin="80" yMin="-3" xMax="609" yMax="910">
      <contour>
        <pt x="609" y="692" on="1"/>
        <pt x="596" y="260" on="1"/>
        <pt x="607" y="22" on="1"/>
        <pt x="489" y="-3" on="1"/>
        <pt x="191" y="479" on="1"/>
        <pt x="191" y="260" on="1"/>
        <pt x="205" y="0" on="1"/>
        <pt x="80" y="0" on="1"/>
        <pt x="92" y="243" on="1"/>
        <pt x="80" y="687" on="1"/>
        <pt x="200" y="693" on="1"/>
        <pt x="497" y="204" on="1"/>
        <pt x="487" y="677" on="1"/>
      </contour>
      <contour>
        <pt x="456" y="910" on="1"/>
        <pt x="467" y="808" on="1"/>
        <pt x="336" y="778" on="0"/>
        <pt x="232" y="760" on="1"/>
        <pt x="227" y="832" on="1"/>
        <pt x="312" y="857" on="0"/>
      </contour>
    </TTGlyph>
    <TTGlyph name="Ntilde" xMin="80" yMin="-3" xMax="609" yMax="888">
      <contour>
        <pt x="609" y="692" on="1"/>
        <pt x="596" y="260" on="1"/>
        <pt x="607" y="22" on="1"/>
        <pt x="489" y="-3" on="1"/>
        <pt x="191" y="479" on="1"/>
        <pt x="191" y="260" on="1"/>
        <pt x="205" y="0" on="1"/>
        <pt x="80" y="0" on="1"/>
        <pt x="92" y="243" on="1"/>
        <pt x="80" y="687" on="1"/>
        <pt x="200" y="693" on="1"/>
        <pt x="497" y="204" on="1"/>
        <pt x="487" y="677" on="1"/>
      </contour>
      <contour>
        <pt x="483" y="888" on="1"/>
        <pt x="511" y="845" on="1"/>
        <pt x="483" y="811" on="0"/>
        <pt x="422" y="759" on="0"/>
        <pt x="406" y="759" on="1"/>
        <pt x="391" y="761" on="0"/>
        <pt x="288" y="799" on="0"/>
        <pt x="273" y="801" on="1"/>
        <pt x="207" y="759" on="1"/>
        <pt x="179" y="802" on="1"/>
        <pt x="207" y="836" on="0"/>
        <pt x="268" y="888" on="0"/>
        <pt x="284" y="888" on="1"/>
        <pt x="299" y="886" on="0"/>
        <pt x="402" y="848" on="0"/>
        <pt x="417" y="846" on="1"/>
      </contour>
    </TTGlyph>
    <TTGlyph name="O" xMin="30" yMin="-11" xMax="631" yMax="700">
      <contour>
        <pt x="360" y="700" on="1"/>
        <pt x="478" y="700" on="0"/>
        <pt x="631" y="520" on="0"/>
        <pt x="631" y="381" on="1"/>
        <pt x="631" y="205" on="0"/>
        <pt x="449" y="-11" on="0"/>
        <pt x="301" y="-11" on="1"/>
        <pt x="186" y="-11" on="0"/>
        <pt x="30" y="174" on="0"/>
        <pt x="30" y="310" on="1"/>
        <pt x="30" y="480" on="0"/>
        <pt x="216" y="700" on="0"/>
      </contour>
      <contour>
        <pt x="495" y="325" on="1"/>
        <pt x="495" y="578" on="0"/>
        <pt x="329" y="578" on="1"/>
        <pt x="253" y="578" on="0"/>
        <pt x="166" y="465" on="0"/>
        <pt x="166" y="240" on="0"/>
        <pt x="259" y="95" on="0"/>
        <pt x="412" y="95" on="0"/>
        <pt x="495" y="218" on="0"/>
      </contour>
    </TTGlyph>
    <TTGlyph name="OE" xMin="30" yMin="0" xMax="839" yMax="690">
      <contour>
        <pt x="301" y="0" on="1"/>
        <pt x="186" y="0" on="0"/>
        <pt x="30" y="179" on="0"/>
        <pt x="30" y="310" on="1"/>
        <pt x="30" y="470" on="0"/>
        <pt x="221" y="690" on="0"/>
        <pt x="360" y="690" on="1"/>
        <pt x="837" y="690" on="1"/>
        <pt x="826" y="583" on="1"/>
        <pt x="566" y="583" on="1"/>
        <pt x="560" y="406" on="1"/>
        <pt x="795" y="406" on="1"/>
        <pt x="784" y="300" on="1"/>
        <pt x="556" y="300" on="1"/>
        <pt x="555" y="260" on="1"/>
        <pt x="562" y="106" on="1"/>
        <pt x="839" y="106" on="1"/>
        <pt x="828" y="0" on="1"/>
      </contour>
      <contour>
        <pt x="339" y="573" on="1"/>
        <pt x="258" y="573" on="0"/>
        <pt x="166" y="463" on="0"/>
        <pt x="166" y="366" on="1"/>
        <pt x="166" y="239" on="0"/>
        <pt x="262" y="101" on="0"/>
        <pt x="350" y="101" on="1"/>
        <pt x="401" y="101" on="0"/>
        <pt x="438" y="131" on="0"/>
        <pt x="438" y="174" on="1"/>
        <pt x="435" y="493" on="1"/>
        <pt x="435" y="544" on="0"/>
        <pt x="399" y="573" on="0"/>
      </contour>
    </TTGlyph>
    <TTGlyph name="Oacute" xMin="30" yMin="-11" xMax="631" yMax="910">
      <contour>
        <pt x="360" y="700" on="1"/>
        <pt x="478" y="700" on="0"/>
        <pt x="631" y="520" on="0"/>
        <pt x="631" y="381" on="1"/>
        <pt x="631" y="205" on="0"/>
        <pt x="449" y="-11" on="0"/>
        <pt x="301" y="-11" on="1"/>
        <pt x="186" y="-11" on="0"/>
        <pt x="30" y="174" on="0"/>
        <pt x="30" y="310" on="1"/>
        <pt x="30" y="480" on="0"/>
        <pt x="216" y="700" on="0"/>
      </contour>
      <contour>
        <pt x="495" y="325" on="1"/>
        <pt x="495" y="578" on="0"/>
        <pt x="329" y="578" on="1"/>
        <pt x="253" y="578" on="0"/>
        <pt x="166" y="465" on="0"/>
        <pt x="166" y="240" on="0"/>
        <pt x="259" y="95" on="0"/>
        <pt x="412" y="95" on="0"/>
        <pt x="495" y="218" on="0"/>
      </contour>
      <contour>
        <pt x="440" y="910" on="1"/>
        <pt x="451" y="808" on="1"/>
        <pt x="320" y="778" on="0"/>
        <pt x="216" y="760" on="1"/>
        <pt x="211" y="832" on="1"/>
        <pt x="297" y="857" on="0"/>
      </contour>
    </TTGlyph>
    <TTGlyph name="Ocircumflex" xMin="30" yMin="-11" xMax="631" yMax="898">
      <contour>
        <pt x="329" y="751" on="1"/>
        <pt x="185" y="836" on="1"/>
        <pt x="200" y="898" on="1"/>
        <pt x="329" y="851" on="1"/>
        <pt x="460" y="898" on="1"/>
        <pt x="475" y="836" on="1"/>
      </contour>
      <contour>
        <pt x="360" y="700" on="1"/>
        <pt x="478" y="700" on="0"/>
        <pt x="631" y="520" on="0"/>
        <pt x="631" y="381" on="1"/>
        <pt x="631" y="205" on="0"/>
        <pt x="449" y="-11" on="0"/>
        <pt x="301" y="-11" on="1"/>
        <pt x="186" y="-11" on="0"/>
        <pt x="30" y="174" on="0"/>
        <pt x="30" y="310" on="1"/>
        <pt x="30" y="480" on="0"/>
        <pt x="216" y="700" on="0"/>
      </contour>
      <contour>
        <pt x="495" y="325" on="1"/>
        <pt x="495" y="578" on="0"/>
        <pt x="329" y="578" on="1"/>
        <pt x="253" y="578" on="0"/>
        <pt x="166" y="465" on="0"/>
        <pt x="166" y="240" on="0"/>
        <pt x="259" y="95" on="0"/>
        <pt x="412" y="95" on="0"/>
        <pt x="495" y="218" on="0"/>
      </contour>
    </TTGlyph>
    <TTGlyph name="Odieresis" xMin="30" yMin="-11" xMax="631" yMax="913">
      <contour>
        <pt x="360" y="700" on="1"/>
        <pt x="478" y="700" on="0"/>
        <pt x="631" y="520" on="0"/>
        <pt x="631" y="381" on="1"/>
        <pt x="631" y="205" on="0"/>
        <pt x="449" y="-11" on="0"/>
        <pt x="301" y="-11" on="1"/>
        <pt x="186" y="-11" on="0"/>
        <pt x="30" y="174" on="0"/>
        <pt x="30" y="310" on="1"/>
        <pt x="30" y="480" on="0"/>
        <pt x="216" y="700" on="0"/>
      </contour>
      <contour>
        <pt x="495" y="325" on="1"/>
        <pt x="495" y="578" on="0"/>
        <pt x="329" y="578" on="1"/>
        <pt x="253" y="578" on="0"/>
        <pt x="166" y="465" on="0"/>
        <pt x="166" y="240" on="0"/>
        <pt x="259" y="95" on="0"/>
        <pt x="412" y="95" on="0"/>
        <pt x="495" y="218" on="0"/>
      </contour>
      <contour>
        <pt x="184" y="869" on="0"/>
        <pt x="226" y="913" on="0"/>
        <pt x="282" y="913" on="0"/>
        <pt x="312" y="882" on="0"/>
        <pt x="312" y="821" on="0"/>
        <pt x="270" y="777" on="0"/>
        <pt x="215" y="777" on="0"/>
        <pt x="184" y="813" on="0"/>
      </contour>
      <contour>
        <pt x="346" y="869" on="0"/>
        <pt x="388" y="913" on="0"/>
        <pt x="416" y="913" on="1"/>
        <pt x="474" y="913" on="0"/>
        <pt x="474" y="855" on="1"/>
        <pt x="474" y="821" on="0"/>
        <pt x="433" y="777" on="0"/>
        <pt x="378" y="777" on="0"/>
        <pt x="346" y="813" on="0"/>
      </contour>
    </TTGlyph>
    <TTGlyph name="Ograve" xMin="30" yMin="-11" xMax="631" yMax="910">
      <contour>
        <pt x="360" y="700" on="1"/>
        <pt x="478" y="700" on="0"/>
        <pt x="631" y="520" on="0"/>
        <pt x="631" y="381" on="1"/>
        <pt x="631" y="205" on="0"/>
        <pt x="449" y="-11" on="0"/>
        <pt x="301" y="-11" on="1"/>
        <pt x="186" y="-11" on="0"/>
        <pt x="30" y="174" on="0"/>
        <pt x="30" y="310" on="1"/>
        <pt x="30" y="480" on="0"/>
        <pt x="216" y="700" on="0"/>
      </contour>
      <contour>
        <pt x="495" y="325" on="1"/>
        <pt x="495" y="578" on="0"/>
        <pt x="329" y="578" on="1"/>
        <pt x="253" y="578" on="0"/>
        <pt x="166" y="465" on="0"/>
        <pt x="166" y="240" on="0"/>
        <pt x="259" y="95" on="0"/>
        <pt x="412" y="95" on="0"/>
        <pt x="495" y="218" on="0"/>
      </contour>
      <contour>
        <pt x="211" y="808" on="1"/>
        <pt x="222" y="910" on="1"/>
        <pt x="350" y="862" on="0"/>
        <pt x="451" y="832" on="1"/>
        <pt x="446" y="760" on="1"/>
      </contour>
    </TTGlyph>
    <TTGlyph name="Oslash" xMin="33" yMin="-99" xMax="634" yMax="780">
      <contour>
        <pt x="363" y="700" on="1"/>
        <pt x="427" y="700" on="0"/>
        <pt x="484" y="670" on="1"/>
        <pt x="545" y="780" on="1"/>
        <pt x="589" y="762" on="1"/>
        <pt x="523" y="643" on="1"/>
        <pt x="575" y="600" on="0"/>
        <pt x="634" y="464" on="0"/>
        <pt x="634" y="381" on="1"/>
        <pt x="634" y="205" on="0"/>
        <pt x="452" y="-11" on="0"/>
        <pt x="304" y="-11" on="1"/>
        <pt x="238" y="-11" on="0"/>
        <pt x="180" y="22" on="1"/>
        <pt x="113" y="-99" on="1"/>
        <pt x="70" y="-80" on="1"/>
        <pt x="142" y="50" on="1"/>
        <pt x="91" y="94" on="0"/>
        <pt x="33" y="230" on="0"/>
        <pt x="33" y="310" on="1"/>
        <pt x="33" y="480" on="0"/>
        <pt x="219" y="700" on="0"/>
      </contour>
      <contour>
        <pt x="415" y="95" on="0"/>
        <pt x="498" y="218" on="0"/>
        <pt x="498" y="454" on="0"/>
        <pt x="454" y="518" on="1"/>
        <pt x="242" y="134" on="1"/>
        <pt x="284" y="95" on="0"/>
      </contour>
      <contour>
        <pt x="256" y="578" on="0"/>
        <pt x="169" y="465" on="0"/>
        <pt x="169" y="247" on="0"/>
        <pt x="211" y="175" on="1"/>
        <pt x="420" y="553" on="1"/>
        <pt x="385" y="578" on="0"/>
        <pt x="332" y="578" on="1"/>
      </contour>
    </TTGlyph>
    <TTGlyph name="Otilde" xMin="30" yMin="-11" xMax="631" yMax="888">
      <contour>
        <pt x="360" y="700" on="1"/>
        <pt x="478" y="700" on="0"/>
        <pt x="631" y="520" on="0"/>
        <pt x="631" y="381" on="1"/>
        <pt x="631" y="205" on="0"/>
        <pt x="449" y="-11" on="0"/>
        <pt x="301" y="-11" on="1"/>
        <pt x="186" y="-11" on="0"/>
        <pt x="30" y="174" on="0"/>
        <pt x="30" y="310" on="1"/>
        <pt x="30" y="480" on="0"/>
        <pt x="216" y="700" on="0"/>
      </contour>
      <contour>
        <pt x="495" y="325" on="1"/>
        <pt x="495" y="578" on="0"/>
        <pt x="329" y="578" on="1"/>
        <pt x="253" y="578" on="0"/>
        <pt x="166" y="465" on="0"/>
        <pt x="166" y="240" on="0"/>
        <pt x="259" y="95" on="0"/>
        <pt x="412" y="95" on="0"/>
        <pt x="495" y="218" on="0"/>
      </contour>
      <contour>
        <pt x="467" y="888" on="1"/>
        <pt x="495" y="845" on="1"/>
        <pt x="467" y="811" on="0"/>
        <pt x="406" y="759" on="0"/>
        <pt x="390" y="759" on="1"/>
        <pt x="375" y="761" on="0"/>
        <pt x="272" y="799" on="0"/>
        <pt x="257" y="801" on="1"/>
        <pt x="191" y="759" on="1"/>
        <pt x="163" y="802" on="1"/>
        <pt x="191" y="836" on="0"/>
        <pt x="252" y="888" on="0"/>
        <pt x="268" y="888" on="1"/>
        <pt x="283" y="886" on="0"/>
        <pt x="386" y="848" on="0"/>
        <pt x="401" y="846" on="1"/>
      </contour>
    </TTGlyph>
    <TTGlyph name="P" xMin="80" yMin="0" xMax="507" yMax="690">
      <contour>
        <pt x="297" y="690" on="1"/>
        <pt x="393" y="690" on="0"/>
        <pt x="507" y="581" on="0"/>
        <pt x="507" y="391" on="0"/>
        <pt x="363" y="256" on="0"/>
        <pt x="259" y="256" on="1"/>
        <pt x="202" y="256" on="1"/>
        <pt x="214" y="0" on="1"/>
        <pt x="80" y="0" on="1"/>
        <pt x="92" y="243" on="1"/>
        <pt x="80" y="690" on="1"/>
      </contour>
      <contour>
        <pt x="261" y="589" on="1"/>
        <pt x="212" y="589" on="1"/>
        <pt x="205" y="353" on="1"/>
        <pt x="273" y="353" on="1"/>
        <pt x="323" y="353" on="0"/>
        <pt x="378" y="419" on="0"/>
        <pt x="378" y="480" on="1"/>
        <pt x="378" y="589" on="0"/>
      </contour>
    </TTGlyph>
    <TTGlyph name="Q" xMin="30" yMin="-129" xMax="663" yMax="700">
      <contour>
        <pt x="360" y="700" on="1"/>
        <pt x="478" y="700" on="0"/>
        <pt x="631" y="520" on="0"/>
        <pt x="631" y="381" on="1"/>
        <pt x="631" y="219" on="0"/>
        <pt x="531" y="101" on="1"/>
        <pt x="663" y="-56" on="1"/>
        <pt x="564" y="-129" on="1"/>
        <pt x="449" y="31" on="1"/>
        <pt x="379" y="-11" on="0"/>
        <pt x="301" y="-11" on="1"/>
        <pt x="186" y="-11" on="0"/>
        <pt x="30" y="174" on="0"/>
        <pt x="30" y="310" on="1"/>
        <pt x="30" y="480" on="0"/>
        <pt x="216" y="700" on="0"/>
      </contour>
      <contour>
        <pt x="495" y="325" on="1"/>
        <pt x="495" y="578" on="0"/>
        <pt x="329" y="578" on="1"/>
        <pt x="253" y="578" on="0"/>
        <pt x="166" y="465" on="0"/>
        <pt x="166" y="240" on="0"/>
        <pt x="259" y="95" on="0"/>
        <pt x="340" y="95" on="1"/>
        <pt x="370" y="95" on="0"/>
        <pt x="396" y="107" on="1"/>
        <pt x="277" y="274" on="1"/>
        <pt x="346" y="322" on="1"/>
        <pt x="466" y="179" on="1"/>
        <pt x="495" y="240" on="0"/>
      </contour>
    </TTGlyph>
    <TTGlyph name="R" xMin="80" yMin="-11" xMax="557" yMax="690">
      <contour>
        <pt x="259" y="266" on="1"/>
        <pt x="202" y="266" on="1"/>
        <pt x="202" y="260" on="1"/>
        <pt x="214" y="0" on="1"/>
        <pt x="80" y="0" on="1"/>
        <pt x="92" y="243" on="1"/>
        <pt x="80" y="690" on="1"/>
        <pt x="297" y="690" on="1"/>
        <pt x="393" y="690" on="0"/>
        <pt x="507" y="586" on="0"/>
        <pt x="507" y="500" on="1"/>
        <pt x="507" y="435" on="0"/>
        <pt x="440" y="328" on="0"/>
        <pt x="383" y="297" on="1"/>
        <pt x="557" y="51" on="1"/>
        <pt x="436" y="-11" on="1"/>
        <pt x="280" y="267" on="1"/>
        <pt x="273" y="266" on="0"/>
      </contour>
      <contour>
        <pt x="261" y="589" on="1"/>
        <pt x="212" y="589" on="1"/>
        <pt x="205" y="363" on="1"/>
        <pt x="273" y="363" on="1"/>
        <pt x="323" y="363" on="0"/>
        <pt x="378" y="429" on="0"/>
        <pt x="378" y="490" on="1"/>
        <pt x="378" y="589" on="0"/>
      </contour>
    </TTGlyph>
    <TTGlyph name="Racute" xMin="80" yMin="-11" xMax="557" yMax="910">
      <contour>
        <pt x="259" y="266" on="1"/>
        <pt x="202" y="266" on="1"/>
        <pt x="202" y="260" on="1"/>
        <pt x="214" y="0" on="1"/>
        <pt x="80" y="0" on="1"/>
        <pt x="92" y="243" on="1"/>
        <pt x="80" y="690" on="1"/>
        <pt x="297" y="690" on="1"/>
        <pt x="393" y="690" on="0"/>
        <pt x="507" y="586" on="0"/>
        <pt x="507" y="500" on="1"/>
        <pt x="507" y="435" on="0"/>
        <pt x="440" y="328" on="0"/>
        <pt x="383" y="297" on="1"/>
        <pt x="557" y="51" on="1"/>
        <pt x="436" y="-11" on="1"/>
        <pt x="280" y="267" on="1"/>
        <pt x="273" y="266" on="0"/>
      </contour>
      <contour>
        <pt x="261" y="589" on="1"/>
        <pt x="212" y="589" on="1"/>
        <pt x="205" y="363" on="1"/>
        <pt x="273" y="363" on="1"/>
        <pt x="323" y="363" on="0"/>
        <pt x="378" y="429" on="0"/>
        <pt x="378" y="490" on="1"/>
        <pt x="378" y="589" on="0"/>
      </contour>
      <contour>
        <pt x="395" y="910" on="1"/>
        <pt x="406" y="808" on="1"/>
        <pt x="275" y="778" on="0"/>
        <pt x="171" y="760" on="1"/>
        <pt x="166" y="832" on="1"/>
        <pt x="252" y="857" on="0"/>
      </contour>
    </TTGlyph>
    <TTGlyph name="Rcaron" xMin="80" yMin="-11" xMax="557" yMax="898">
      <contour>
        <pt x="259" y="266" on="1"/>
        <pt x="202" y="266" on="1"/>
        <pt x="202" y="260" on="1"/>
        <pt x="214" y="0" on="1"/>
        <pt x="80" y="0" on="1"/>
        <pt x="92" y="243" on="1"/>
        <pt x="80" y="690" on="1"/>
        <pt x="297" y="690" on="1"/>
        <pt x="393" y="690" on="0"/>
        <pt x="507" y="586" on="0"/>
        <pt x="507" y="500" on="1"/>
        <pt x="507" y="435" on="0"/>
        <pt x="440" y="328" on="0"/>
        <pt x="383" y="297" on="1"/>
        <pt x="557" y="51" on="1"/>
        <pt x="436" y="-11" on="1"/>
        <pt x="280" y="267" on="1"/>
        <pt x="273" y="266" on="0"/>
      </contour>
      <contour>
        <pt x="261" y="589" on="1"/>
        <pt x="212" y="589" on="1"/>
        <pt x="205" y="363" on="1"/>
        <pt x="273" y="363" on="1"/>
        <pt x="323" y="363" on="0"/>
        <pt x="378" y="429" on="0"/>
        <pt x="378" y="490" on="1"/>
        <pt x="378" y="589" on="0"/>
      </contour>
      <contour>
        <pt x="284" y="751" on="1"/>
        <pt x="140" y="836" on="1"/>
        <pt x="155" y="898" on="1"/>
        <pt x="284" y="851" on="1"/>
        <pt x="415" y="898" on="1"/>
        <pt x="430" y="836" on="1"/>
      </contour>
    </TTGlyph>
    <TTGlyph name="Rcommaaccent" xMin="80" yMin="-11" xMax="557" yMax="690">
      <contour>
        <pt x="259" y="266" on="1"/>
        <pt x="202" y="266" on="1"/>
        <pt x="202" y="260" on="1"/>
        <pt x="214" y="0" on="1"/>
        <pt x="80" y="0" on="1"/>
        <pt x="92" y="243" on="1"/>
        <pt x="80" y="690" on="1"/>
        <pt x="297" y="690" on="1"/>
        <pt x="393" y="690" on="0"/>
        <pt x="507" y="586" on="0"/>
        <pt x="507" y="500" on="1"/>
        <pt x="507" y="435" on="0"/>
        <pt x="440" y="328" on="0"/>
        <pt x="383" y="297" on="1"/>
        <pt x="557" y="51" on="1"/>
        <pt x="436" y="-11" on="1"/>
        <pt x="280" y="267" on="1"/>
        <pt x="273" y="266" on="0"/>
      </contour>
      <contour>
        <pt x="261" y="589" on="1"/>
        <pt x="212" y="589" on="1"/>
        <pt x="205" y="363" on="1"/>
        <pt x="273" y="363" on="1"/>
        <pt x="323" y="363" on="0"/>
        <pt x="378" y="429" on="0"/>
        <pt x="378" y="490" on="1"/>
        <pt x="378" y="589" on="0"/>
      </contour>
    </TTGlyph>
    <TTGlyph name="S" xMin="13" yMin="-11" xMax="478" yMax="700">
      <contour>
        <pt x="91" y="199" on="1"/>
        <pt x="176" y="114" on="0"/>
        <pt x="261" y="114" on="1"/>
        <pt x="305" y="114" on="0"/>
        <pt x="358" y="155" on="0"/>
        <pt x="358" y="220" on="0"/>
        <pt x="294" y="265" on="0"/>
        <pt x="203" y="299" on="0"/>
        <pt x="113" y="342" on="0"/>
        <pt x="49" y="422" on="0"/>
        <pt x="49" y="479" on="1"/>
        <pt x="49" y="569" on="0"/>
        <pt x="199" y="700" on="0"/>
        <pt x="302" y="700" on="1"/>
        <pt x="349" y="700" on="0"/>
        <pt x="437" y="680" on="0"/>
        <pt x="478" y="661" on="1"/>
        <pt x="410" y="515" on="1"/>
        <pt x="382" y="537" on="0"/>
        <pt x="285" y="574" on="0"/>
        <pt x="212" y="574" on="0"/>
        <pt x="167" y="539" on="0"/>
        <pt x="167" y="481" on="0"/>
        <pt x="231" y="436" on="0"/>
        <pt x="322" y="402" on="0"/>
        <pt x="413" y="361" on="0"/>
        <pt x="477" y="281" on="0"/>
        <pt x="477" y="224" on="1"/>
        <pt x="477" y="130" on="0"/>
        <pt x="327" y="-11" on="0"/>
        <pt x="227" y="-11" on="1"/>
        <pt x="152" y="-11" on="0"/>
        <pt x="94" y="25" on="1"/>
        <pt x="43" y="56" on="0"/>
        <pt x="22" y="80" on="1"/>
        <pt x="13" y="91" on="1"/>
      </contour>
    </TTGlyph>
    <TTGlyph name="T" xMin="0" yMin="0" xMax="486" yMax="690">
      <contour>
        <pt x="0" y="575" on="1"/>
        <pt x="11" y="690" on="1"/>
        <pt x="486" y="690" on="1"/>
        <pt x="475" y="575" on="1"/>
        <pt x="301" y="590" on="1"/>
        <pt x="297" y="260" on="1"/>
        <pt x="309" y="0" on="1"/>
        <pt x="169" y="0" on="1"/>
        <pt x="181" y="243" on="1"/>
        <pt x="177" y="589" on="1"/>
      </contour>
    </TTGlyph>
    <TTGlyph name="Thorn" xMin="75" yMin="0" xMax="502" yMax="690">
      <contour>
        <pt x="292" y="568" on="1"/>
        <pt x="388" y="568" on="0"/>
        <pt x="502" y="459" on="0"/>
        <pt x="502" y="269" on="0"/>
        <pt x="358" y="134" on="0"/>
        <pt x="254" y="134" on="1"/>
        <pt x="203" y="134" on="1"/>
        <pt x="209" y="0" on="1"/>
        <pt x="75" y="0" on="1"/>
        <pt x="87" y="243" on="1"/>
        <pt x="75" y="690" on="1"/>
        <pt x="211" y="690" on="1"/>
        <pt x="207" y="568" on="1"/>
      </contour>
      <contour>
        <pt x="256" y="467" on="1"/>
        <pt x="203" y="467" on="1"/>
        <pt x="197" y="260" on="1"/>
        <pt x="198" y="231" on="1"/>
        <pt x="268" y="231" on="1"/>
        <pt x="318" y="231" on="0"/>
        <pt x="373" y="297" on="0"/>
        <pt x="373" y="358" on="1"/>
        <pt x="373" y="467" on="0"/>
      </contour>
    </TTGlyph>
    <TTGlyph name="U" xMin="68" yMin="-11" xMax="585" yMax="695">
      <contour>
        <pt x="291" y="-11" on="1"/>
        <pt x="201" y="-11" on="0"/>
        <pt x="78" y="99" on="0"/>
        <pt x="78" y="180" on="1"/>
        <pt x="68" y="670" on="1"/>
        <pt x="212" y="695" on="1"/>
        <pt x="196" y="257" on="1"/>
        <pt x="196" y="187" on="0"/>
        <pt x="261" y="109" on="0"/>
        <pt x="397" y="109" on="0"/>
        <pt x="457" y="185" on="0"/>
        <pt x="457" y="278" on="1"/>
        <pt x="445" y="670" on="1"/>
        <pt x="585" y="695" on="1"/>
        <pt x="574" y="255" on="1"/>
        <pt x="574" y="137" on="0"/>
        <pt x="416" y="-11" on="0"/>
      </contour>
    </TTGlyph>
    <TTGlyph name="Uacute" xMin="68" yMin="-11" xMax="585" yMax="910">
      <contour>
        <pt x="291" y="-11" on="1"/>
        <pt x="201" y="-11" on="0"/>
        <pt x="78" y="99" on="0"/>
        <pt x="78" y="180" on="1"/>
        <pt x="68" y="670" on="1"/>
        <pt x="212" y="695" on="1"/>
        <pt x="196" y="257" on="1"/>
        <pt x="196" y="187" on="0"/>
        <pt x="261" y="109" on="0"/>
        <pt x="397" y="109" on="0"/>
        <pt x="457" y="185" on="0"/>
        <pt x="457" y="278" on="1"/>
        <pt x="445" y="670" on="1"/>
        <pt x="585" y="695" on="1"/>
        <pt x="574" y="255" on="1"/>
        <pt x="574" y="137" on="0"/>
        <pt x="416" y="-11" on="0"/>
      </contour>
      <contour>
        <pt x="435" y="910" on="1"/>
        <pt x="446" y="808" on="1"/>
        <pt x="315" y="778" on="0"/>
        <pt x="211" y="760" on="1"/>
        <pt x="206" y="832" on="1"/>
        <pt x="291" y="857" on="0"/>
      </contour>
    </TTGlyph>
    <TTGlyph name="Ucircumflex" xMin="68" yMin="-11" xMax="585" yMax="898">
      <contour>
        <pt x="324" y="751" on="1"/>
        <pt x="180" y="836" on="1"/>
        <pt x="195" y="898" on="1"/>
        <pt x="324" y="851" on="1"/>
        <pt x="455" y="898" on="1"/>
        <pt x="470" y="836" on="1"/>
      </contour>
      <contour>
        <pt x="291" y="-11" on="1"/>
        <pt x="201" y="-11" on="0"/>
        <pt x="78" y="99" on="0"/>
        <pt x="78" y="180" on="1"/>
        <pt x="68" y="670" on="1"/>
        <pt x="212" y="695" on="1"/>
        <pt x="196" y="257" on="1"/>
        <pt x="196" y="187" on="0"/>
        <pt x="261" y="109" on="0"/>
        <pt x="397" y="109" on="0"/>
        <pt x="457" y="185" on="0"/>
        <pt x="457" y="278" on="1"/>
        <pt x="445" y="670" on="1"/>
        <pt x="585" y="695" on="1"/>
        <pt x="574" y="255" on="1"/>
        <pt x="574" y="137" on="0"/>
        <pt x="416" y="-11" on="0"/>
      </contour>
    </TTGlyph>
    <TTGlyph name="Udieresis" xMin="68" yMin="-11" xMax="585" yMax="913">
      <contour>
        <pt x="291" y="-11" on="1"/>
        <pt x="201" y="-11" on="0"/>
        <pt x="78" y="99" on="0"/>
        <pt x="78" y="180" on="1"/>
        <pt x="68" y="670" on="1"/>
        <pt x="212" y="695" on="1"/>
        <pt x="196" y="257" on="1"/>
        <pt x="196" y="187" on="0"/>
        <pt x="261" y="109" on="0"/>
        <pt x="397" y="109" on="0"/>
        <pt x="457" y="185" on="0"/>
        <pt x="457" y="278" on="1"/>
        <pt x="445" y="670" on="1"/>
        <pt x="585" y="695" on="1"/>
        <pt x="574" y="255" on="1"/>
        <pt x="574" y="137" on="0"/>
        <pt x="416" y="-11" on="0"/>
      </contour>
      <contour>
        <pt x="179" y="869" on="0"/>
        <pt x="221" y="913" on="0"/>
        <pt x="277" y="913" on="0"/>
        <pt x="307" y="882" on="0"/>
        <pt x="307" y="821" on="0"/>
        <pt x="265" y="777" on="0"/>
        <pt x="210" y="777" on="0"/>
        <pt x="179" y="813" on="0"/>
      </contour>
      <contour>
        <pt x="341" y="869" on="0"/>
        <pt x="383" y="913" on="0"/>
        <pt x="412" y="913" on="1"/>
        <pt x="469" y="913" on="0"/>
        <pt x="469" y="855" on="1"/>
        <pt x="469" y="821" on="0"/>
        <pt x="428" y="777" on="0"/>
        <pt x="373" y="777" on="0"/>
        <pt x="341" y="813" on="0"/>
      </contour>
    </TTGlyph>
    <TTGlyph name="Ugrave" xMin="68" yMin="-11" xMax="585" yMax="910">
      <contour>
        <pt x="291" y="-11" on="1"/>
        <pt x="201" y="-11" on="0"/>
        <pt x="78" y="99" on="0"/>
        <pt x="78" y="180" on="1"/>
        <pt x="68" y="670" on="1"/>
        <pt x="212" y="695" on="1"/>
        <pt x="196" y="257" on="1"/>
        <pt x="196" y="187" on="0"/>
        <pt x="261" y="109" on="0"/>
        <pt x="397" y="109" on="0"/>
        <pt x="457" y="185" on="0"/>
        <pt x="457" y="278" on="1"/>
        <pt x="445" y="670" on="1"/>
        <pt x="585" y="695" on="1"/>
        <pt x="574" y="255" on="1"/>
        <pt x="574" y="137" on="0"/>
        <pt x="416" y="-11" on="0"/>
      </contour>
      <contour>
        <pt x="206" y="808" on="1"/>
        <pt x="217" y="910" on="1"/>
        <pt x="345" y="862" on="0"/>
        <pt x="446" y="832" on="1"/>
        <pt x="441" y="760" on="1"/>
      </contour>
    </TTGlyph>
    <TTGlyph name="V" xMin="15" yMin="-5" xMax="584" yMax="696">
      <contour>
        <pt x="296" y="125" on="1"/>
        <pt x="308" y="125" on="1"/>
        <pt x="358" y="297" on="1"/>
        <pt x="463" y="696" on="1"/>
        <pt x="584" y="678" on="1"/>
        <pt x="465" y="281" on="1"/>
        <pt x="387" y="8" on="1"/>
        <pt x="202" y="-5" on="1"/>
        <pt x="131" y="262" on="1"/>
        <pt x="15" y="671" on="1"/>
        <pt x="157" y="696" on="1"/>
        <pt x="248" y="310" on="1"/>
      </contour>
    </TTGlyph>
    <TTGlyph name="W" xMin="17" yMin="-5" xMax="908" yMax="696">
      <contour>
        <pt x="641" y="125" on="1"/>
        <pt x="652" y="125" on="1"/>
        <pt x="699" y="297" on="1"/>
        <pt x="795" y="696" on="1"/>
        <pt x="908" y="678" on="1"/>
        <pt x="799" y="281" on="1"/>
        <pt x="732" y="8" on="1"/>
        <pt x="549" y="-5" on="1"/>
        <pt x="492" y="262" on="1"/>
        <pt x="458" y="394" on="1"/>
        <pt x="428" y="281" on="1"/>
        <pt x="361" y="8" on="1"/>
        <pt x="181" y="-5" on="1"/>
        <pt x="121" y="262" on="1"/>
        <pt x="17" y="671" on="1"/>
        <pt x="147" y="696" on="1"/>
        <pt x="228" y="310" on="1"/>
        <pt x="273" y="125" on="1"/>
        <pt x="284" y="125" on="1"/>
        <pt x="337" y="310" on="1"/>
        <pt x="410" y="580" on="1"/>
        <pt x="387" y="671" on="1"/>
        <pt x="519" y="696" on="1"/>
        <pt x="598" y="310" on="1"/>
      </contour>
    </TTGlyph>
    <TTGlyph name="X" xMin="12" yMin="-10" xMax="586" yMax="700">
      <contour>
        <pt x="463" y="-9" on="1"/>
        <pt x="296" y="250" on="1"/>
        <pt x="135" y="-10" on="1"/>
        <pt x="27" y="43" on="1"/>
        <pt x="224" y="343" on="1"/>
        <pt x="12" y="615" on="1"/>
        <pt x="136" y="696" on="1"/>
        <pt x="297" y="446" on="1"/>
        <pt x="452" y="700" on="1"/>
        <pt x="557" y="638" on="1"/>
        <pt x="374" y="353" on="1"/>
        <pt x="586" y="69" on="1"/>
      </contour>
    </TTGlyph>
    <TTGlyph name="Y" xMin="3" yMin="0" xMax="566" yMax="696">
      <contour>
        <pt x="283" y="395" on="1"/>
        <pt x="295" y="395" on="1"/>
        <pt x="369" y="531" on="1"/>
        <pt x="444" y="696" on="1"/>
        <pt x="566" y="678" on="1"/>
        <pt x="474" y="511" on="1"/>
        <pt x="344" y="257" on="1"/>
        <pt x="355" y="0" on="1"/>
        <pt x="215" y="0" on="1"/>
        <pt x="225" y="240" on="1"/>
        <pt x="99" y="496" on="1"/>
        <pt x="3" y="671" on="1"/>
        <pt x="144" y="696" on="1"/>
        <pt x="209" y="544" on="1"/>
      </contour>
    </TTGlyph>
    <TTGlyph name="Yacute" xMin="3" yMin="0" xMax="566" yMax="910">
      <contour>
        <pt x="283" y="395" on="1"/>
        <pt x="295" y="395" on="1"/>
        <pt x="369" y="531" on="1"/>
        <pt x="444" y="696" on="1"/>
        <pt x="566" y="678" on="1"/>
        <pt x="474" y="511" on="1"/>
        <pt x="344" y="257" on="1"/>
        <pt x="355" y="0" on="1"/>
        <pt x="215" y="0" on="1"/>
        <pt x="225" y="240" on="1"/>
        <pt x="99" y="496" on="1"/>
        <pt x="3" y="671" on="1"/>
        <pt x="144" y="696" on="1"/>
        <pt x="209" y="544" on="1"/>
      </contour>
      <contour>
        <pt x="398" y="910" on="1"/>
        <pt x="409" y="808" on="1"/>
        <pt x="278" y="778" on="0"/>
        <pt x="174" y="760" on="1"/>
        <pt x="169" y="832" on="1"/>
        <pt x="255" y="857" on="0"/>
      </contour>
    </TTGlyph>
    <TTGlyph name="Z" xMin="22" yMin="-6" xMax="529" yMax="695">
      <contour>
        <pt x="39" y="102" on="1"/>
        <pt x="361" y="578" on="1"/>
        <pt x="35" y="556" on="1"/>
        <pt x="59" y="694" on="1"/>
        <pt x="287" y="683" on="1"/>
        <pt x="516" y="695" on="1"/>
        <pt x="501" y="588" on="1"/>
        <pt x="178" y="110" on="1"/>
        <pt x="529" y="132" on="1"/>
        <pt x="509" y="-6" on="1"/>
        <pt x="268" y="5" on="1"/>
        <pt x="22" y="-6" on="1"/>
      </contour>
    </TTGlyph>
    <TTGlyph name="a" xMin="24" yMin="-3" xMax="440" yMax="515">
      <contour>
        <pt x="99" y="0" on="0"/>
        <pt x="24" y="75" on="0"/>
        <pt x="24" y="202" on="0"/>
        <pt x="140" y="295" on="0"/>
        <pt x="223" y="295" on="1"/>
        <pt x="291" y="295" on="1"/>
        <pt x="291" y="312" on="1"/>
        <pt x="291" y="361" on="0"/>
        <pt x="251" y="397" on="0"/>
        <pt x="196" y="397" on="1"/>
        <pt x="173" y="397" on="0"/>
        <pt x="110" y="378" on="0"/>
        <pt x="71" y="358" on="1"/>
        <pt x="42" y="437" on="1"/>
        <pt x="85" y="467" on="0"/>
        <pt x="208" y="515" on="0"/>
        <pt x="248" y="515" on="1"/>
        <pt x="405" y="515" on="0"/>
        <pt x="405" y="363" on="1"/>
        <pt x="405" y="167" on="1"/>
        <pt x="405" y="111" on="0"/>
        <pt x="440" y="42" on="1"/>
        <pt x="334" y="-3" on="1"/>
        <pt x="309" y="45" on="0"/>
        <pt x="297" y="83" on="1"/>
        <pt x="242" y="0" on="0"/>
        <pt x="158" y="0" on="1"/>
      </contour>
      <contour>
        <pt x="200" y="102" on="1"/>
        <pt x="240" y="102" on="0"/>
        <pt x="291" y="143" on="1"/>
        <pt x="291" y="210" on="1"/>
        <pt x="238" y="222" on="0"/>
        <pt x="205" y="222" on="1"/>
        <pt x="142" y="222" on="0"/>
        <pt x="142" y="166" on="1"/>
        <pt x="142" y="137" on="0"/>
        <pt x="174" y="102" on="0"/>
      </contour>
    </TTGlyph>
    <TTGlyph name="aacute" xMin="24" yMin="-3" xMax="440" yMax="725">
      <contour>
        <pt x="99" y="0" on="0"/>
        <pt x="24" y="75" on="0"/>
        <pt x="24" y="202" on="0"/>
        <pt x="140" y="295" on="0"/>
        <pt x="223" y="295" on="1"/>
        <pt x="291" y="295" on="1"/>
        <pt x="291" y="312" on="1"/>
        <pt x="291" y="361" on="0"/>
        <pt x="251" y="397" on="0"/>
        <pt x="196" y="397" on="1"/>
        <pt x="173" y="397" on="0"/>
        <pt x="110" y="378" on="0"/>
        <pt x="71" y="358" on="1"/>
        <pt x="42" y="437" on="1"/>
        <pt x="85" y="467" on="0"/>
        <pt x="208" y="515" on="0"/>
        <pt x="248" y="515" on="1"/>
        <pt x="405" y="515" on="0"/>
        <pt x="405" y="363" on="1"/>
        <pt x="405" y="167" on="1"/>
        <pt x="405" y="111" on="0"/>
        <pt x="440" y="42" on="1"/>
        <pt x="334" y="-3" on="1"/>
        <pt x="309" y="45" on="0"/>
        <pt x="297" y="83" on="1"/>
        <pt x="242" y="0" on="0"/>
        <pt x="158" y="0" on="1"/>
      </contour>
      <contour>
        <pt x="348" y="725" on="1"/>
        <pt x="359" y="623" on="1"/>
        <pt x="228" y="593" on="0"/>
        <pt x="124" y="575" on="1"/>
        <pt x="119" y="647" on="1"/>
        <pt x="204" y="672" on="0"/>
      </contour>
      <contour>
        <pt x="200" y="102" on="1"/>
        <pt x="240" y="102" on="0"/>
        <pt x="291" y="143" on="1"/>
        <pt x="291" y="210" on="1"/>
        <pt x="238" y="222" on="0"/>
        <pt x="205" y="222" on="1"/>
        <pt x="142" y="222" on="0"/>
        <pt x="142" y="166" on="1"/>
        <pt x="142" y="137" on="0"/>
        <pt x="174" y="102" on="0"/>
      </contour>
    </TTGlyph>
    <TTGlyph name="acircumflex" xMin="24" yMin="-3" xMax="440" yMax="713">
      <contour>
        <pt x="99" y="0" on="0"/>
        <pt x="24" y="75" on="0"/>
        <pt x="24" y="202" on="0"/>
        <pt x="140" y="295" on="0"/>
        <pt x="223" y="295" on="1"/>
        <pt x="291" y="295" on="1"/>
        <pt x="291" y="312" on="1"/>
        <pt x="291" y="361" on="0"/>
        <pt x="251" y="397" on="0"/>
        <pt x="196" y="397" on="1"/>
        <pt x="173" y="397" on="0"/>
        <pt x="110" y="378" on="0"/>
        <pt x="71" y="358" on="1"/>
        <pt x="42" y="437" on="1"/>
        <pt x="85" y="467" on="0"/>
        <pt x="208" y="515" on="0"/>
        <pt x="248" y="515" on="1"/>
        <pt x="405" y="515" on="0"/>
        <pt x="405" y="363" on="1"/>
        <pt x="405" y="167" on="1"/>
        <pt x="405" y="111" on="0"/>
        <pt x="440" y="42" on="1"/>
        <pt x="334" y="-3" on="1"/>
        <pt x="309" y="45" on="0"/>
        <pt x="297" y="83" on="1"/>
        <pt x="242" y="0" on="0"/>
        <pt x="158" y="0" on="1"/>
      </contour>
      <contour>
        <pt x="237" y="566" on="1"/>
        <pt x="93" y="651" on="1"/>
        <pt x="108" y="713" on="1"/>
        <pt x="237" y="666" on="1"/>
        <pt x="368" y="713" on="1"/>
        <pt x="383" y="651" on="1"/>
      </contour>
      <contour>
        <pt x="200" y="102" on="1"/>
        <pt x="240" y="102" on="0"/>
        <pt x="291" y="143" on="1"/>
        <pt x="291" y="210" on="1"/>
        <pt x="238" y="222" on="0"/>
        <pt x="205" y="222" on="1"/>
        <pt x="142" y="222" on="0"/>
        <pt x="142" y="166" on="1"/>
        <pt x="142" y="137" on="0"/>
        <pt x="174" y="102" on="0"/>
      </contour>
    </TTGlyph>
    <TTGlyph name="acute" xMin="-31" yMin="575" xMax="209" yMax="725">
      <contour>
        <pt x="198" y="725" on="1"/>
        <pt x="209" y="623" on="1"/>
        <pt x="78" y="593" on="0"/>
        <pt x="-26" y="575" on="1"/>
        <pt x="-31" y="647" on="1"/>
        <pt x="55" y="672" on="0"/>
      </contour>
    </TTGlyph>
    <TTGlyph name="adieresis" xMin="24" yMin="-3" xMax="440" yMax="728">
      <contour>
        <pt x="99" y="0" on="0"/>
        <pt x="24" y="75" on="0"/>
        <pt x="24" y="202" on="0"/>
        <pt x="140" y="295" on="0"/>
        <pt x="223" y="295" on="1"/>
        <pt x="291" y="295" on="1"/>
        <pt x="291" y="312" on="1"/>
        <pt x="291" y="361" on="0"/>
        <pt x="251" y="397" on="0"/>
        <pt x="196" y="397" on="1"/>
        <pt x="173" y="397" on="0"/>
        <pt x="110" y="378" on="0"/>
        <pt x="71" y="358" on="1"/>
        <pt x="42" y="437" on="1"/>
        <pt x="85" y="467" on="0"/>
        <pt x="208" y="515" on="0"/>
        <pt x="248" y="515" on="1"/>
        <pt x="405" y="515" on="0"/>
        <pt x="405" y="363" on="1"/>
        <pt x="405" y="167" on="1"/>
        <pt x="405" y="111" on="0"/>
        <pt x="440" y="42" on="1"/>
        <pt x="334" y="-3" on="1"/>
        <pt x="309" y="45" on="0"/>
        <pt x="297" y="83" on="1"/>
        <pt x="242" y="0" on="0"/>
        <pt x="158" y="0" on="1"/>
      </contour>
      <contour>
        <pt x="200" y="102" on="1"/>
        <pt x="240" y="102" on="0"/>
        <pt x="291" y="143" on="1"/>
        <pt x="291" y="210" on="1"/>
        <pt x="238" y="222" on="0"/>
        <pt x="205" y="222" on="1"/>
        <pt x="142" y="222" on="0"/>
        <pt x="142" y="166" on="1"/>
        <pt x="142" y="137" on="0"/>
        <pt x="174" y="102" on="0"/>
      </contour>
      <contour>
        <pt x="254" y="684" on="0"/>
        <pt x="296" y="728" on="0"/>
        <pt x="324" y="728" on="1"/>
        <pt x="382" y="728" on="0"/>
        <pt x="382" y="670" on="1"/>
        <pt x="382" y="636" on="0"/>
        <pt x="341" y="592" on="0"/>
        <pt x="286" y="592" on="0"/>
        <pt x="254" y="628" on="0"/>
      </contour>
      <contour>
        <pt x="92" y="684" on="0"/>
        <pt x="134" y="728" on="0"/>
        <pt x="190" y="728" on="0"/>
        <pt x="220" y="697" on="0"/>
        <pt x="220" y="636" on="0"/>
        <pt x="178" y="592" on="0"/>
        <pt x="123" y="592" on="0"/>
        <pt x="92" y="628" on="0"/>
      </contour>
    </TTGlyph>
    <TTGlyph name="ae" xMin="24" yMin="-11" xMax="670" yMax="515">
      <contour>
        <pt x="491" y="102" on="1"/>
        <pt x="520" y="102" on="0"/>
        <pt x="584" y="132" on="0"/>
        <pt x="602" y="147" on="1"/>
        <pt x="620" y="162" on="1"/>
        <pt x="666" y="106" on="1"/>
        <pt x="656" y="89" on="0"/>
        <pt x="614" y="45" on="0"/>
        <pt x="571" y="14" on="0"/>
        <pt x="500" y="-11" on="0"/>
        <pt x="462" y="-11" on="1"/>
        <pt x="363" y="-11" on="0"/>
        <pt x="312" y="77" on="1"/>
        <pt x="254" y="-11" on="0"/>
        <pt x="168" y="-11" on="1"/>
        <pt x="104" y="-11" on="0"/>
        <pt x="24" y="64" on="0"/>
        <pt x="24" y="191" on="0"/>
        <pt x="121" y="273" on="0"/>
        <pt x="208" y="279" on="1"/>
        <pt x="281" y="285" on="1"/>
        <pt x="281" y="312" on="1"/>
        <pt x="281" y="361" on="0"/>
        <pt x="245" y="397" on="0"/>
        <pt x="196" y="397" on="1"/>
        <pt x="173" y="397" on="0"/>
        <pt x="110" y="378" on="0"/>
        <pt x="71" y="358" on="1"/>
        <pt x="42" y="437" on="1"/>
        <pt x="55" y="446" on="0"/>
        <pt x="97" y="472" on="0"/>
        <pt x="205" y="515" on="0"/>
        <pt x="245" y="515" on="1"/>
        <pt x="341" y="515" on="0"/>
        <pt x="368" y="444" on="1"/>
        <pt x="434" y="515" on="0"/>
        <pt x="589" y="515" on="0"/>
        <pt x="670" y="433" on="0"/>
        <pt x="670" y="359" on="1"/>
        <pt x="670" y="323" on="0"/>
        <pt x="655" y="261" on="1"/>
        <pt x="635" y="240" on="1"/>
        <pt x="384" y="222" on="1"/>
        <pt x="399" y="102" on="0"/>
      </contour>
      <contour>
        <pt x="491" y="412" on="1"/>
        <pt x="450" y="412" on="0"/>
        <pt x="391" y="346" on="0"/>
        <pt x="384" y="294" on="1"/>
        <pt x="552" y="309" on="1"/>
        <pt x="555" y="330" on="0"/>
        <pt x="555" y="345" on="1"/>
        <pt x="555" y="412" on="0"/>
      </contour>
      <contour>
        <pt x="281" y="209" on="1"/>
        <pt x="281" y="215" on="1"/>
        <pt x="206" y="210" on="1"/>
        <pt x="170" y="208" on="0"/>
        <pt x="142" y="184" on="0"/>
        <pt x="142" y="126" on="0"/>
        <pt x="179" y="91" on="0"/>
        <pt x="247" y="91" on="0"/>
        <pt x="291" y="129" on="1"/>
        <pt x="281" y="163" on="0"/>
      </contour>
    </TTGlyph>
    <TTGlyph name="agrave" xMin="24" yMin="-3" xMax="440" yMax="725">
      <contour>
        <pt x="99" y="0" on="0"/>
        <pt x="24" y="75" on="0"/>
        <pt x="24" y="202" on="0"/>
        <pt x="140" y="295" on="0"/>
        <pt x="223" y="295" on="1"/>
        <pt x="291" y="295" on="1"/>
        <pt x="291" y="312" on="1"/>
        <pt x="291" y="361" on="0"/>
        <pt x="251" y="397" on="0"/>
        <pt x="196" y="397" on="1"/>
        <pt x="173" y="397" on="0"/>
        <pt x="110" y="378" on="0"/>
        <pt x="71" y="358" on="1"/>
        <pt x="42" y="437" on="1"/>
        <pt x="85" y="467" on="0"/>
        <pt x="208" y="515" on="0"/>
        <pt x="248" y="515" on="1"/>
        <pt x="405" y="515" on="0"/>
        <pt x="405" y="363" on="1"/>
        <pt x="405" y="167" on="1"/>
        <pt x="405" y="111" on="0"/>
        <pt x="440" y="42" on="1"/>
        <pt x="334" y="-3" on="1"/>
        <pt x="309" y="45" on="0"/>
        <pt x="297" y="83" on="1"/>
        <pt x="242" y="0" on="0"/>
        <pt x="158" y="0" on="1"/>
      </contour>
      <contour>
        <pt x="119" y="623" on="1"/>
        <pt x="130" y="725" on="1"/>
        <pt x="258" y="677" on="0"/>
        <pt x="359" y="647" on="1"/>
        <pt x="354" y="575" on="1"/>
      </contour>
      <contour>
        <pt x="200" y="102" on="1"/>
        <pt x="240" y="102" on="0"/>
        <pt x="291" y="143" on="1"/>
        <pt x="291" y="210" on="1"/>
        <pt x="238" y="222" on="0"/>
        <pt x="205" y="222" on="1"/>
        <pt x="142" y="222" on="0"/>
        <pt x="142" y="166" on="1"/>
        <pt x="142" y="137" on="0"/>
        <pt x="174" y="102" on="0"/>
      </contour>
    </TTGlyph>
    <TTGlyph name="ampersand" xMin="39" yMin="-11" xMax="592" yMax="650">
      <contour>
        <pt x="467" y="326" on="1"/>
        <pt x="480" y="245" on="0"/>
        <pt x="480" y="188" on="0"/>
        <pt x="477" y="173" on="1"/>
        <pt x="590" y="62" on="1"/>
        <pt x="508" y="-11" on="1"/>
        <pt x="474" y="26" on="0"/>
        <pt x="428" y="74" on="1"/>
        <pt x="395" y="35" on="0"/>
        <pt x="301" y="-11" on="0"/>
        <pt x="250" y="-11" on="1"/>
        <pt x="159" y="-11" on="0"/>
        <pt x="39" y="88" on="0"/>
        <pt x="39" y="163" on="1"/>
        <pt x="39" y="264" on="0"/>
        <pt x="157" y="333" on="1"/>
        <pt x="77" y="416" on="0"/>
        <pt x="77" y="551" on="0"/>
        <pt x="197" y="650" on="0"/>
        <pt x="282" y="650" on="1"/>
        <pt x="334" y="650" on="0"/>
        <pt x="423" y="628" on="0"/>
        <pt x="442" y="618" on="1"/>
        <pt x="460" y="607" on="1"/>
        <pt x="398" y="489" on="1"/>
        <pt x="372" y="511" on="0"/>
        <pt x="295" y="546" on="0"/>
        <pt x="226" y="546" on="0"/>
        <pt x="187" y="514" on="0"/>
        <pt x="187" y="489" on="1"/>
        <pt x="187" y="454" on="0"/>
        <pt x="235" y="396" on="0"/>
        <pt x="326" y="316" on="1"/>
        <pt x="395" y="252" on="1"/>
        <pt x="390" y="304" on="0"/>
        <pt x="369" y="404" on="1"/>
        <pt x="382" y="417" on="1"/>
        <pt x="592" y="417" on="1"/>
        <pt x="584" y="326" on="1"/>
      </contour>
      <contour>
        <pt x="202" y="289" on="1"/>
        <pt x="155" y="244" on="0"/>
        <pt x="155" y="152" on="0"/>
        <pt x="220" y="90" on="0"/>
        <pt x="340" y="90" on="0"/>
        <pt x="372" y="131" on="1"/>
        <pt x="307" y="197" on="0"/>
        <pt x="250" y="248" on="1"/>
        <pt x="226" y="266" on="0"/>
      </contour>
    </TTGlyph>
    <TTGlyph name="aring" xMin="24" yMin="-3" xMax="440" yMax="774">
      <contour>
        <pt x="99" y="0" on="0"/>
        <pt x="24" y="75" on="0"/>
        <pt x="24" y="202" on="0"/>
        <pt x="140" y="295" on="0"/>
        <pt x="223" y="295" on="1"/>
        <pt x="291" y="295" on="1"/>
        <pt x="291" y="312" on="1"/>
        <pt x="291" y="361" on="0"/>
        <pt x="251" y="397" on="0"/>
        <pt x="196" y="397" on="1"/>
        <pt x="173" y="397" on="0"/>
        <pt x="110" y="378" on="0"/>
        <pt x="71" y="358" on="1"/>
        <pt x="42" y="437" on="1"/>
        <pt x="85" y="467" on="0"/>
        <pt x="208" y="515" on="0"/>
        <pt x="248" y="515" on="1"/>
        <pt x="405" y="515" on="0"/>
        <pt x="405" y="363" on="1"/>
        <pt x="405" y="167" on="1"/>
        <pt x="405" y="111" on="0"/>
        <pt x="440" y="42" on="1"/>
        <pt x="334" y="-3" on="1"/>
        <pt x="309" y="45" on="0"/>
        <pt x="297" y="83" on="1"/>
        <pt x="242" y="0" on="0"/>
        <pt x="158" y="0" on="1"/>
      </contour>
      <contour>
        <pt x="125" y="706" on="0"/>
        <pt x="191" y="774" on="0"/>
        <pt x="289" y="774" on="0"/>
        <pt x="349" y="718" on="0"/>
        <pt x="349" y="616" on="0"/>
        <pt x="283" y="546" on="0"/>
        <pt x="187" y="546" on="0"/>
        <pt x="125" y="609" on="0"/>
      </contour>
      <contour>
        <pt x="200" y="102" on="1"/>
        <pt x="240" y="102" on="0"/>
        <pt x="291" y="143" on="1"/>
        <pt x="291" y="210" on="1"/>
        <pt x="238" y="222" on="0"/>
        <pt x="205" y="222" on="1"/>
        <pt x="142" y="222" on="0"/>
        <pt x="142" y="166" on="1"/>
        <pt x="142" y="137" on="0"/>
        <pt x="174" y="102" on="0"/>
      </contour>
      <contour>
        <pt x="290" y="689" on="0"/>
        <pt x="262" y="718" on="0"/>
        <pt x="215" y="718" on="0"/>
        <pt x="184" y="685" on="0"/>
        <pt x="184" y="635" on="0"/>
        <pt x="213" y="602" on="0"/>
        <pt x="258" y="602" on="0"/>
        <pt x="290" y="638" on="0"/>
      </contour>
    </TTGlyph>
    <TTGlyph name="asciicircum" xMin="17" yMin="129" xMax="408" yMax="390">
      <contour>
        <pt x="17" y="299" on="1"/>
        <pt x="25" y="390" on="1"/>
        <pt x="408" y="390" on="1"/>
        <pt x="400" y="299" on="1"/>
      </contour>
      <contour>
        <pt x="17" y="129" on="1"/>
        <pt x="25" y="220" on="1"/>
        <pt x="408" y="220" on="1"/>
        <pt x="400" y="129" on="1"/>
      </contour>
    </TTGlyph>
    <TTGlyph name="asciitilde" xMin="16" yMin="193" xMax="408" yMax="326">
      <contour>
        <pt x="131" y="324" on="1"/>
        <pt x="304" y="282" on="1"/>
        <pt x="380" y="326" on="1"/>
        <pt x="408" y="281" on="1"/>
        <pt x="377" y="248" on="0"/>
        <pt x="311" y="195" on="0"/>
        <pt x="293" y="195" on="1"/>
        <pt x="120" y="237" on="1"/>
        <pt x="44" y="193" on="1"/>
        <pt x="16" y="238" on="1"/>
        <pt x="47" y="271" on="0"/>
        <pt x="113" y="324" on="0"/>
      </contour>
    </TTGlyph>
    <TTGlyph name="asterisk" xMin="11" yMin="361" xMax="302" yMax="657">
      <contour>
        <pt x="11" y="537" on="1"/>
        <pt x="26" y="610" on="1"/>
        <pt x="125" y="553" on="1"/>
        <pt x="130" y="649" on="1"/>
        <pt x="203" y="657" on="1"/>
        <pt x="180" y="544" on="1"/>
        <pt x="272" y="570" on="1"/>
        <pt x="302" y="503" on="1"/>
        <pt x="189" y="490" on="1"/>
        <pt x="242" y="411" on="1"/>
        <pt x="187" y="361" on="1"/>
        <pt x="139" y="465" on="1"/>
        <pt x="80" y="390" on="1"/>
        <pt x="17" y="426" on="1"/>
        <pt x="101" y="504" on="1"/>
      </contour>
    </TTGlyph>
    <TTGlyph name="at" xMin="30" yMin="-130" xMax="693" yMax="620">
      <contour>
        <pt x="298" y="100" on="0"/>
        <pt x="223" y="175" on="0"/>
        <pt x="223" y="302" on="0"/>
        <pt x="339" y="395" on="0"/>
        <pt x="422" y="395" on="1"/>
        <pt x="490" y="395" on="1"/>
        <pt x="490" y="413" on="1"/>
        <pt x="490" y="463" on="0"/>
        <pt x="437" y="510" on="0"/>
        <pt x="380" y="510" on="1"/>
        <pt x="260" y="510" on="0"/>
        <pt x="122" y="369" on="0"/>
        <pt x="122" y="132" on="0"/>
        <pt x="279" y="-28" on="0"/>
        <pt x="400" y="-28" on="1"/>
        <pt x="465" y="-28" on="0"/>
        <pt x="604" y="12" on="0"/>
        <pt x="640" y="32" on="1"/>
        <pt x="677" y="53" on="1"/>
        <pt x="693" y="-49" on="1"/>
        <pt x="678" y="-58" on="0"/>
        <pt x="622" y="-85" on="0"/>
        <pt x="457" y="-130" on="0"/>
        <pt x="377" y="-130" on="1"/>
        <pt x="221" y="-130" on="0"/>
        <pt x="30" y="72" on="0"/>
        <pt x="30" y="403" on="0"/>
        <pt x="248" y="620" on="0"/>
        <pt x="417" y="620" on="1"/>
        <pt x="506" y="620" on="0"/>
        <pt x="604" y="528" on="0"/>
        <pt x="604" y="445" on="1"/>
        <pt x="604" y="267" on="1"/>
        <pt x="604" y="197" on="0"/>
        <pt x="639" y="142" on="1"/>
        <pt x="533" y="97" on="1"/>
        <pt x="508" y="145" on="0"/>
        <pt x="496" y="183" on="1"/>
        <pt x="441" y="100" on="0"/>
        <pt x="357" y="100" on="1"/>
      </contour>
      <contour>
        <pt x="399" y="202" on="1"/>
        <pt x="439" y="202" on="0"/>
        <pt x="490" y="243" on="1"/>
        <pt x="490" y="310" on="1"/>
        <pt x="437" y="322" on="0"/>
        <pt x="404" y="322" on="1"/>
        <pt x="341" y="322" on="0"/>
        <pt x="341" y="266" on="1"/>
        <pt x="341" y="237" on="0"/>
        <pt x="373" y="202" on="0"/>
      </contour>
    </TTGlyph>
    <TTGlyph name="atilde" xMin="24" yMin="-3" xMax="440" yMax="703">
      <contour>
        <pt x="99" y="0" on="0"/>
        <pt x="24" y="75" on="0"/>
        <pt x="24" y="202" on="0"/>
        <pt x="140" y="295" on="0"/>
        <pt x="223" y="295" on="1"/>
        <pt x="291" y="295" on="1"/>
        <pt x="291" y="312" on="1"/>
        <pt x="291" y="361" on="0"/>
        <pt x="251" y="397" on="0"/>
        <pt x="196" y="397" on="1"/>
        <pt x="173" y="397" on="0"/>
        <pt x="110" y="378" on="0"/>
        <pt x="71" y="358" on="1"/>
        <pt x="42" y="437" on="1"/>
        <pt x="85" y="467" on="0"/>
        <pt x="208" y="515" on="0"/>
        <pt x="248" y="515" on="1"/>
        <pt x="405" y="515" on="0"/>
        <pt x="405" y="363" on="1"/>
        <pt x="405" y="167" on="1"/>
        <pt x="405" y="111" on="0"/>
        <pt x="440" y="42" on="1"/>
        <pt x="334" y="-3" on="1"/>
        <pt x="309" y="45" on="0"/>
        <pt x="297" y="83" on="1"/>
        <pt x="242" y="0" on="0"/>
        <pt x="158" y="0" on="1"/>
      </contour>
      <contour>
        <pt x="375" y="703" on="1"/>
        <pt x="403" y="660" on="1"/>
        <pt x="375" y="626" on="0"/>
        <pt x="314" y="574" on="0"/>
        <pt x="298" y="574" on="1"/>
        <pt x="283" y="576" on="0"/>
        <pt x="180" y="614" on="0"/>
        <pt x="165" y="616" on="1"/>
        <pt x="99" y="574" on="1"/>
        <pt x="71" y="617" on="1"/>
        <pt x="99" y="651" on="0"/>
        <pt x="160" y="703" on="0"/>
        <pt x="176" y="703" on="1"/>
        <pt x="191" y="701" on="0"/>
        <pt x="294" y="663" on="0"/>
        <pt x="309" y="661" on="1"/>
      </contour>
      <contour>
        <pt x="200" y="102" on="1"/>
        <pt x="240" y="102" on="0"/>
        <pt x="291" y="143" on="1"/>
        <pt x="291" y="210" on="1"/>
        <pt x="238" y="222" on="0"/>
        <pt x="205" y="222" on="1"/>
        <pt x="142" y="222" on="0"/>
        <pt x="142" y="166" on="1"/>
        <pt x="142" y="137" on="0"/>
        <pt x="174" y="102" on="0"/>
      </contour>
    </TTGlyph>
    <TTGlyph name="b" xMin="58" yMin="0" xMax="474" yMax="774">
      <contour>
        <pt x="323" y="505" on="1"/>
        <pt x="390" y="505" on="0"/>
        <pt x="474" y="389" on="0"/>
        <pt x="474" y="298" on="1"/>
        <pt x="474" y="167" on="0"/>
        <pt x="337" y="0" on="0"/>
        <pt x="228" y="0" on="1"/>
        <pt x="178" y="0" on="0"/>
        <pt x="60" y="16" on="1"/>
        <pt x="70" y="243" on="1"/>
        <pt x="58" y="749" on="1"/>
        <pt x="195" y="774" on="1"/>
        <pt x="182" y="516" on="1"/>
        <pt x="182" y="408" on="1"/>
        <pt x="193" y="424" on="0"/>
        <pt x="225" y="460" on="0"/>
        <pt x="293" y="505" on="0"/>
      </contour>
      <contour>
        <pt x="284" y="375" on="1"/>
        <pt x="238" y="375" on="0"/>
        <pt x="182" y="347" on="1"/>
        <pt x="182" y="260" on="1"/>
        <pt x="188" y="113" on="1"/>
        <pt x="230" y="108" on="0"/>
        <pt x="267" y="108" on="1"/>
        <pt x="363" y="108" on="0"/>
        <pt x="363" y="375" on="0"/>
      </contour>
    </TTGlyph>
    <TTGlyph name="backslash" xMin="-14" yMin="-133" xMax="293" yMax="758">
      <contour>
        <pt x="293" y="-117" on="1"/>
        <pt x="203" y="-133" on="1"/>
        <pt x="-14" y="742" on="1"/>
        <pt x="76" y="758" on="1"/>
      </contour>
    </TTGlyph>
    <TTGlyph name="bar" xMin="80" yMin="-144" xMax="171" yMax="761">
      <contour>
        <pt x="80" y="753" on="1"/>
        <pt x="171" y="761" on="1"/>
        <pt x="171" y="-136" on="1"/>
        <pt x="80" y="-144" on="1"/>
      </contour>
    </TTGlyph>
    <TTGlyph name="braceleft" xMin="25" yMin="-144" xMax="263" yMax="738">
      <contour>
        <pt x="69" y="336" on="0"/>
        <pt x="97" y="364" on="0"/>
        <pt x="97" y="415" on="0"/>
        <pt x="54" y="559" on="0"/>
        <pt x="54" y="583" on="1"/>
        <pt x="54" y="662" on="0"/>
        <pt x="157" y="738" on="0"/>
        <pt x="263" y="738" on="1"/>
        <pt x="253" y="664" on="1"/>
        <pt x="195" y="664" on="0"/>
        <pt x="155" y="635" on="0"/>
        <pt x="155" y="557" on="0"/>
        <pt x="190" y="450" on="0"/>
        <pt x="190" y="379" on="0"/>
        <pt x="157" y="313" on="0"/>
        <pt x="131" y="297" on="1"/>
        <pt x="157" y="281" on="0"/>
        <pt x="190" y="215" on="0"/>
        <pt x="190" y="144" on="0"/>
        <pt x="155" y="37" on="0"/>
        <pt x="155" y="-41" on="0"/>
        <pt x="199" y="-70" on="0"/>
        <pt x="263" y="-70" on="1"/>
        <pt x="253" y="-144" on="1"/>
        <pt x="152" y="-144" on="0"/>
        <pt x="54" y="-68" on="0"/>
        <pt x="54" y="11" on="1"/>
        <pt x="54" y="35" on="0"/>
        <pt x="97" y="179" on="0"/>
        <pt x="97" y="204" on="1"/>
        <pt x="97" y="259" on="0"/>
        <pt x="25" y="266" on="1"/>
        <pt x="35" y="328" on="1"/>
      </contour>
    </TTGlyph>
    <TTGlyph name="braceright" xMin="15" yMin="-144" xMax="253" yMax="738">
      <contour>
        <pt x="181" y="229" on="0"/>
        <pt x="181" y="179" on="0"/>
        <pt x="224" y="35" on="0"/>
        <pt x="224" y="11" on="1"/>
        <pt x="224" y="-68" on="0"/>
        <pt x="121" y="-144" on="0"/>
        <pt x="15" y="-144" on="1"/>
        <pt x="25" y="-70" on="1"/>
        <pt x="83" y="-70" on="0"/>
        <pt x="123" y="-41" on="0"/>
        <pt x="123" y="37" on="0"/>
        <pt x="88" y="144" on="0"/>
        <pt x="88" y="214" on="0"/>
        <pt x="121" y="280" on="0"/>
        <pt x="147" y="297" on="1"/>
        <pt x="121" y="313" on="0"/>
        <pt x="88" y="378" on="0"/>
        <pt x="88" y="450" on="0"/>
        <pt x="123" y="557" on="0"/>
        <pt x="123" y="635" on="0"/>
        <pt x="79" y="664" on="0"/>
        <pt x="15" y="664" on="1"/>
        <pt x="25" y="738" on="1"/>
        <pt x="126" y="738" on="0"/>
        <pt x="224" y="662" on="0"/>
        <pt x="224" y="583" on="1"/>
        <pt x="224" y="559" on="0"/>
        <pt x="181" y="415" on="0"/>
        <pt x="181" y="390" on="1"/>
        <pt x="181" y="335" on="0"/>
        <pt x="253" y="328" on="1"/>
        <pt x="243" y="266" on="1"/>
        <pt x="209" y="257" on="0"/>
      </contour>
    </TTGlyph>
    <TTGlyph name="bracketleft" xMin="69" yMin="-144" xMax="278" yMax="741">
      <contour>
        <pt x="278" y="-132" on="1"/>
        <pt x="69" y="-144" on="1"/>
        <pt x="78" y="224" on="1"/>
        <pt x="69" y="741" on="1"/>
        <pt x="277" y="729" on="1"/>
        <pt x="277" y="672" on="1"/>
        <pt x="165" y="658" on="1"/>
        <pt x="165" y="-61" on="1"/>
        <pt x="278" y="-75" on="1"/>
      </contour>
    </TTGlyph>
    <TTGlyph name="bracketright" xMin="0" yMin="-144" xMax="209" yMax="741">
      <contour>
        <pt x="209" y="-144" on="1"/>
        <pt x="0" y="-132" on="1"/>
        <pt x="0" y="-75" on="1"/>
        <pt x="113" y="-61" on="1"/>
        <pt x="113" y="658" on="1"/>
        <pt x="1" y="672" on="1"/>
        <pt x="1" y="729" on="1"/>
        <pt x="209" y="741" on="1"/>
        <pt x="200" y="224" on="1"/>
      </contour>
    </TTGlyph>
    <TTGlyph name="brokenbar" xMin="80" yMin="-144" xMax="171" yMax="761">
      <contour>
        <pt x="80" y="753" on="1"/>
        <pt x="171" y="761" on="1"/>
        <pt x="171" y="428" on="1"/>
        <pt x="80" y="420" on="1"/>
      </contour>
      <contour>
        <pt x="80" y="187" on="1"/>
        <pt x="171" y="195" on="1"/>
        <pt x="171" y="-136" on="1"/>
        <pt x="80" y="-144" on="1"/>
      </contour>
    </TTGlyph>
    <TTGlyph name="bullet" xMin="40" yMin="146" xMax="257" yMax="377">
      <contour>
        <pt x="40" y="303" on="0"/>
        <pt x="111" y="377" on="0"/>
        <pt x="207" y="377" on="0"/>
        <pt x="257" y="325" on="0"/>
        <pt x="257" y="221" on="0"/>
        <pt x="187" y="146" on="0"/>
        <pt x="92" y="146" on="0"/>
        <pt x="40" y="207" on="0"/>
      </contour>
    </TTGlyph>
    <TTGlyph name="c" xMin="26" yMin="-11" xMax="380" yMax="515">
      <contour>
        <pt x="186" y="385" on="0"/>
        <pt x="138" y="322" on="0"/>
        <pt x="138" y="192" on="0"/>
        <pt x="187" y="113" on="0"/>
        <pt x="234" y="113" on="1"/>
        <pt x="258" y="113" on="0"/>
        <pt x="304" y="143" on="0"/>
        <pt x="316" y="158" on="1"/>
        <pt x="327" y="174" on="1"/>
        <pt x="377" y="122" on="1"/>
        <pt x="374" y="117" on="0"/>
        <pt x="365" y="99" on="0"/>
        <pt x="330" y="53" on="0"/>
        <pt x="291" y="18" on="0"/>
        <pt x="229" y="-11" on="0"/>
        <pt x="195" y="-11" on="1"/>
        <pt x="120" y="-11" on="0"/>
        <pt x="26" y="111" on="0"/>
        <pt x="26" y="209" on="1"/>
        <pt x="26" y="331" on="0"/>
        <pt x="168" y="515" on="0"/>
        <pt x="263" y="515" on="1"/>
        <pt x="292" y="515" on="0"/>
        <pt x="350" y="498" on="0"/>
        <pt x="380" y="480" on="1"/>
        <pt x="310" y="357" on="1"/>
        <pt x="274" y="385" on="0"/>
      </contour>
    </TTGlyph>
    <TTGlyph name="ccedilla" xMin="26" yMin="-220" xMax="380" yMax="515">
      <contour>
        <pt x="222" y="-125" on="1"/>
        <pt x="222" y="-94" on="0"/>
        <pt x="153" y="-85" on="1"/>
        <pt x="168" y="-9" on="1"/>
        <pt x="104" y="2" on="0"/>
        <pt x="26" y="121" on="0"/>
        <pt x="26" y="209" on="1"/>
        <pt x="26" y="331" on="0"/>
        <pt x="168" y="515" on="0"/>
        <pt x="263" y="515" on="1"/>
        <pt x="292" y="515" on="0"/>
        <pt x="350" y="498" on="0"/>
        <pt x="380" y="480" on="1"/>
        <pt x="310" y="357" on="1"/>
        <pt x="274" y="385" on="0"/>
        <pt x="186" y="385" on="0"/>
        <pt x="138" y="322" on="0"/>
        <pt x="138" y="192" on="0"/>
        <pt x="187" y="113" on="0"/>
        <pt x="234" y="113" on="1"/>
        <pt x="258" y="113" on="0"/>
        <pt x="304" y="143" on="0"/>
        <pt x="316" y="158" on="1"/>
        <pt x="327" y="174" on="1"/>
        <pt x="377" y="122" on="1"/>
        <pt x="344" y="56" on="0"/>
        <pt x="283" y="16" on="1"/>
        <pt x="258" y="-1" on="0"/>
        <pt x="231" y="-7" on="1"/>
        <pt x="225" y="-40" on="1"/>
        <pt x="265" y="-50" on="0"/>
        <pt x="308" y="-89" on="0"/>
        <pt x="308" y="-115" on="1"/>
        <pt x="308" y="-152" on="0"/>
        <pt x="226" y="-212" on="0"/>
        <pt x="164" y="-220" on="1"/>
        <pt x="132" y="-176" on="1"/>
        <pt x="222" y="-160" on="0"/>
      </contour>
    </TTGlyph>
    <TTGlyph name="cedilla" xMin="44" yMin="-220" xMax="220" yMax="20">
      <contour>
        <pt x="134" y="-125" on="1"/>
        <pt x="134" y="-94" on="0"/>
        <pt x="65" y="-85" on="1"/>
        <pt x="86" y="20" on="1"/>
        <pt x="148" y="20" on="1"/>
        <pt x="137" y="-40" on="1"/>
        <pt x="177" y="-50" on="0"/>
        <pt x="220" y="-89" on="0"/>
        <pt x="220" y="-115" on="1"/>
        <pt x="220" y="-152" on="0"/>
        <pt x="138" y="-212" on="0"/>
        <pt x="76" y="-220" on="1"/>
        <pt x="44" y="-176" on="1"/>
        <pt x="134" y="-160" on="0"/>
      </contour>
    </TTGlyph>
    <TTGlyph name="cent" xMin="28" yMin="-126" xMax="364" yMax="644">
      <contour>
        <pt x="28" y="225" on="1"/>
        <pt x="28" y="332" on="0"/>
        <pt x="147" y="501" on="0"/>
        <pt x="230" y="513" on="1"/>
        <pt x="249" y="644" on="1"/>
        <pt x="296" y="642" on="1"/>
        <pt x="277" y="513" on="1"/>
        <pt x="324" y="507" on="0"/>
        <pt x="364" y="482" on="1"/>
        <pt x="297" y="365" on="1"/>
        <pt x="281" y="377" on="0"/>
        <pt x="258" y="385" on="1"/>
        <pt x="222" y="133" on="1"/>
        <pt x="225" y="133" on="1"/>
        <pt x="248" y="133" on="0"/>
        <pt x="293" y="162" on="0"/>
        <pt x="304" y="176" on="1"/>
        <pt x="314" y="191" on="1"/>
        <pt x="361" y="142" on="1"/>
        <pt x="357" y="131" on="0"/>
        <pt x="321" y="82" on="0"/>
        <pt x="304" y="66" on="1"/>
        <pt x="258" y="22" on="0"/>
        <pt x="205" y="17" on="1"/>
        <pt x="184" y="-126" on="1"/>
        <pt x="137" y="-123" on="1"/>
        <pt x="158" y="19" on="1"/>
        <pt x="99" y="31" on="0"/>
        <pt x="28" y="142" on="0"/>
      </contour>
      <contour>
        <pt x="134" y="280" on="1"/>
        <pt x="134" y="182" on="0"/>
        <pt x="177" y="148" on="1"/>
        <pt x="212" y="391" on="1"/>
        <pt x="175" y="388" on="0"/>
        <pt x="134" y="329" on="0"/>
      </contour>
    </TTGlyph>
    <TTGlyph name="circumflex" xMin="-23" yMin="566" xMax="267" yMax="713">
      <contour>
        <pt x="121" y="566" on="1"/>
        <pt x="-23" y="651" on="1"/>
        <pt x="-8" y="713" on="1"/>
        <pt x="121" y="666" on="1"/>
        <pt x="252" y="713" on="1"/>
        <pt x="267" y="651" on="1"/>
      </contour>
    </TTGlyph>
    <TTGlyph name="colon" xMin="30" yMin="-6" xMax="175" yMax="411">
      <contour>
        <pt x="30" y="99" on="0"/>
        <pt x="77" y="148" on="0"/>
        <pt x="110" y="148" on="1"/>
        <pt x="175" y="148" on="0"/>
        <pt x="175" y="82" on="1"/>
        <pt x="175" y="44" on="0"/>
        <pt x="128" y="-6" on="0"/>
        <pt x="65" y="-6" on="0"/>
        <pt x="30" y="35" on="0"/>
      </contour>
      <contour>
        <pt x="30" y="362" on="0"/>
        <pt x="77" y="411" on="0"/>
        <pt x="110" y="411" on="1"/>
        <pt x="175" y="411" on="0"/>
        <pt x="175" y="345" on="1"/>
        <pt x="175" y="307" on="0"/>
        <pt x="128" y="257" on="0"/>
        <pt x="65" y="257" on="0"/>
        <pt x="30" y="298" on="0"/>
      </contour>
    </TTGlyph>
    <TTGlyph name="comma" xMin="0" yMin="-113" xMax="165" yMax="154">
      <contour>
        <pt x="165" y="67" on="1"/>
        <pt x="165" y="-18" on="0"/>
        <pt x="41" y="-113" on="1"/>
        <pt x="0" y="-83" on="1"/>
        <pt x="59" y="-14" on="0"/>
        <pt x="59" y="36" on="1"/>
        <pt x="59" y="67" on="0"/>
        <pt x="33" y="115" on="1"/>
        <pt x="131" y="154" on="1"/>
        <pt x="165" y="111" on="0"/>
      </contour>
    </TTGlyph>
    <TTGlyph name="copyright" xMin="20" yMin="-11" xMax="740" yMax="700">
      <contour>
        <pt x="231" y="700" on="0"/>
        <pt x="529" y="700" on="0"/>
        <pt x="740" y="492" on="0"/>
        <pt x="740" y="198" on="0"/>
        <pt x="529" y="-11" on="0"/>
        <pt x="231" y="-11" on="0"/>
        <pt x="20" y="198" on="0"/>
        <pt x="20" y="492" on="0"/>
      </contour>
      <contour>
        <pt x="502" y="49" on="0"/>
        <pt x="674" y="222" on="0"/>
        <pt x="674" y="467" on="0"/>
        <pt x="502" y="640" on="0"/>
        <pt x="258" y="640" on="0"/>
        <pt x="86" y="467" on="0"/>
        <pt x="86" y="222" on="0"/>
        <pt x="258" y="49" on="0"/>
      </contour>
      <contour>
        <pt x="375" y="147" on="1"/>
        <pt x="312" y="147" on="0"/>
        <pt x="226" y="251" on="0"/>
        <pt x="226" y="422" on="0"/>
        <pt x="329" y="549" on="0"/>
        <pt x="404" y="549" on="1"/>
        <pt x="433" y="549" on="0"/>
        <pt x="483" y="537" on="0"/>
        <pt x="504" y="525" on="1"/>
        <pt x="467" y="446" on="1"/>
        <pt x="430" y="477" on="0"/>
        <pt x="349" y="477" on="0"/>
        <pt x="303" y="413" on="0"/>
        <pt x="303" y="294" on="0"/>
        <pt x="350" y="219" on="0"/>
        <pt x="391" y="219" on="1"/>
        <pt x="417" y="219" on="0"/>
        <pt x="461" y="252" on="0"/>
        <pt x="471" y="279" on="1"/>
        <pt x="518" y="252" on="1"/>
        <pt x="498" y="202" on="0"/>
        <pt x="423" y="147" on="0"/>
      </contour>
    </TTGlyph>
    <TTGlyph name="currency" xMin="9" yMin="32" xMax="462" yMax="489">
      <contour>
        <pt x="93" y="186" on="1"/>
        <pt x="75" y="219" on="0"/>
        <pt x="75" y="300" on="0"/>
        <pt x="95" y="334" on="1"/>
        <pt x="9" y="418" on="1"/>
        <pt x="90" y="476" on="1"/>
        <pt x="160" y="400" on="1"/>
        <pt x="194" y="418" on="0"/>
        <pt x="271" y="418" on="0"/>
        <pt x="307" y="400" on="1"/>
        <pt x="387" y="489" on="1"/>
        <pt x="448" y="405" on="1"/>
        <pt x="372" y="335" on="1"/>
        <pt x="393" y="299" on="0"/>
        <pt x="393" y="219" on="0"/>
        <pt x="374" y="186" on="1"/>
        <pt x="462" y="104" on="1"/>
        <pt x="378" y="44" on="1"/>
        <pt x="308" y="120" on="1"/>
        <pt x="274" y="100" on="0"/>
        <pt x="193" y="100" on="0"/>
        <pt x="156" y="121" on="1"/>
        <pt x="76" y="32" on="1"/>
        <pt x="16" y="118" on="1"/>
      </contour>
      <contour>
        <pt x="153" y="292" on="0"/>
        <pt x="153" y="226" on="0"/>
        <pt x="200" y="178" on="0"/>
        <pt x="266" y="178" on="0"/>
        <pt x="315" y="226" on="0"/>
        <pt x="315" y="292" on="0"/>
        <pt x="266" y="340" on="0"/>
        <pt x="200" y="340" on="0"/>
      </contour>
    </TTGlyph>
    <TTGlyph name="d" xMin="25" yMin="-11" xMax="463" yMax="774">
      <contour>
        <pt x="322" y="98" on="1"/>
        <pt x="244" y="0" on="0"/>
        <pt x="187" y="0" on="1"/>
        <pt x="116" y="0" on="0"/>
        <pt x="25" y="116" on="0"/>
        <pt x="25" y="207" on="1"/>
        <pt x="25" y="332" on="0"/>
        <pt x="164" y="504" on="0"/>
        <pt x="265" y="504" on="1"/>
        <pt x="321" y="496" on="1"/>
        <pt x="321" y="515" on="1"/>
        <pt x="309" y="749" on="1"/>
        <pt x="446" y="774" on="1"/>
        <pt x="433" y="260" on="1"/>
        <pt x="433" y="172" on="1"/>
        <pt x="433" y="112" on="0"/>
        <pt x="463" y="34" on="1"/>
        <pt x="355" y="-11" on="1"/>
        <pt x="326" y="49" on="0"/>
      </contour>
      <contour>
        <pt x="137" y="195" on="0"/>
        <pt x="184" y="123" on="0"/>
        <pt x="273" y="123" on="0"/>
        <pt x="321" y="159" on="1"/>
        <pt x="321" y="375" on="1"/>
        <pt x="261" y="387" on="0"/>
        <pt x="232" y="387" on="1"/>
        <pt x="187" y="387" on="0"/>
        <pt x="137" y="323" on="0"/>
      </contour>
    </TTGlyph>
    <TTGlyph name="degree" xMin="20" yMin="452" xMax="271" yMax="700">
      <contour>
        <pt x="20" y="627" on="0"/>
        <pt x="94" y="700" on="0"/>
        <pt x="197" y="700" on="0"/>
        <pt x="271" y="627" on="0"/>
        <pt x="271" y="525" on="0"/>
        <pt x="197" y="452" on="0"/>
        <pt x="94" y="452" on="0"/>
        <pt x="20" y="525" on="0"/>
      </contour>
      <contour>
        <pt x="171" y="510" on="0"/>
        <pt x="211" y="549" on="0"/>
        <pt x="211" y="602" on="0"/>
        <pt x="172" y="641" on="0"/>
        <pt x="119" y="641" on="0"/>
        <pt x="80" y="602" on="0"/>
        <pt x="80" y="549" on="0"/>
        <pt x="119" y="510" on="0"/>
      </contour>
    </TTGlyph>
    <TTGlyph name="dieresis" xMin="-23" yMin="592" xMax="267" yMax="728">
      <contour>
        <pt x="-23" y="684" on="0"/>
        <pt x="19" y="728" on="0"/>
        <pt x="75" y="728" on="0"/>
        <pt x="105" y="697" on="0"/>
        <pt x="105" y="636" on="0"/>
        <pt x="63" y="592" on="0"/>
        <pt x="8" y="592" on="0"/>
        <pt x="-23" y="628" on="0"/>
      </contour>
      <contour>
        <pt x="139" y="684" on="0"/>
        <pt x="181" y="728" on="0"/>
        <pt x="210" y="728" on="1"/>
        <pt x="267" y="728" on="0"/>
        <pt x="267" y="670" on="1"/>
        <pt x="267" y="636" on="0"/>
        <pt x="226" y="592" on="0"/>
        <pt x="171" y="592" on="0"/>
        <pt x="139" y="628" on="0"/>
      </contour>
    </TTGlyph>
    <TTGlyph name="divide" xMin="17" yMin="17" xMax="408" yMax="503">
      <contour>
        <pt x="17" y="215" on="1"/>
        <pt x="25" y="306" on="1"/>
        <pt x="408" y="306" on="1"/>
        <pt x="400" y="215" on="1"/>
      </contour>
      <contour>
        <pt x="139" y="454" on="0"/>
        <pt x="186" y="503" on="0"/>
        <pt x="218" y="503" on="1"/>
        <pt x="284" y="503" on="0"/>
        <pt x="284" y="437" on="1"/>
        <pt x="284" y="399" on="0"/>
        <pt x="237" y="349" on="0"/>
        <pt x="174" y="349" on="0"/>
        <pt x="139" y="390" on="0"/>
      </contour>
      <contour>
        <pt x="139" y="122" on="0"/>
        <pt x="186" y="171" on="0"/>
        <pt x="218" y="171" on="1"/>
        <pt x="284" y="171" on="0"/>
        <pt x="284" y="105" on="1"/>
        <pt x="284" y="67" on="0"/>
        <pt x="237" y="17" on="0"/>
        <pt x="174" y="17" on="0"/>
        <pt x="139" y="58" on="0"/>
      </contour>
    </TTGlyph>
    <TTGlyph name="dollar" xMin="7" yMin="-133" xMax="351" yMax="630">
      <contour>
        <pt x="33" y="351" on="1"/>
        <pt x="33" y="418" on="0"/>
        <pt x="144" y="515" on="0"/>
        <pt x="220" y="515" on="1"/>
        <pt x="231" y="515" on="1"/>
        <pt x="259" y="630" on="1"/>
        <pt x="306" y="624" on="1"/>
        <pt x="279" y="509" on="1"/>
        <pt x="322" y="500" on="0"/>
        <pt x="351" y="486" on="1"/>
        <pt x="300" y="378" on="1"/>
        <pt x="281" y="392" on="0"/>
        <pt x="254" y="404" on="1"/>
        <pt x="229" y="297" on="1"/>
        <pt x="284" y="274" on="0"/>
        <pt x="307" y="254" on="1"/>
        <pt x="350" y="218" on="0"/>
        <pt x="350" y="93" on="0"/>
        <pt x="239" y="-11" on="0"/>
        <pt x="165" y="-11" on="1"/>
        <pt x="156" y="-11" on="1"/>
        <pt x="127" y="-133" on="1"/>
        <pt x="80" y="-126" on="1"/>
        <pt x="109" y="-3" on="1"/>
        <pt x="80" y="5" on="0"/>
        <pt x="29" y="39" on="0"/>
        <pt x="18" y="52" on="1"/>
        <pt x="7" y="64" on="1"/>
        <pt x="64" y="144" on="1"/>
        <pt x="92" y="113" on="0"/>
        <pt x="132" y="94" on="1"/>
        <pt x="160" y="213" on="1"/>
        <pt x="65" y="252" on="0"/>
        <pt x="44" y="299" on="1"/>
        <pt x="33" y="322" on="0"/>
      </contour>
      <contour>
        <pt x="154" y="422" on="0"/>
        <pt x="121" y="396" on="0"/>
        <pt x="121" y="355" on="0"/>
        <pt x="153" y="328" on="0"/>
        <pt x="184" y="315" on="1"/>
        <pt x="209" y="419" on="1"/>
        <pt x="194" y="422" on="0"/>
      </contour>
      <contour>
        <pt x="262" y="137" on="1"/>
        <pt x="262" y="168" on="0"/>
        <pt x="205" y="195" on="1"/>
        <pt x="178" y="81" on="1"/>
        <pt x="190" y="81" on="1"/>
        <pt x="223" y="81" on="0"/>
        <pt x="262" y="112" on="0"/>
      </contour>
    </TTGlyph>
    <TTGlyph name="dotlessi" xMin="57" yMin="0" xMax="192" yMax="509">
      <contour>
        <pt x="192" y="509" on="1"/>
        <pt x="180" y="260" on="1"/>
        <pt x="191" y="25" on="1"/>
        <pt x="57" y="0" on="1"/>
        <pt x="69" y="243" on="1"/>
        <pt x="58" y="484" on="1"/>
      </contour>
    </TTGlyph>
    <TTGlyph name="e" xMin="26" yMin="-11" xMax="417" yMax="515">
      <contour>
        <pt x="238" y="102" on="1"/>
        <pt x="267" y="102" on="0"/>
        <pt x="331" y="132" on="0"/>
        <pt x="349" y="147" on="1"/>
        <pt x="367" y="162" on="1"/>
        <pt x="413" y="106" on="1"/>
        <pt x="403" y="89" on="0"/>
        <pt x="361" y="45" on="0"/>
        <pt x="318" y="14" on="0"/>
        <pt x="247" y="-11" on="0"/>
        <pt x="209" y="-11" on="1"/>
        <pt x="128" y="-11" on="0"/>
        <pt x="26" y="112" on="0"/>
        <pt x="26" y="209" on="1"/>
        <pt x="26" y="331" on="0"/>
        <pt x="168" y="515" on="0"/>
        <pt x="263" y="515" on="1"/>
        <pt x="336" y="515" on="0"/>
        <pt x="417" y="433" on="0"/>
        <pt x="417" y="359" on="1"/>
        <pt x="417" y="315" on="0"/>
        <pt x="402" y="259" on="1"/>
        <pt x="382" y="238" on="1"/>
        <pt x="132" y="215" on="1"/>
        <pt x="149" y="102" on="0"/>
      </contour>
      <contour>
        <pt x="238" y="412" on="1"/>
        <pt x="194" y="412" on="0"/>
        <pt x="134" y="341" on="0"/>
        <pt x="129" y="286" on="1"/>
        <pt x="299" y="307" on="1"/>
        <pt x="302" y="330" on="0"/>
        <pt x="302" y="345" on="1"/>
        <pt x="302" y="412" on="0"/>
      </contour>
    </TTGlyph>
    <TTGlyph name="eacute" xMin="26" yMin="-11" xMax="417" yMax="725">
      <contour>
        <pt x="238" y="102" on="1"/>
        <pt x="267" y="102" on="0"/>
        <pt x="331" y="132" on="0"/>
        <pt x="349" y="147" on="1"/>
        <pt x="367" y="162" on="1"/>
        <pt x="413" y="106" on="1"/>
        <pt x="403" y="89" on="0"/>
        <pt x="361" y="45" on="0"/>
        <pt x="318" y="14" on="0"/>
        <pt x="247" y="-11" on="0"/>
        <pt x="209" y="-11" on="1"/>
        <pt x="128" y="-11" on="0"/>
        <pt x="26" y="112" on="0"/>
        <pt x="26" y="209" on="1"/>
        <pt x="26" y="331" on="0"/>
        <pt x="168" y="515" on="0"/>
        <pt x="263" y="515" on="1"/>
        <pt x="336" y="515" on="0"/>
        <pt x="417" y="433" on="0"/>
        <pt x="417" y="359" on="1"/>
        <pt x="417" y="315" on="0"/>
        <pt x="402" y="259" on="1"/>
        <pt x="382" y="238" on="1"/>
        <pt x="132" y="215" on="1"/>
        <pt x="149" y="102" on="0"/>
      </contour>
      <contour>
        <pt x="357" y="725" on="1"/>
        <pt x="368" y="623" on="1"/>
        <pt x="237" y="593" on="0"/>
        <pt x="133" y="575" on="1"/>
        <pt x="128" y="647" on="1"/>
        <pt x="214" y="672" on="0"/>
      </contour>
      <contour>
        <pt x="238" y="412" on="1"/>
        <pt x="194" y="412" on="0"/>
        <pt x="134" y="341" on="0"/>
        <pt x="129" y="286" on="1"/>
        <pt x="299" y="307" on="1"/>
        <pt x="302" y="330" on="0"/>
        <pt x="302" y="345" on="1"/>
        <pt x="302" y="412" on="0"/>
      </contour>
    </TTGlyph>
    <TTGlyph name="ecircumflex" xMin="26" yMin="-11" xMax="417" yMax="713">
      <contour>
        <pt x="238" y="102" on="1"/>
        <pt x="267" y="102" on="0"/>
        <pt x="331" y="132" on="0"/>
        <pt x="349" y="147" on="1"/>
        <pt x="367" y="162" on="1"/>
        <pt x="413" y="106" on="1"/>
        <pt x="403" y="89" on="0"/>
        <pt x="361" y="45" on="0"/>
        <pt x="318" y="14" on="0"/>
        <pt x="247" y="-11" on="0"/>
        <pt x="209" y="-11" on="1"/>
        <pt x="128" y="-11" on="0"/>
        <pt x="26" y="112" on="0"/>
        <pt x="26" y="209" on="1"/>
        <pt x="26" y="331" on="0"/>
        <pt x="168" y="515" on="0"/>
        <pt x="263" y="515" on="1"/>
        <pt x="336" y="515" on="0"/>
        <pt x="417" y="433" on="0"/>
        <pt x="417" y="359" on="1"/>
        <pt x="417" y="315" on="0"/>
        <pt x="402" y="259" on="1"/>
        <pt x="382" y="238" on="1"/>
        <pt x="132" y="215" on="1"/>
        <pt x="149" y="102" on="0"/>
      </contour>
      <contour>
        <pt x="246" y="566" on="1"/>
        <pt x="102" y="651" on="1"/>
        <pt x="117" y="713" on="1"/>
        <pt x="246" y="666" on="1"/>
        <pt x="377" y="713" on="1"/>
        <pt x="392" y="651" on="1"/>
      </contour>
      <contour>
        <pt x="238" y="412" on="1"/>
        <pt x="194" y="412" on="0"/>
        <pt x="134" y="341" on="0"/>
        <pt x="129" y="286" on="1"/>
        <pt x="299" y="307" on="1"/>
        <pt x="302" y="330" on="0"/>
        <pt x="302" y="345" on="1"/>
        <pt x="302" y="412" on="0"/>
      </contour>
    </TTGlyph>
    <TTGlyph name="edieresis" xMin="26" yMin="-11" xMax="417" yMax="728">
      <contour>
        <pt x="238" y="102" on="1"/>
        <pt x="267" y="102" on="0"/>
        <pt x="331" y="132" on="0"/>
        <pt x="349" y="147" on="1"/>
        <pt x="367" y="162" on="1"/>
        <pt x="413" y="106" on="1"/>
        <pt x="403" y="89" on="0"/>
        <pt x="361" y="45" on="0"/>
        <pt x="318" y="14" on="0"/>
        <pt x="247" y="-11" on="0"/>
        <pt x="209" y="-11" on="1"/>
        <pt x="128" y="-11" on="0"/>
        <pt x="26" y="112" on="0"/>
        <pt x="26" y="209" on="1"/>
        <pt x="26" y="331" on="0"/>
        <pt x="168" y="515" on="0"/>
        <pt x="263" y="515" on="1"/>
        <pt x="336" y="515" on="0"/>
        <pt x="417" y="433" on="0"/>
        <pt x="417" y="359" on="1"/>
        <pt x="417" y="315" on="0"/>
        <pt x="402" y="259" on="1"/>
        <pt x="382" y="238" on="1"/>
        <pt x="132" y="215" on="1"/>
        <pt x="149" y="102" on="0"/>
      </contour>
      <contour>
        <pt x="238" y="412" on="1"/>
        <pt x="194" y="412" on="0"/>
        <pt x="134" y="341" on="0"/>
        <pt x="129" y="286" on="1"/>
        <pt x="299" y="307" on="1"/>
        <pt x="302" y="330" on="0"/>
        <pt x="302" y="345" on="1"/>
        <pt x="302" y="412" on="0"/>
      </contour>
      <contour>
        <pt x="263" y="684" on="0"/>
        <pt x="305" y="728" on="0"/>
        <pt x="334" y="728" on="1"/>
        <pt x="391" y="728" on="0"/>
        <pt x="391" y="670" on="1"/>
        <pt x="391" y="636" on="0"/>
        <pt x="350" y="592" on="0"/>
        <pt x="295" y="592" on="0"/>
        <pt x="263" y="628" on="0"/>
      </contour>
      <contour>
        <pt x="101" y="684" on="0"/>
        <pt x="143" y="728" on="0"/>
        <pt x="199" y="728" on="0"/>
        <pt x="229" y="697" on="0"/>
        <pt x="229" y="636" on="0"/>
        <pt x="187" y="592" on="0"/>
        <pt x="132" y="592" on="0"/>
        <pt x="101" y="628" on="0"/>
      </contour>
    </TTGlyph>
    <TTGlyph name="egrave" xMin="26" yMin="-11" xMax="417" yMax="725">
      <contour>
        <pt x="238" y="102" on="1"/>
        <pt x="267" y="102" on="0"/>
        <pt x="331" y="132" on="0"/>
        <pt x="349" y="147" on="1"/>
        <pt x="367" y="162" on="1"/>
        <pt x="413" y="106" on="1"/>
        <pt x="403" y="89" on="0"/>
        <pt x="361" y="45" on="0"/>
        <pt x="318" y="14" on="0"/>
        <pt x="247" y="-11" on="0"/>
        <pt x="209" y="-11" on="1"/>
        <pt x="128" y="-11" on="0"/>
        <pt x="26" y="112" on="0"/>
        <pt x="26" y="209" on="1"/>
        <pt x="26" y="331" on="0"/>
        <pt x="168" y="515" on="0"/>
        <pt x="263" y="515" on="1"/>
        <pt x="336" y="515" on="0"/>
        <pt x="417" y="433" on="0"/>
        <pt x="417" y="359" on="1"/>
        <pt x="417" y="315" on="0"/>
        <pt x="402" y="259" on="1"/>
        <pt x="382" y="238" on="1"/>
        <pt x="132" y="215" on="1"/>
        <pt x="149" y="102" on="0"/>
      </contour>
      <contour>
        <pt x="128" y="623" on="1"/>
        <pt x="139" y="725" on="1"/>
        <pt x="267" y="677" on="0"/>
        <pt x="368" y="647" on="1"/>
        <pt x="363" y="575" on="1"/>
      </contour>
      <contour>
        <pt x="238" y="412" on="1"/>
        <pt x="194" y="412" on="0"/>
        <pt x="134" y="341" on="0"/>
        <pt x="129" y="286" on="1"/>
        <pt x="299" y="307" on="1"/>
        <pt x="302" y="330" on="0"/>
        <pt x="302" y="345" on="1"/>
        <pt x="302" y="412" on="0"/>
      </contour>
    </TTGlyph>
    <TTGlyph name="eight" xMin="40" yMin="-11" xMax="499" yMax="650">
      <contour>
        <pt x="40" y="155" on="1"/>
        <pt x="40" y="208" on="0"/>
        <pt x="114" y="285" on="0"/>
        <pt x="159" y="308" on="1"/>
        <pt x="63" y="365" on="0"/>
        <pt x="63" y="538" on="0"/>
        <pt x="187" y="650" on="0"/>
        <pt x="357" y="650" on="0"/>
        <pt x="464" y="568" on="0"/>
        <pt x="464" y="507" on="1"/>
        <pt x="464" y="428" on="0"/>
        <pt x="370" y="352" on="1"/>
        <pt x="430" y="324" on="0"/>
        <pt x="499" y="250" on="0"/>
        <pt x="499" y="194" on="1"/>
        <pt x="499" y="110" on="0"/>
        <pt x="356" y="-11" on="0"/>
        <pt x="167" y="-11" on="0"/>
        <pt x="40" y="87" on="0"/>
      </contour>
      <contour>
        <pt x="315" y="240" on="0"/>
        <pt x="231" y="273" on="0"/>
        <pt x="216" y="280" on="1"/>
        <pt x="151" y="237" on="0"/>
        <pt x="151" y="149" on="0"/>
        <pt x="221" y="95" on="0"/>
        <pt x="326" y="95" on="0"/>
        <pt x="389" y="134" on="0"/>
        <pt x="389" y="197" on="0"/>
      </contour>
      <contour>
        <pt x="173" y="457" on="0"/>
        <pt x="205" y="429" on="0"/>
        <pt x="223" y="416" on="0"/>
        <pt x="244" y="406" on="1"/>
        <pt x="281" y="389" on="0"/>
        <pt x="310" y="378" on="1"/>
        <pt x="356" y="436" on="0"/>
        <pt x="356" y="505" on="0"/>
        <pt x="303" y="546" on="0"/>
        <pt x="222" y="546" on="0"/>
        <pt x="173" y="510" on="0"/>
      </contour>
    </TTGlyph>
    <TTGlyph name="emdash" xMin="-8" yMin="215" xMax="559" yMax="306">
      <contour>
        <pt x="-8" y="215" on="1"/>
        <pt x="0" y="306" on="1"/>
        <pt x="559" y="306" on="1"/>
        <pt x="551" y="215" on="1"/>
      </contour>
    </TTGlyph>
    <TTGlyph name="endash" xMin="-8" yMin="215" xMax="433" yMax="306">
      <contour>
        <pt x="-8" y="215" on="1"/>
        <pt x="0" y="306" on="1"/>
        <pt x="433" y="306" on="1"/>
        <pt x="425" y="215" on="1"/>
      </contour>
    </TTGlyph>
    <TTGlyph name="equal" xMin="17" yMin="129" xMax="408" yMax="390">
      <contour>
        <pt x="17" y="299" on="1"/>
        <pt x="25" y="390" on="1"/>
        <pt x="408" y="390" on="1"/>
        <pt x="400" y="299" on="1"/>
      </contour>
      <contour>
        <pt x="17" y="129" on="1"/>
        <pt x="25" y="220" on="1"/>
        <pt x="408" y="220" on="1"/>
        <pt x="400" y="129" on="1"/>
      </contour>
    </TTGlyph>
    <TTGlyph name="eth" xMin="28" yMin="-11" xMax="485" yMax="780">
      <contour>
        <pt x="485" y="261" on="1"/>
        <pt x="485" y="145" on="0"/>
        <pt x="345" y="-11" on="0"/>
        <pt x="239" y="-11" on="1"/>
        <pt x="152" y="-11" on="0"/>
        <pt x="28" y="119" on="0"/>
        <pt x="28" y="211" on="1"/>
        <pt x="28" y="326" on="0"/>
        <pt x="144" y="467" on="0"/>
        <pt x="236" y="467" on="1"/>
        <pt x="279" y="467" on="0"/>
        <pt x="316" y="445" on="1"/>
        <pt x="278" y="517" on="0"/>
        <pt x="210" y="587" on="1"/>
        <pt x="67" y="512" on="1"/>
        <pt x="58" y="557" on="1"/>
        <pt x="177" y="619" on="1"/>
        <pt x="118" y="673" on="0"/>
        <pt x="55" y="721" on="1"/>
        <pt x="183" y="780" on="1"/>
        <pt x="222" y="741" on="0"/>
        <pt x="282" y="675" on="1"/>
        <pt x="417" y="746" on="1"/>
        <pt x="428" y="700" on="1"/>
        <pt x="312" y="640" on="1"/>
        <pt x="403" y="531" on="0"/>
        <pt x="485" y="350" on="0"/>
      </contour>
      <contour>
        <pt x="312" y="94" on="0"/>
        <pt x="369" y="160" on="0"/>
        <pt x="369" y="287" on="0"/>
        <pt x="354" y="347" on="1"/>
        <pt x="304" y="371" on="0"/>
        <pt x="257" y="371" on="1"/>
        <pt x="149" y="371" on="0"/>
        <pt x="149" y="232" on="1"/>
        <pt x="149" y="170" on="0"/>
        <pt x="209" y="94" on="0"/>
      </contour>
    </TTGlyph>
    <TTGlyph name="exclam" xMin="40" yMin="-6" xMax="227" yMax="700">
      <contour>
        <pt x="40" y="99" on="0"/>
        <pt x="88" y="148" on="0"/>
        <pt x="152" y="148" on="0"/>
        <pt x="185" y="113" on="0"/>
        <pt x="185" y="45" on="0"/>
        <pt x="139" y="-6" on="0"/>
        <pt x="76" y="-6" on="0"/>
        <pt x="40" y="32" on="0"/>
      </contour>
      <contour>
        <pt x="227" y="700" on="1"/>
        <pt x="171" y="257" on="1"/>
        <pt x="76" y="243" on="1"/>
        <pt x="76" y="675" on="1"/>
      </contour>
    </TTGlyph>
    <TTGlyph name="exclamdown" xMin="20" yMin="-191" xMax="207" yMax="515">
      <contour>
        <pt x="207" y="410" on="0"/>
        <pt x="159" y="361" on="0"/>
        <pt x="95" y="361" on="0"/>
        <pt x="62" y="396" on="0"/>
        <pt x="62" y="464" on="0"/>
        <pt x="108" y="515" on="0"/>
        <pt x="171" y="515" on="0"/>
        <pt x="207" y="477" on="0"/>
      </contour>
      <contour>
        <pt x="20" y="-191" on="1"/>
        <pt x="76" y="252" on="1"/>
        <pt x="171" y="266" on="1"/>
        <pt x="171" y="-166" on="1"/>
      </contour>
    </TTGlyph>
    <TTGlyph name="f" xMin="17" yMin="0" xMax="356" yMax="774">
      <contour>
        <pt x="325" y="651" on="1"/>
        <pt x="288" y="660" on="0"/>
        <pt x="228" y="660" on="0"/>
        <pt x="201" y="624" on="0"/>
        <pt x="201" y="579" on="1"/>
        <pt x="200" y="484" on="1"/>
        <pt x="308" y="484" on="1"/>
        <pt x="297" y="402" on="1"/>
        <pt x="200" y="402" on="1"/>
        <pt x="199" y="260" on="1"/>
        <pt x="210" y="25" on="1"/>
        <pt x="75" y="0" on="1"/>
        <pt x="87" y="243" on="1"/>
        <pt x="83" y="402" on="1"/>
        <pt x="17" y="402" on="1"/>
        <pt x="28" y="484" on="1"/>
        <pt x="81" y="484" on="1"/>
        <pt x="80" y="560" on="1"/>
        <pt x="80" y="649" on="0"/>
        <pt x="190" y="774" on="0"/>
        <pt x="269" y="774" on="1"/>
        <pt x="311" y="774" on="0"/>
        <pt x="356" y="765" on="1"/>
      </contour>
    </TTGlyph>
    <TTGlyph name="fi" xMin="17" yMin="0" xMax="510" yMax="774">
      <contour>
        <pt x="269" y="774" on="1"/>
        <pt x="311" y="774" on="0"/>
        <pt x="356" y="765" on="1"/>
        <pt x="325" y="651" on="1"/>
        <pt x="288" y="660" on="0"/>
        <pt x="228" y="660" on="0"/>
        <pt x="201" y="624" on="0"/>
        <pt x="201" y="579" on="1"/>
        <pt x="200" y="485" on="1"/>
        <pt x="366" y="485" on="1"/>
        <pt x="495" y="509" on="1"/>
        <pt x="483" y="260" on="1"/>
        <pt x="494" y="25" on="1"/>
        <pt x="360" y="0" on="1"/>
        <pt x="372" y="243" on="1"/>
        <pt x="364" y="403" on="1"/>
        <pt x="200" y="403" on="1"/>
        <pt x="199" y="260" on="1"/>
        <pt x="210" y="25" on="1"/>
        <pt x="75" y="0" on="1"/>
        <pt x="87" y="243" on="1"/>
        <pt x="83" y="403" on="1"/>
        <pt x="17" y="403" on="1"/>
        <pt x="28" y="485" on="1"/>
        <pt x="81" y="485" on="1"/>
        <pt x="80" y="560" on="1"/>
        <pt x="80" y="649" on="0"/>
        <pt x="190" y="774" on="0"/>
      </contour>
      <contour>
        <pt x="354" y="689" on="0"/>
        <pt x="406" y="742" on="0"/>
        <pt x="474" y="742" on="0"/>
        <pt x="510" y="705" on="0"/>
        <pt x="510" y="631" on="0"/>
        <pt x="459" y="578" on="0"/>
        <pt x="392" y="578" on="0"/>
        <pt x="354" y="622" on="0"/>
      </contour>
    </TTGlyph>
    <TTGlyph name="five" xMin="17" yMin="-11" xMax="458" yMax="644">
      <contour>
        <pt x="457" y="214" on="1"/>
        <pt x="457" y="121" on="0"/>
        <pt x="308" y="-11" on="0"/>
        <pt x="201" y="-11" on="1"/>
        <pt x="151" y="-11" on="0"/>
        <pt x="59" y="14" on="0"/>
        <pt x="38" y="26" on="1"/>
        <pt x="17" y="39" on="1"/>
        <pt x="59" y="156" on="1"/>
        <pt x="90" y="132" on="0"/>
        <pt x="183" y="92" on="0"/>
        <pt x="264" y="92" on="0"/>
        <pt x="328" y="143" on="0"/>
        <pt x="328" y="180" on="1"/>
        <pt x="328" y="271" on="0"/>
        <pt x="206" y="291" on="1"/>
        <pt x="73" y="313" on="1"/>
        <pt x="73" y="644" on="1"/>
        <pt x="245" y="632" on="1"/>
        <pt x="448" y="643" on="1"/>
        <pt x="426" y="505" on="1"/>
        <pt x="169" y="528" on="1"/>
        <pt x="169" y="411" on="1"/>
        <pt x="278" y="392" on="1"/>
        <pt x="362" y="377" on="0"/>
        <pt x="457" y="281" on="0"/>
      </contour>
    </TTGlyph>
    <TTGlyph name="fl" xMin="17" yMin="0" xMax="502" yMax="774">
      <contour>
        <pt x="367" y="646" on="1"/>
        <pt x="290" y="660" on="0"/>
        <pt x="228" y="660" on="0"/>
        <pt x="201" y="625" on="0"/>
        <pt x="201" y="579" on="1"/>
        <pt x="200" y="484" on="1"/>
        <pt x="308" y="484" on="1"/>
        <pt x="297" y="402" on="1"/>
        <pt x="200" y="402" on="1"/>
        <pt x="199" y="260" on="1"/>
        <pt x="210" y="25" on="1"/>
        <pt x="75" y="0" on="1"/>
        <pt x="87" y="243" on="1"/>
        <pt x="83" y="402" on="1"/>
        <pt x="17" y="402" on="1"/>
        <pt x="28" y="484" on="1"/>
        <pt x="81" y="484" on="1"/>
        <pt x="80" y="560" on="1"/>
        <pt x="80" y="650" on="0"/>
        <pt x="190" y="774" on="0"/>
        <pt x="273" y="774" on="1"/>
        <pt x="323" y="774" on="0"/>
        <pt x="410" y="757" on="1"/>
        <pt x="502" y="774" on="1"/>
        <pt x="489" y="260" on="1"/>
        <pt x="500" y="25" on="1"/>
        <pt x="365" y="0" on="1"/>
        <pt x="377" y="243" on="1"/>
      </contour>
    </TTGlyph>
    <TTGlyph name="foundryicon" xMin="100" yMin="-38" xMax="683" yMax="545">
      <contour>
        <pt x="265" y="342" on="1"/>
        <pt x="265" y="458" on="1"/>
        <pt x="191" y="458" on="1"/>
        <pt x="191" y="114" on="1"/>
        <pt x="265" y="114" on="1"/>
        <pt x="265" y="294" on="1"/>
        <pt x="265" y="306" on="0"/>
        <pt x="289" y="306" on="1"/>
        <pt x="332" y="306" on="0"/>
        <pt x="332" y="250" on="1"/>
        <pt x="332" y="114" on="1"/>
        <pt x="406" y="114" on="1"/>
        <pt x="406" y="292" on="1"/>
        <pt x="406" y="324" on="0"/>
        <pt x="362" y="365" on="0"/>
        <pt x="328" y="365" on="1"/>
        <pt x="273" y="333" on="0"/>
        <pt x="265" y="333" on="0"/>
      </contour>
      <contour>
        <pt x="435" y="323" on="1"/>
        <pt x="461" y="323" on="1"/>
        <pt x="471" y="323" on="0"/>
        <pt x="471" y="313" on="1"/>
        <pt x="471" y="181" on="1"/>
        <pt x="471" y="149" on="0"/>
        <pt x="515" y="108" on="0"/>
        <pt x="549" y="108" on="1"/>
        <pt x="612" y="145" on="1"/>
        <pt x="612" y="170" on="1"/>
        <pt x="600" y="166" on="0"/>
        <pt x="586" y="166" on="1"/>
        <pt x="545" y="166" on="0"/>
        <pt x="545" y="223" on="1"/>
        <pt x="545" y="313" on="1"/>
        <pt x="545" y="323" on="0"/>
        <pt x="555" y="323" on="1"/>
        <pt x="613" y="323" on="1"/>
        <pt x="613" y="359" on="1"/>
        <pt x="555" y="359" on="1"/>
        <pt x="545" y="359" on="0"/>
        <pt x="545" y="369" on="1"/>
        <pt x="545" y="397" on="1"/>
        <pt x="524" y="397" on="1"/>
        <pt x="435" y="341" on="1"/>
      </contour>
      <contour>
        <pt x="180" y="-38" on="1"/>
        <pt x="100" y="-38" on="0"/>
        <pt x="100" y="42" on="1"/>
        <pt x="100" y="465" on="1"/>
        <pt x="100" y="545" on="0"/>
        <pt x="180" y="545" on="1"/>
        <pt x="603" y="545" on="1"/>
        <pt x="683" y="545" on="0"/>
        <pt x="683" y="465" on="1"/>
        <pt x="683" y="42" on="1"/>
        <pt x="683" y="-38" on="0"/>
        <pt x="603" y="-38" on="1"/>
      </contour>
    </TTGlyph>
    <TTGlyph name="four" xMin="2" yMin="0" xMax="495" yMax="643">
      <contour>
        <pt x="10" y="248" on="1"/>
        <pt x="248" y="623" on="1"/>
        <pt x="413" y="643" on="1"/>
        <pt x="399" y="256" on="1"/>
        <pt x="495" y="260" on="1"/>
        <pt x="485" y="159" on="1"/>
        <pt x="405" y="161" on="1"/>
        <pt x="411" y="0" on="1"/>
        <pt x="271" y="0" on="1"/>
        <pt x="281" y="163" on="1"/>
        <pt x="2" y="162" on="1"/>
      </contour>
      <contour>
        <pt x="278" y="514" on="1"/>
        <pt x="119" y="257" on="1"/>
        <pt x="283" y="258" on="1"/>
      </contour>
    </TTGlyph>
    <TTGlyph name="g" xMin="23" yMin="-220" xMax="513" yMax="515">
      <contour>
        <pt x="23" y="-99" on="1"/>
        <pt x="23" y="-11" on="0"/>
        <pt x="187" y="39" on="1"/>
        <pt x="148" y="59" on="0"/>
        <pt x="148" y="91" on="1"/>
        <pt x="148" y="104" on="0"/>
        <pt x="168" y="130" on="0"/>
        <pt x="187" y="144" on="1"/>
        <pt x="187" y="152" on="1"/>
        <pt x="115" y="152" on="0"/>
        <pt x="30" y="232" on="0"/>
        <pt x="30" y="299" on="1"/>
        <pt x="30" y="386" on="0"/>
        <pt x="172" y="515" on="0"/>
        <pt x="269" y="515" on="1"/>
        <pt x="294" y="515" on="0"/>
        <pt x="390" y="495" on="0"/>
        <pt x="436" y="495" on="1"/>
        <pt x="513" y="495" on="1"/>
        <pt x="503" y="408" on="1"/>
        <pt x="428" y="417" on="1"/>
        <pt x="438" y="388" on="0"/>
        <pt x="438" y="314" on="0"/>
        <pt x="403" y="241" on="0"/>
        <pt x="354" y="197" on="0"/>
        <pt x="305" y="164" on="0"/>
        <pt x="270" y="139" on="0"/>
        <pt x="270" y="129" on="1"/>
        <pt x="270" y="110" on="0"/>
        <pt x="310" y="96" on="1"/>
        <pt x="416" y="53" on="0"/>
        <pt x="491" y="-7" on="0"/>
        <pt x="491" y="-51" on="1"/>
        <pt x="491" y="-125" on="0"/>
        <pt x="342" y="-220" on="0"/>
        <pt x="136" y="-220" on="0"/>
        <pt x="23" y="-154" on="0"/>
      </contour>
      <contour>
        <pt x="325" y="321" on="1"/>
        <pt x="325" y="370" on="0"/>
        <pt x="281" y="416" on="0"/>
        <pt x="234" y="416" on="1"/>
        <pt x="143" y="416" on="0"/>
        <pt x="143" y="237" on="0"/>
        <pt x="240" y="237" on="1"/>
        <pt x="325" y="237" on="0"/>
      </contour>
      <contour>
        <pt x="361" y="-66" on="1"/>
        <pt x="361" y="-48" on="0"/>
        <pt x="323" y="-17" on="0"/>
        <pt x="274" y="4" on="1"/>
        <pt x="201" y="-16" on="0"/>
        <pt x="146" y="-50" on="0"/>
        <pt x="146" y="-100" on="0"/>
        <pt x="201" y="-131" on="0"/>
        <pt x="299" y="-131" on="0"/>
        <pt x="361" y="-95" on="0"/>
      </contour>
    </TTGlyph>
    <TTGlyph name="germandbls" xMin="17" yMin="-11" xMax="607" yMax="774">
      <contour>
        <pt x="80" y="650" on="0"/>
        <pt x="215" y="774" on="0"/>
        <pt x="400" y="774" on="0"/>
        <pt x="506" y="687" on="0"/>
        <pt x="506" y="612" on="1"/>
        <pt x="506" y="575" on="0"/>
        <pt x="470" y="509" on="0"/>
        <pt x="448" y="489" on="1"/>
        <pt x="390" y="436" on="0"/>
        <pt x="390" y="396" on="1"/>
        <pt x="390" y="375" on="0"/>
        <pt x="435" y="340" on="0"/>
        <pt x="498" y="309" on="0"/>
        <pt x="562" y="271" on="0"/>
        <pt x="607" y="207" on="0"/>
        <pt x="607" y="165" on="1"/>
        <pt x="607" y="95" on="0"/>
        <pt x="492" y="-11" on="0"/>
        <pt x="417" y="-11" on="1"/>
        <pt x="369" y="-11" on="0"/>
        <pt x="286" y="31" on="0"/>
        <pt x="268" y="52" on="1"/>
        <pt x="250" y="73" on="1"/>
        <pt x="329" y="165" on="1"/>
        <pt x="335" y="157" on="0"/>
        <pt x="357" y="133" on="0"/>
        <pt x="422" y="93" on="0"/>
        <pt x="452" y="93" on="1"/>
        <pt x="504" y="93" on="0"/>
        <pt x="504" y="139" on="1"/>
        <pt x="504" y="157" on="0"/>
        <pt x="459" y="188" on="0"/>
        <pt x="396" y="219" on="0"/>
        <pt x="332" y="259" on="0"/>
        <pt x="287" y="327" on="0"/>
        <pt x="287" y="409" on="0"/>
        <pt x="323" y="475" on="0"/>
        <pt x="345" y="495" on="1"/>
        <pt x="403" y="548" on="0"/>
        <pt x="403" y="620" on="0"/>
        <pt x="341" y="660" on="0"/>
        <pt x="244" y="660" on="0"/>
        <pt x="201" y="623" on="0"/>
        <pt x="201" y="579" on="1"/>
        <pt x="199" y="260" on="1"/>
        <pt x="210" y="25" on="1"/>
        <pt x="75" y="0" on="1"/>
        <pt x="87" y="243" on="1"/>
        <pt x="83" y="402" on="1"/>
        <pt x="17" y="402" on="1"/>
        <pt x="28" y="484" on="1"/>
        <pt x="81" y="484" on="1"/>
        <pt x="80" y="560" on="1"/>
      </contour>
    </TTGlyph>
    <TTGlyph name="grave" xMin="39" yMin="575" xMax="279" yMax="725">
      <contour>
        <pt x="39" y="623" on="1"/>
        <pt x="50" y="725" on="1"/>
        <pt x="178" y="677" on="0"/>
        <pt x="279" y="647" on="1"/>
        <pt x="274" y="575" on="1"/>
      </contour>
    </TTGlyph>
    <TTGlyph name="greater" xMin="60" yMin="36" xMax="374" yMax="475">
      <contour>
        <pt x="374" y="259" on="1"/>
        <pt x="127" y="36" on="1"/>
        <pt x="68" y="103" on="1"/>
        <pt x="232" y="255" on="1"/>
        <pt x="60" y="404" on="1"/>
        <pt x="124" y="475" on="1"/>
      </contour>
    </TTGlyph>
    <TTGlyph name="guillemotleft" xMin="7" yMin="81" xMax="422" yMax="445">
      <contour>
        <pt x="127" y="265" on="1"/>
        <pt x="232" y="129" on="1"/>
        <pt x="174" y="81" on="1"/>
        <pt x="7" y="258" on="1"/>
        <pt x="174" y="445" on="1"/>
        <pt x="232" y="397" on="1"/>
      </contour>
      <contour>
        <pt x="317" y="265" on="1"/>
        <pt x="422" y="129" on="1"/>
        <pt x="364" y="81" on="1"/>
        <pt x="197" y="258" on="1"/>
        <pt x="364" y="445" on="1"/>
        <pt x="422" y="397" on="1"/>
      </contour>
    </TTGlyph>
    <TTGlyph name="guillemotright" xMin="15" yMin="81" xMax="430" yMax="445">
      <contour>
        <pt x="120" y="261" on="1"/>
        <pt x="15" y="397" on="1"/>
        <pt x="73" y="445" on="1"/>
        <pt x="240" y="268" on="1"/>
        <pt x="73" y="81" on="1"/>
        <pt x="15" y="129" on="1"/>
      </contour>
      <contour>
        <pt x="310" y="261" on="1"/>
        <pt x="205" y="397" on="1"/>
        <pt x="263" y="445" on="1"/>
        <pt x="430" y="268" on="1"/>
        <pt x="263" y="81" on="1"/>
        <pt x="205" y="129" on="1"/>
      </contour>
    </TTGlyph>
    <TTGlyph name="guilsinglleft" xMin="7" yMin="81" xMax="232" yMax="445">
      <contour>
        <pt x="127" y="265" on="1"/>
        <pt x="232" y="129" on="1"/>
        <pt x="174" y="81" on="1"/>
        <pt x="7" y="258" on="1"/>
        <pt x="174" y="445" on="1"/>
        <pt x="232" y="397" on="1"/>
      </contour>
    </TTGlyph>
    <TTGlyph name="guilsinglright" xMin="15" yMin="81" xMax="240" yMax="445">
      <contour>
        <pt x="120" y="261" on="1"/>
        <pt x="15" y="397" on="1"/>
        <pt x="73" y="445" on="1"/>
        <pt x="240" y="268" on="1"/>
        <pt x="73" y="81" on="1"/>
        <pt x="15" y="129" on="1"/>
      </contour>
    </TTGlyph>
    <TTGlyph name="h" xMin="58" yMin="-5" xMax="473" yMax="774">
      <contour>
        <pt x="350" y="322" on="0"/>
        <pt x="326" y="368" on="0"/>
        <pt x="238" y="368" on="0"/>
        <pt x="182" y="333" on="1"/>
        <pt x="182" y="260" on="1"/>
        <pt x="193" y="25" on="1"/>
        <pt x="58" y="0" on="1"/>
        <pt x="70" y="243" on="1"/>
        <pt x="58" y="749" on="1"/>
        <pt x="195" y="774" on="1"/>
        <pt x="182" y="515" on="1"/>
        <pt x="182" y="398" on="1"/>
        <pt x="197" y="418" on="0"/>
        <pt x="235" y="456" on="0"/>
        <pt x="315" y="504" on="0"/>
        <pt x="406" y="504" on="0"/>
        <pt x="468" y="433" on="0"/>
        <pt x="468" y="372" on="1"/>
        <pt x="462" y="260" on="1"/>
        <pt x="473" y="20" on="1"/>
        <pt x="338" y="-5" on="1"/>
        <pt x="350" y="253" on="1"/>
      </contour>
    </TTGlyph>
    <TTGlyph name="hbar" xMin="-8" yMin="-5" xMax="473" yMax="774">
      <contour>
        <pt x="235" y="456" on="0"/>
        <pt x="315" y="504" on="0"/>
        <pt x="406" y="504" on="0"/>
        <pt x="468" y="433" on="0"/>
        <pt x="468" y="372" on="1"/>
        <pt x="462" y="260" on="1"/>
        <pt x="473" y="20" on="1"/>
        <pt x="338" y="-5" on="1"/>
        <pt x="350" y="253" on="1"/>
        <pt x="350" y="322" on="0"/>
        <pt x="326" y="368" on="0"/>
        <pt x="238" y="368" on="0"/>
        <pt x="182" y="333" on="1"/>
        <pt x="182" y="260" on="1"/>
        <pt x="193" y="25" on="1"/>
        <pt x="58" y="0" on="1"/>
        <pt x="70" y="243" on="1"/>
        <pt x="62" y="574" on="1"/>
        <pt x="-8" y="574" on="1"/>
        <pt x="-3" y="621" on="1"/>
        <pt x="61" y="621" on="1"/>
        <pt x="58" y="749" on="1"/>
        <pt x="195" y="774" on="1"/>
        <pt x="187" y="621" on="1"/>
        <pt x="305" y="621" on="1"/>
        <pt x="301" y="574" on="1"/>
        <pt x="185" y="574" on="1"/>
        <pt x="182" y="515" on="1"/>
        <pt x="182" y="398" on="1"/>
        <pt x="197" y="418" on="0"/>
      </contour>
    </TTGlyph>
    <TTGlyph name="hyphen" xMin="13" yMin="194" xMax="257" yMax="327">
      <contour>
        <pt x="21" y="194" on="1"/>
        <pt x="13" y="285" on="1"/>
        <pt x="249" y="327" on="1"/>
        <pt x="257" y="236" on="1"/>
      </contour>
    </TTGlyph>
    <TTGlyph name="i" xMin="51" yMin="0" xMax="207" yMax="742">
      <contour>
        <pt x="192" y="509" on="1"/>
        <pt x="180" y="260" on="1"/>
        <pt x="191" y="25" on="1"/>
        <pt x="57" y="0" on="1"/>
        <pt x="69" y="243" on="1"/>
        <pt x="58" y="484" on="1"/>
      </contour>
      <contour>
        <pt x="51" y="689" on="0"/>
        <pt x="103" y="742" on="0"/>
        <pt x="171" y="742" on="0"/>
        <pt x="207" y="705" on="0"/>
        <pt x="207" y="631" on="0"/>
        <pt x="156" y="578" on="0"/>
        <pt x="89" y="578" on="0"/>
        <pt x="51" y="622" on="0"/>
      </contour>
    </TTGlyph>
    <TTGlyph name="iacute" xMin="5" yMin="0" xMax="245" yMax="725">
      <contour>
        <pt x="192" y="509" on="1"/>
        <pt x="180" y="260" on="1"/>
        <pt x="191" y="25" on="1"/>
        <pt x="57" y="0" on="1"/>
        <pt x="69" y="243" on="1"/>
        <pt x="58" y="484" on="1"/>
      </contour>
      <contour>
        <pt x="234" y="725" on="1"/>
        <pt x="245" y="623" on="1"/>
        <pt x="114" y="593" on="0"/>
        <pt x="10" y="575" on="1"/>
        <pt x="5" y="647" on="1"/>
        <pt x="90" y="672" on="0"/>
      </contour>
    </TTGlyph>
    <TTGlyph name="icircumflex" xMin="-21" yMin="0" xMax="269" yMax="713">
      <contour>
        <pt x="123" y="566" on="1"/>
        <pt x="-21" y="651" on="1"/>
        <pt x="-6" y="713" on="1"/>
        <pt x="123" y="666" on="1"/>
        <pt x="254" y="713" on="1"/>
        <pt x="269" y="651" on="1"/>
      </contour>
      <contour>
        <pt x="192" y="509" on="1"/>
        <pt x="180" y="260" on="1"/>
        <pt x="191" y="25" on="1"/>
        <pt x="57" y="0" on="1"/>
        <pt x="69" y="243" on="1"/>
        <pt x="58" y="484" on="1"/>
      </contour>
    </TTGlyph>
    <TTGlyph name="idieresis" xMin="-22" yMin="0" xMax="268" yMax="728">
      <contour>
        <pt x="192" y="509" on="1"/>
        <pt x="180" y="260" on="1"/>
        <pt x="191" y="25" on="1"/>
        <pt x="57" y="0" on="1"/>
        <pt x="69" y="243" on="1"/>
        <pt x="58" y="484" on="1"/>
      </contour>
      <contour>
        <pt x="-22" y="684" on="0"/>
        <pt x="20" y="728" on="0"/>
        <pt x="76" y="728" on="0"/>
        <pt x="106" y="697" on="0"/>
        <pt x="106" y="636" on="0"/>
        <pt x="64" y="592" on="0"/>
        <pt x="9" y="592" on="0"/>
        <pt x="-22" y="628" on="0"/>
      </contour>
      <contour>
        <pt x="140" y="684" on="0"/>
        <pt x="182" y="728" on="0"/>
        <pt x="210" y="728" on="1"/>
        <pt x="268" y="728" on="0"/>
        <pt x="268" y="670" on="1"/>
        <pt x="268" y="636" on="0"/>
        <pt x="227" y="592" on="0"/>
        <pt x="172" y="592" on="0"/>
        <pt x="140" y="628" on="0"/>
      </contour>
    </TTGlyph>
    <TTGlyph name="igrave" xMin="5" yMin="0" xMax="245" yMax="725">
      <contour>
        <pt x="192" y="509" on="1"/>
        <pt x="180" y="260" on="1"/>
        <pt x="191" y="25" on="1"/>
        <pt x="57" y="0" on="1"/>
        <pt x="69" y="243" on="1"/>
        <pt x="58" y="484" on="1"/>
      </contour>
      <contour>
        <pt x="5" y="623" on="1"/>
        <pt x="16" y="725" on="1"/>
        <pt x="144" y="677" on="0"/>
        <pt x="245" y="647" on="1"/>
        <pt x="240" y="575" on="1"/>
      </contour>
    </TTGlyph>
    <TTGlyph name="ij" xMin="51" yMin="-220" xMax="452" yMax="742">
      <contour>
        <pt x="192" y="509" on="1"/>
        <pt x="180" y="260" on="1"/>
        <pt x="191" y="25" on="1"/>
        <pt x="57" y="0" on="1"/>
        <pt x="69" y="243" on="1"/>
        <pt x="58" y="484" on="1"/>
      </contour>
      <contour>
        <pt x="51" y="689" on="0"/>
        <pt x="103" y="742" on="0"/>
        <pt x="171" y="742" on="0"/>
        <pt x="207" y="705" on="0"/>
        <pt x="207" y="631" on="0"/>
        <pt x="156" y="578" on="0"/>
        <pt x="89" y="578" on="0"/>
        <pt x="51" y="622" on="0"/>
      </contour>
      <contour>
        <pt x="247" y="-220" on="1"/>
        <pt x="206" y="-220" on="0"/>
        <pt x="165" y="-211" on="1"/>
        <pt x="196" y="-97" on="1"/>
        <pt x="230" y="-106" on="0"/>
        <pt x="289" y="-106" on="0"/>
        <pt x="315" y="-62" on="0"/>
        <pt x="315" y="-5" on="1"/>
        <pt x="314" y="243" on="1"/>
        <pt x="303" y="484" on="1"/>
        <pt x="437" y="509" on="1"/>
        <pt x="425" y="260" on="1"/>
        <pt x="436" y="34" on="1"/>
        <pt x="436" y="-70" on="0"/>
        <pt x="324" y="-220" on="0"/>
      </contour>
      <contour>
        <pt x="296" y="689" on="0"/>
        <pt x="348" y="742" on="0"/>
        <pt x="417" y="742" on="0"/>
        <pt x="452" y="705" on="0"/>
        <pt x="452" y="632" on="0"/>
        <pt x="402" y="578" on="0"/>
        <pt x="335" y="578" on="0"/>
        <pt x="296" y="620" on="0"/>
      </contour>
    </TTGlyph>
    <TTGlyph name="itilde" xMin="-43" yMin="0" xMax="289" yMax="703">
      <contour>
        <pt x="192" y="509" on="1"/>
        <pt x="180" y="260" on="1"/>
        <pt x="191" y="25" on="1"/>
        <pt x="57" y="0" on="1"/>
        <pt x="69" y="243" on="1"/>
        <pt x="58" y="484" on="1"/>
      </contour>
      <contour>
        <pt x="261" y="703" on="1"/>
        <pt x="289" y="660" on="1"/>
        <pt x="261" y="626" on="0"/>
        <pt x="200" y="574" on="0"/>
        <pt x="184" y="574" on="1"/>
        <pt x="169" y="576" on="0"/>
        <pt x="66" y="614" on="0"/>
        <pt x="51" y="616" on="1"/>
        <pt x="-15" y="574" on="1"/>
        <pt x="-43" y="617" on="1"/>
        <pt x="-15" y="651" on="0"/>
        <pt x="46" y="703" on="0"/>
        <pt x="62" y="703" on="1"/>
        <pt x="77" y="701" on="0"/>
        <pt x="180" y="663" on="0"/>
        <pt x="195" y="661" on="1"/>
      </contour>
    </TTGlyph>
    <TTGlyph name="j" xMin="-79" yMin="-220" xMax="208" yMax="742">
      <contour>
        <pt x="3" y="-220" on="1"/>
        <pt x="-38" y="-220" on="0"/>
        <pt x="-79" y="-211" on="1"/>
        <pt x="-48" y="-97" on="1"/>
        <pt x="-14" y="-106" on="0"/>
        <pt x="45" y="-106" on="0"/>
        <pt x="71" y="-62" on="0"/>
        <pt x="71" y="-5" on="1"/>
        <pt x="70" y="243" on="1"/>
        <pt x="59" y="484" on="1"/>
        <pt x="193" y="509" on="1"/>
        <pt x="181" y="260" on="1"/>
        <pt x="192" y="34" on="1"/>
        <pt x="192" y="-70" on="0"/>
        <pt x="80" y="-220" on="0"/>
      </contour>
      <contour>
        <pt x="52" y="689" on="0"/>
        <pt x="104" y="742" on="0"/>
        <pt x="173" y="742" on="0"/>
        <pt x="208" y="705" on="0"/>
        <pt x="208" y="632" on="0"/>
        <pt x="158" y="578" on="0"/>
        <pt x="91" y="578" on="0"/>
        <pt x="52" y="620" on="0"/>
      </contour>
    </TTGlyph>
    <TTGlyph name="jcircumflex" xMin="-79" yMin="-220" xMax="268" yMax="713">
      <contour>
        <pt x="3" y="-220" on="1"/>
        <pt x="-38" y="-220" on="0"/>
        <pt x="-79" y="-211" on="1"/>
        <pt x="-48" y="-97" on="1"/>
        <pt x="-14" y="-106" on="0"/>
        <pt x="45" y="-106" on="0"/>
        <pt x="71" y="-62" on="0"/>
        <pt x="71" y="-5" on="1"/>
        <pt x="70" y="243" on="1"/>
        <pt x="59" y="484" on="1"/>
        <pt x="193" y="509" on="1"/>
        <pt x="181" y="260" on="1"/>
        <pt x="192" y="34" on="1"/>
        <pt x="192" y="-70" on="0"/>
        <pt x="80" y="-220" on="0"/>
      </contour>
      <contour>
        <pt x="122" y="566" on="1"/>
        <pt x="-22" y="651" on="1"/>
        <pt x="-7" y="713" on="1"/>
        <pt x="122" y="666" on="1"/>
        <pt x="253" y="713" on="1"/>
        <pt x="268" y="651" on="1"/>
      </contour>
    </TTGlyph>
    <TTGlyph name="k" xMin="58" yMin="-10" xMax="484" yMax="774">
      <contour>
        <pt x="370" y="-10" on="1"/>
        <pt x="182" y="267" on="1"/>
        <pt x="182" y="260" on="1"/>
        <pt x="193" y="25" on="1"/>
        <pt x="58" y="0" on="1"/>
        <pt x="70" y="243" on="1"/>
        <pt x="58" y="749" on="1"/>
        <pt x="195" y="774" on="1"/>
        <pt x="182" y="291" on="1"/>
        <pt x="382" y="510" on="1"/>
        <pt x="476" y="446" on="1"/>
        <pt x="301" y="282" on="1"/>
        <pt x="484" y="66" on="1"/>
      </contour>
    </TTGlyph>
    <TTGlyph name="kcedilla" xMin="57" yMin="-220" xMax="484" yMax="774">
      <contour>
        <pt x="147" y="-125" on="1"/>
        <pt x="147" y="-94" on="0"/>
        <pt x="78" y="-85" on="1"/>
        <pt x="96" y="7" on="1"/>
        <pt x="58" y="0" on="1"/>
        <pt x="70" y="243" on="1"/>
        <pt x="58" y="749" on="1"/>
        <pt x="195" y="774" on="1"/>
        <pt x="182" y="291" on="1"/>
        <pt x="382" y="510" on="1"/>
        <pt x="476" y="446" on="1"/>
        <pt x="301" y="282" on="1"/>
        <pt x="484" y="66" on="1"/>
        <pt x="370" y="-10" on="1"/>
        <pt x="182" y="267" on="1"/>
        <pt x="182" y="260" on="1"/>
        <pt x="193" y="25" on="1"/>
        <pt x="161" y="19" on="1"/>
        <pt x="150" y="-40" on="1"/>
        <pt x="190" y="-50" on="0"/>
        <pt x="233" y="-89" on="0"/>
        <pt x="233" y="-115" on="1"/>
        <pt x="233" y="-152" on="0"/>
        <pt x="151" y="-212" on="0"/>
        <pt x="89" y="-220" on="1"/>
        <pt x="57" y="-176" on="1"/>
        <pt x="147" y="-160" on="0"/>
      </contour>
    </TTGlyph>
    <TTGlyph name="kgreenlandic" xMin="57" yMin="-10" xMax="484" yMax="510">
      <contour>
        <pt x="192" y="509" on="1"/>
        <pt x="181" y="290" on="1"/>
        <pt x="382" y="510" on="1"/>
        <pt x="476" y="446" on="1"/>
        <pt x="301" y="282" on="1"/>
        <pt x="484" y="66" on="1"/>
        <pt x="370" y="-10" on="1"/>
        <pt x="180" y="270" on="1"/>
        <pt x="180" y="260" on="1"/>
        <pt x="191" y="25" on="1"/>
        <pt x="57" y="0" on="1"/>
        <pt x="69" y="243" on="1"/>
        <pt x="58" y="484" on="1"/>
      </contour>
    </TTGlyph>
    <TTGlyph name="l" xMin="58" yMin="0" xMax="195" yMax="774">
      <contour>
        <pt x="195" y="774" on="1"/>
        <pt x="182" y="260" on="1"/>
        <pt x="193" y="25" on="1"/>
        <pt x="58" y="0" on="1"/>
        <pt x="70" y="243" on="1"/>
        <pt x="58" y="749" on="1"/>
      </contour>
    </TTGlyph>
    <TTGlyph name="ldot" xMin="58" yMin="0" xMax="367" yMax="774">
      <contour>
        <pt x="195" y="774" on="1"/>
        <pt x="182" y="260" on="1"/>
        <pt x="193" y="25" on="1"/>
        <pt x="58" y="0" on="1"/>
        <pt x="70" y="243" on="1"/>
        <pt x="58" y="749" on="1"/>
      </contour>
      <contour>
        <pt x="222" y="327" on="0"/>
        <pt x="269" y="376" on="0"/>
        <pt x="302" y="376" on="1"/>
        <pt x="367" y="376" on="0"/>
        <pt x="367" y="310" on="1"/>
        <pt x="367" y="272" on="0"/>
        <pt x="320" y="222" on="0"/>
        <pt x="257" y="222" on="0"/>
        <pt x="222" y="263" on="0"/>
      </contour>
    </TTGlyph>
    <TTGlyph name="less" xMin="21" yMin="36" xMax="335" yMax="475">
      <contour>
        <pt x="21" y="252" on="1"/>
        <pt x="268" y="475" on="1"/>
        <pt x="327" y="408" on="1"/>
        <pt x="163" y="256" on="1"/>
        <pt x="335" y="107" on="1"/>
        <pt x="271" y="36" on="1"/>
      </contour>
    </TTGlyph>
    <TTGlyph name="logicalnot" xMin="0" yMin="80" xMax="371" yMax="336">
      <contour>
        <pt x="371" y="336" on="1"/>
        <pt x="371" y="89" on="1"/>
        <pt x="271" y="80" on="1"/>
        <pt x="271" y="245" on="1"/>
        <pt x="0" y="245" on="1"/>
        <pt x="8" y="336" on="1"/>
      </contour>
    </TTGlyph>
    <TTGlyph name="lslash" xMin="-19" yMin="0" xMax="298" yMax="774">
      <contour>
        <pt x="205" y="774" on="1"/>
        <pt x="197" y="470" on="1"/>
        <pt x="278" y="515" on="1"/>
        <pt x="298" y="471" on="1"/>
        <pt x="196" y="414" on="1"/>
        <pt x="192" y="260" on="1"/>
        <pt x="203" y="25" on="1"/>
        <pt x="68" y="0" on="1"/>
        <pt x="80" y="243" on="1"/>
        <pt x="77" y="349" on="1"/>
        <pt x="-1" y="306" on="1"/>
        <pt x="-19" y="350" on="1"/>
        <pt x="76" y="403" on="1"/>
        <pt x="68" y="749" on="1"/>
      </contour>
    </TTGlyph>
    <TTGlyph name="m" xMin="47" yMin="-5" xMax="751" yMax="509">
      <contour>
        <pt x="348" y="322" on="0"/>
        <pt x="324" y="368" on="0"/>
        <pt x="236" y="368" on="0"/>
        <pt x="180" y="333" on="1"/>
        <pt x="180" y="260" on="1"/>
        <pt x="191" y="25" on="1"/>
        <pt x="57" y="0" on="1"/>
        <pt x="69" y="243" on="1"/>
        <pt x="65" y="377" on="0"/>
        <pt x="47" y="483" on="1"/>
        <pt x="168" y="509" on="1"/>
        <pt x="175" y="451" on="0"/>
        <pt x="178" y="396" on="1"/>
        <pt x="193" y="416" on="0"/>
        <pt x="231" y="455" on="0"/>
        <pt x="313" y="504" on="0"/>
        <pt x="397" y="504" on="0"/>
        <pt x="455" y="450" on="0"/>
        <pt x="463" y="403" on="1"/>
        <pt x="546" y="504" on="0"/>
        <pt x="631" y="504" on="1"/>
        <pt x="684" y="504" on="0"/>
        <pt x="746" y="433" on="0"/>
        <pt x="746" y="372" on="1"/>
        <pt x="740" y="260" on="1"/>
        <pt x="751" y="20" on="1"/>
        <pt x="616" y="-5" on="1"/>
        <pt x="628" y="253" on="1"/>
        <pt x="628" y="322" on="0"/>
        <pt x="604" y="368" on="0"/>
        <pt x="518" y="368" on="0"/>
        <pt x="464" y="335" on="1"/>
        <pt x="460" y="260" on="1"/>
        <pt x="471" y="20" on="1"/>
        <pt x="336" y="-5" on="1"/>
        <pt x="348" y="253" on="1"/>
      </contour>
    </TTGlyph>
    <TTGlyph name="macron" xMin="0" yMin="603" xMax="244" yMax="688">
      <contour>
        <pt x="0" y="603" on="1"/>
        <pt x="8" y="688" on="1"/>
        <pt x="244" y="688" on="1"/>
        <pt x="236" y="603" on="1"/>
      </contour>
    </TTGlyph>
    <TTGlyph name="mu" xMin="63" yMin="-213" xMax="489" yMax="509">
      <contour>
        <pt x="184" y="156" on="0"/>
        <pt x="216" y="122" on="0"/>
        <pt x="283" y="122" on="0"/>
        <pt x="343" y="156" on="1"/>
        <pt x="343" y="216" on="1"/>
        <pt x="332" y="479" on="1"/>
        <pt x="467" y="504" on="1"/>
        <pt x="455" y="254" on="1"/>
        <pt x="456" y="172" on="1"/>
        <pt x="456" y="108" on="0"/>
        <pt x="489" y="43" on="1"/>
        <pt x="385" y="-3" on="1"/>
        <pt x="352" y="62" on="0"/>
        <pt x="345" y="101" on="1"/>
        <pt x="330" y="84" on="0"/>
        <pt x="291" y="47" on="0"/>
        <pt x="211" y="0" on="0"/>
        <pt x="178" y="0" on="1"/>
        <pt x="188" y="-189" on="1"/>
        <pt x="66" y="-213" on="1"/>
        <pt x="74" y="244" on="1"/>
        <pt x="63" y="484" on="1"/>
        <pt x="197" y="509" on="1"/>
        <pt x="184" y="205" on="1"/>
      </contour>
    </TTGlyph>
    <TTGlyph name="multiply" xMin="41" yMin="83" xMax="383" yMax="438">
      <contour>
        <pt x="107" y="90" on="1"/>
        <pt x="48" y="160" on="1"/>
        <pt x="145" y="257" on="1"/>
        <pt x="41" y="361" on="1"/>
        <pt x="105" y="438" on="1"/>
        <pt x="215" y="327" on="1"/>
        <pt x="319" y="431" on="1"/>
        <pt x="378" y="361" on="1"/>
        <pt x="280" y="263" on="1"/>
        <pt x="383" y="160" on="1"/>
        <pt x="319" y="83" on="1"/>
        <pt x="209" y="192" on="1"/>
      </contour>
    </TTGlyph>
    <TTGlyph name="n" xMin="47" yMin="-5" xMax="471" yMax="509">
      <contour>
        <pt x="348" y="322" on="0"/>
        <pt x="324" y="368" on="0"/>
        <pt x="236" y="368" on="0"/>
        <pt x="180" y="333" on="1"/>
        <pt x="180" y="260" on="1"/>
        <pt x="191" y="25" on="1"/>
        <pt x="57" y="0" on="1"/>
        <pt x="69" y="243" on="1"/>
        <pt x="65" y="377" on="0"/>
        <pt x="47" y="483" on="1"/>
        <pt x="168" y="509" on="1"/>
        <pt x="175" y="451" on="0"/>
        <pt x="178" y="396" on="1"/>
        <pt x="193" y="416" on="0"/>
        <pt x="231" y="455" on="0"/>
        <pt x="313" y="504" on="0"/>
        <pt x="404" y="504" on="0"/>
        <pt x="466" y="433" on="0"/>
        <pt x="466" y="372" on="1"/>
        <pt x="460" y="260" on="1"/>
        <pt x="471" y="20" on="1"/>
        <pt x="336" y="-5" on="1"/>
        <pt x="348" y="253" on="1"/>
      </contour>
    </TTGlyph>
    <TTGlyph name="nacute" xMin="47" yMin="-5" xMax="471" yMax="725">
      <contour>
        <pt x="348" y="322" on="0"/>
        <pt x="324" y="368" on="0"/>
        <pt x="236" y="368" on="0"/>
        <pt x="180" y="333" on="1"/>
        <pt x="180" y="260" on="1"/>
        <pt x="191" y="25" on="1"/>
        <pt x="57" y="0" on="1"/>
        <pt x="69" y="243" on="1"/>
        <pt x="65" y="377" on="0"/>
        <pt x="47" y="483" on="1"/>
        <pt x="168" y="509" on="1"/>
        <pt x="175" y="451" on="0"/>
        <pt x="178" y="396" on="1"/>
        <pt x="193" y="416" on="0"/>
        <pt x="231" y="455" on="0"/>
        <pt x="313" y="504" on="0"/>
        <pt x="404" y="504" on="0"/>
        <pt x="466" y="433" on="0"/>
        <pt x="466" y="372" on="1"/>
        <pt x="460" y="260" on="1"/>
        <pt x="471" y="20" on="1"/>
        <pt x="336" y="-5" on="1"/>
        <pt x="348" y="253" on="1"/>
      </contour>
      <contour>
        <pt x="387" y="725" on="1"/>
        <pt x="398" y="623" on="1"/>
        <pt x="267" y="593" on="0"/>
        <pt x="163" y="575" on="1"/>
        <pt x="158" y="647" on="1"/>
        <pt x="244" y="672" on="0"/>
      </contour>
    </TTGlyph>
    <TTGlyph name="nine" xMin="20" yMin="-11" xMax="467" yMax="650">
      <contour>
        <pt x="323" y="282" on="1"/>
        <pt x="263" y="234" on="0"/>
        <pt x="117" y="234" on="0"/>
        <pt x="20" y="342" on="0"/>
        <pt x="20" y="520" on="0"/>
        <pt x="158" y="650" on="0"/>
        <pt x="351" y="650" on="0"/>
        <pt x="467" y="522" on="0"/>
        <pt x="467" y="314" on="0"/>
        <pt x="348" y="112" on="0"/>
        <pt x="220" y="-11" on="1"/>
        <pt x="81" y="48" on="1"/>
        <pt x="270" y="171" on="0"/>
      </contour>
      <contour>
        <pt x="233" y="337" on="1"/>
        <pt x="298" y="337" on="0"/>
        <pt x="348" y="372" on="1"/>
        <pt x="350" y="394" on="0"/>
        <pt x="350" y="406" on="1"/>
        <pt x="350" y="470" on="0"/>
        <pt x="288" y="547" on="0"/>
        <pt x="195" y="547" on="0"/>
        <pt x="141" y="491" on="0"/>
        <pt x="141" y="400" on="0"/>
        <pt x="193" y="337" on="0"/>
      </contour>
    </TTGlyph>
    <TTGlyph name="ntilde" xMin="47" yMin="-5" xMax="471" yMax="703">
      <contour>
        <pt x="348" y="322" on="0"/>
        <pt x="324" y="368" on="0"/>
        <pt x="236" y="368" on="0"/>
        <pt x="180" y="333" on="1"/>
        <pt x="180" y="260" on="1"/>
        <pt x="191" y="25" on="1"/>
        <pt x="57" y="0" on="1"/>
        <pt x="69" y="243" on="1"/>
        <pt x="65" y="377" on="0"/>
        <pt x="47" y="483" on="1"/>
        <pt x="168" y="509" on="1"/>
        <pt x="175" y="451" on="0"/>
        <pt x="178" y="396" on="1"/>
        <pt x="193" y="416" on="0"/>
        <pt x="231" y="455" on="0"/>
        <pt x="313" y="504" on="0"/>
        <pt x="404" y="504" on="0"/>
        <pt x="466" y="433" on="0"/>
        <pt x="466" y="372" on="1"/>
        <pt x="460" y="260" on="1"/>
        <pt x="471" y="20" on="1"/>
        <pt x="336" y="-5" on="1"/>
        <pt x="348" y="253" on="1"/>
      </contour>
      <contour>
        <pt x="414" y="703" on="1"/>
        <pt x="442" y="660" on="1"/>
        <pt x="414" y="626" on="0"/>
        <pt x="353" y="574" on="0"/>
        <pt x="337" y="574" on="1"/>
        <pt x="322" y="576" on="0"/>
        <pt x="219" y="614" on="0"/>
        <pt x="204" y="616" on="1"/>
        <pt x="138" y="574" on="1"/>
        <pt x="110" y="617" on="1"/>
        <pt x="138" y="651" on="0"/>
        <pt x="199" y="703" on="0"/>
        <pt x="215" y="703" on="1"/>
        <pt x="230" y="701" on="0"/>
        <pt x="333" y="663" on="0"/>
        <pt x="348" y="661" on="1"/>
      </contour>
    </TTGlyph>
    <TTGlyph name="numbersign" xMin="0" yMin="43" xMax="425" yMax="479">
      <contour>
        <pt x="28" y="301" on="1"/>
        <pt x="34" y="368" on="1"/>
        <pt x="117" y="368" on="1"/>
        <pt x="134" y="472" on="1"/>
        <pt x="209" y="479" on="1"/>
        <pt x="191" y="368" on="1"/>
        <pt x="268" y="368" on="1"/>
        <pt x="285" y="472" on="1"/>
        <pt x="359" y="479" on="1"/>
        <pt x="341" y="368" on="1"/>
        <pt x="425" y="368" on="1"/>
        <pt x="419" y="301" on="1"/>
        <pt x="330" y="301" on="1"/>
        <pt x="319" y="227" on="1"/>
        <pt x="397" y="227" on="1"/>
        <pt x="391" y="159" on="1"/>
        <pt x="308" y="159" on="1"/>
        <pt x="291" y="50" on="1"/>
        <pt x="216" y="43" on="1"/>
        <pt x="234" y="159" on="1"/>
        <pt x="158" y="159" on="1"/>
        <pt x="141" y="50" on="1"/>
        <pt x="66" y="43" on="1"/>
        <pt x="84" y="159" on="1"/>
        <pt x="0" y="159" on="1"/>
        <pt x="6" y="227" on="1"/>
        <pt x="95" y="227" on="1"/>
        <pt x="107" y="301" on="1"/>
      </contour>
      <contour>
        <pt x="180" y="301" on="1"/>
        <pt x="169" y="227" on="1"/>
        <pt x="245" y="227" on="1"/>
        <pt x="257" y="301" on="1"/>
      </contour>
    </TTGlyph>
    <TTGlyph name="o" xMin="28" yMin="-11" xMax="454" yMax="515">
      <contour>
        <pt x="28" y="337" on="0"/>
        <pt x="166" y="515" on="0"/>
        <pt x="351" y="515" on="0"/>
        <pt x="454" y="395" on="0"/>
        <pt x="454" y="296" on="1"/>
        <pt x="454" y="164" on="0"/>
        <pt x="321" y="-11" on="0"/>
        <pt x="220" y="-11" on="1"/>
        <pt x="137" y="-11" on="0"/>
        <pt x="28" y="114" on="0"/>
        <pt x="28" y="209" on="1"/>
      </contour>
      <contour>
        <pt x="342" y="244" on="1"/>
        <pt x="342" y="389" on="0"/>
        <pt x="243" y="389" on="1"/>
        <pt x="140" y="389" on="0"/>
        <pt x="140" y="253" on="1"/>
        <pt x="140" y="182" on="0"/>
        <pt x="198" y="102" on="0"/>
        <pt x="293" y="102" on="0"/>
        <pt x="342" y="175" on="0"/>
      </contour>
    </TTGlyph>
    <TTGlyph name="oacute" xMin="28" yMin="-11" xMax="454" yMax="725">
      <contour>
        <pt x="28" y="337" on="0"/>
        <pt x="166" y="515" on="0"/>
        <pt x="351" y="515" on="0"/>
        <pt x="454" y="395" on="0"/>
        <pt x="454" y="296" on="1"/>
        <pt x="454" y="164" on="0"/>
        <pt x="321" y="-11" on="0"/>
        <pt x="220" y="-11" on="1"/>
        <pt x="137" y="-11" on="0"/>
        <pt x="28" y="114" on="0"/>
        <pt x="28" y="209" on="1"/>
      </contour>
      <contour>
        <pt x="342" y="244" on="1"/>
        <pt x="342" y="389" on="0"/>
        <pt x="243" y="389" on="1"/>
        <pt x="140" y="389" on="0"/>
        <pt x="140" y="253" on="1"/>
        <pt x="140" y="182" on="0"/>
        <pt x="198" y="102" on="0"/>
        <pt x="293" y="102" on="0"/>
        <pt x="342" y="175" on="0"/>
      </contour>
      <contour>
        <pt x="355" y="725" on="1"/>
        <pt x="366" y="623" on="1"/>
        <pt x="235" y="593" on="0"/>
        <pt x="131" y="575" on="1"/>
        <pt x="126" y="647" on="1"/>
        <pt x="212" y="672" on="0"/>
      </contour>
    </TTGlyph>
    <TTGlyph name="ocircumflex" xMin="28" yMin="-11" xMax="454" yMax="713">
      <contour>
        <pt x="244" y="566" on="1"/>
        <pt x="100" y="651" on="1"/>
        <pt x="115" y="713" on="1"/>
        <pt x="244" y="666" on="1"/>
        <pt x="375" y="713" on="1"/>
        <pt x="390" y="651" on="1"/>
      </contour>
      <contour>
        <pt x="28" y="337" on="0"/>
        <pt x="166" y="515" on="0"/>
        <pt x="351" y="515" on="0"/>
        <pt x="454" y="395" on="0"/>
        <pt x="454" y="296" on="1"/>
        <pt x="454" y="164" on="0"/>
        <pt x="321" y="-11" on="0"/>
        <pt x="220" y="-11" on="1"/>
        <pt x="137" y="-11" on="0"/>
        <pt x="28" y="114" on="0"/>
        <pt x="28" y="209" on="1"/>
      </contour>
      <contour>
        <pt x="342" y="244" on="1"/>
        <pt x="342" y="389" on="0"/>
        <pt x="243" y="389" on="1"/>
        <pt x="140" y="389" on="0"/>
        <pt x="140" y="253" on="1"/>
        <pt x="140" y="182" on="0"/>
        <pt x="198" y="102" on="0"/>
        <pt x="293" y="102" on="0"/>
        <pt x="342" y="175" on="0"/>
      </contour>
    </TTGlyph>
    <TTGlyph name="odieresis" xMin="28" yMin="-11" xMax="454" yMax="728">
      <contour>
        <pt x="28" y="337" on="0"/>
        <pt x="166" y="515" on="0"/>
        <pt x="351" y="515" on="0"/>
        <pt x="454" y="395" on="0"/>
        <pt x="454" y="296" on="1"/>
        <pt x="454" y="164" on="0"/>
        <pt x="321" y="-11" on="0"/>
        <pt x="220" y="-11" on="1"/>
        <pt x="137" y="-11" on="0"/>
        <pt x="28" y="114" on="0"/>
        <pt x="28" y="209" on="1"/>
      </contour>
      <contour>
        <pt x="342" y="244" on="1"/>
        <pt x="342" y="389" on="0"/>
        <pt x="243" y="389" on="1"/>
        <pt x="140" y="389" on="0"/>
        <pt x="140" y="253" on="1"/>
        <pt x="140" y="182" on="0"/>
        <pt x="198" y="102" on="0"/>
        <pt x="293" y="102" on="0"/>
        <pt x="342" y="175" on="0"/>
      </contour>
      <contour>
        <pt x="99" y="684" on="0"/>
        <pt x="141" y="728" on="0"/>
        <pt x="197" y="728" on="0"/>
        <pt x="227" y="697" on="0"/>
        <pt x="227" y="636" on="0"/>
        <pt x="185" y="592" on="0"/>
        <pt x="130" y="592" on="0"/>
        <pt x="99" y="628" on="0"/>
      </contour>
      <contour>
        <pt x="261" y="684" on="0"/>
        <pt x="303" y="728" on="0"/>
        <pt x="332" y="728" on="1"/>
        <pt x="389" y="728" on="0"/>
        <pt x="389" y="670" on="1"/>
        <pt x="389" y="636" on="0"/>
        <pt x="348" y="592" on="0"/>
        <pt x="293" y="592" on="0"/>
        <pt x="261" y="628" on="0"/>
      </contour>
    </TTGlyph>
    <TTGlyph name="oe" xMin="28" yMin="-11" xMax="748" yMax="515">
      <contour>
        <pt x="569" y="102" on="1"/>
        <pt x="598" y="102" on="0"/>
        <pt x="662" y="132" on="0"/>
        <pt x="680" y="147" on="1"/>
        <pt x="698" y="162" on="1"/>
        <pt x="744" y="106" on="1"/>
        <pt x="734" y="89" on="0"/>
        <pt x="692" y="45" on="0"/>
        <pt x="649" y="14" on="0"/>
        <pt x="578" y="-11" on="0"/>
        <pt x="540" y="-11" on="1"/>
        <pt x="437" y="-11" on="0"/>
        <pt x="387" y="87" on="1"/>
        <pt x="323" y="-11" on="0"/>
        <pt x="220" y="-11" on="1"/>
        <pt x="137" y="-11" on="0"/>
        <pt x="28" y="114" on="0"/>
        <pt x="28" y="209" on="1"/>
        <pt x="28" y="337" on="0"/>
        <pt x="166" y="515" on="0"/>
        <pt x="265" y="515" on="1"/>
        <pt x="318" y="515" on="0"/>
        <pt x="400" y="460" on="0"/>
        <pt x="422" y="411" on="1"/>
        <pt x="493" y="515" on="0"/>
        <pt x="594" y="515" on="1"/>
        <pt x="667" y="515" on="0"/>
        <pt x="748" y="433" on="0"/>
        <pt x="748" y="359" on="1"/>
        <pt x="748" y="323" on="0"/>
        <pt x="733" y="259" on="1"/>
        <pt x="713" y="238" on="1"/>
        <pt x="463" y="216" on="1"/>
        <pt x="480" y="102" on="0"/>
      </contour>
      <contour>
        <pt x="243" y="389" on="1"/>
        <pt x="140" y="389" on="0"/>
        <pt x="140" y="253" on="1"/>
        <pt x="140" y="182" on="0"/>
        <pt x="198" y="102" on="0"/>
        <pt x="246" y="102" on="1"/>
        <pt x="342" y="102" on="0"/>
        <pt x="342" y="389" on="0"/>
      </contour>
      <contour>
        <pt x="569" y="412" on="1"/>
        <pt x="526" y="412" on="0"/>
        <pt x="466" y="341" on="0"/>
        <pt x="461" y="285" on="1"/>
        <pt x="630" y="307" on="1"/>
        <pt x="633" y="330" on="0"/>
        <pt x="633" y="345" on="1"/>
        <pt x="633" y="412" on="0"/>
      </contour>
    </TTGlyph>
    <TTGlyph name="ograve" xMin="28" yMin="-11" xMax="454" yMax="725">
      <contour>
        <pt x="28" y="337" on="0"/>
        <pt x="166" y="515" on="0"/>
        <pt x="351" y="515" on="0"/>
        <pt x="454" y="395" on="0"/>
        <pt x="454" y="296" on="1"/>
        <pt x="454" y="164" on="0"/>
        <pt x="321" y="-11" on="0"/>
        <pt x="220" y="-11" on="1"/>
        <pt x="137" y="-11" on="0"/>
        <pt x="28" y="114" on="0"/>
        <pt x="28" y="209" on="1"/>
      </contour>
      <contour>
        <pt x="342" y="244" on="1"/>
        <pt x="342" y="389" on="0"/>
        <pt x="243" y="389" on="1"/>
        <pt x="140" y="389" on="0"/>
        <pt x="140" y="253" on="1"/>
        <pt x="140" y="182" on="0"/>
        <pt x="198" y="102" on="0"/>
        <pt x="293" y="102" on="0"/>
        <pt x="342" y="175" on="0"/>
      </contour>
      <contour>
        <pt x="126" y="623" on="1"/>
        <pt x="137" y="725" on="1"/>
        <pt x="265" y="677" on="0"/>
        <pt x="366" y="647" on="1"/>
        <pt x="361" y="575" on="1"/>
      </contour>
    </TTGlyph>
    <TTGlyph name="one" xMin="6" yMin="0" xMax="285" yMax="650">
      <contour>
        <pt x="285" y="650" on="1"/>
        <pt x="270" y="260" on="1"/>
        <pt x="282" y="0" on="1"/>
        <pt x="142" y="0" on="1"/>
        <pt x="154" y="243" on="1"/>
        <pt x="146" y="492" on="1"/>
        <pt x="6" y="491" on="1"/>
        <pt x="6" y="556" on="1"/>
      </contour>
    </TTGlyph>
    <TTGlyph name="onehalf" xMin="9" yMin="-119" xMax="845" yMax="758">
      <contour>
        <pt x="223" y="703" on="1"/>
        <pt x="213" y="429" on="1"/>
        <pt x="221" y="246" on="1"/>
        <pt x="105" y="246" on="1"/>
        <pt x="113" y="418" on="1"/>
        <pt x="107" y="575" on="1"/>
        <pt x="9" y="574" on="1"/>
        <pt x="9" y="634" on="1"/>
      </contour>
      <contour>
        <pt x="704" y="322" on="1"/>
        <pt x="704" y="338" on="0"/>
        <pt x="687" y="350" on="0"/>
        <pt x="638" y="350" on="0"/>
        <pt x="570" y="328" on="0"/>
        <pt x="530" y="305" on="1"/>
        <pt x="524" y="305" on="1"/>
        <pt x="515" y="311" on="1"/>
        <pt x="534" y="411" on="1"/>
        <pt x="537" y="415" on="1"/>
        <pt x="613" y="453" on="0"/>
        <pt x="740" y="453" on="0"/>
        <pt x="818" y="390" on="0"/>
        <pt x="818" y="338" on="1"/>
        <pt x="818" y="271" on="0"/>
        <pt x="745" y="196" on="1"/>
        <pt x="640" y="93" on="1"/>
        <pt x="845" y="104" on="1"/>
        <pt x="831" y="-4" on="1"/>
        <pt x="676" y="2" on="1"/>
        <pt x="500" y="-3" on="1"/>
        <pt x="514" y="81" on="1"/>
        <pt x="663" y="245" on="1"/>
        <pt x="704" y="289" on="0"/>
      </contour>
      <contour>
        <pt x="225" y="-119" on="1"/>
        <pt x="146" y="-87" on="1"/>
        <pt x="567" y="758" on="1"/>
        <pt x="646" y="726" on="1"/>
      </contour>
    </TTGlyph>
    <TTGlyph name="onequarter" xMin="9" yMin="-119" xMax="823" yMax="758">
      <contour>
        <pt x="223" y="703" on="1"/>
        <pt x="213" y="429" on="1"/>
        <pt x="221" y="246" on="1"/>
        <pt x="105" y="246" on="1"/>
        <pt x="113" y="418" on="1"/>
        <pt x="107" y="575" on="1"/>
        <pt x="9" y="574" on="1"/>
        <pt x="9" y="634" on="1"/>
      </contour>
      <contour>
        <pt x="464" y="178" on="1"/>
        <pt x="635" y="435" on="1"/>
        <pt x="765" y="451" on="1"/>
        <pt x="754" y="189" on="1"/>
        <pt x="823" y="192" on="1"/>
        <pt x="815" y="106" on="1"/>
        <pt x="759" y="108" on="1"/>
        <pt x="763" y="0" on="1"/>
        <pt x="647" y="0" on="1"/>
        <pt x="654" y="109" on="1"/>
        <pt x="457" y="108" on="1"/>
      </contour>
      <contour>
        <pt x="652" y="324" on="1"/>
        <pt x="566" y="190" on="1"/>
        <pt x="655" y="191" on="1"/>
      </contour>
      <contour>
        <pt x="225" y="-119" on="1"/>
        <pt x="146" y="-87" on="1"/>
        <pt x="567" y="758" on="1"/>
        <pt x="646" y="726" on="1"/>
      </contour>
    </TTGlyph>
    <TTGlyph name="onesuperior" xMin="6" yMin="321" xMax="220" yMax="778">
      <contour>
        <pt x="220" y="778" on="1"/>
        <pt x="210" y="504" on="1"/>
        <pt x="218" y="321" on="1"/>
        <pt x="102" y="321" on="1"/>
        <pt x="110" y="493" on="1"/>
        <pt x="104" y="650" on="1"/>
        <pt x="6" y="649" on="1"/>
        <pt x="6" y="709" on="1"/>
      </contour>
    </TTGlyph>
    <TTGlyph name="ordfeminine" xMin="16" yMin="313" xMax="331" yMax="678">
      <contour>
        <pt x="72" y="316" on="0"/>
        <pt x="16" y="369" on="0"/>
        <pt x="16" y="460" on="0"/>
        <pt x="103" y="526" on="0"/>
        <pt x="166" y="526" on="1"/>
        <pt x="213" y="526" on="1"/>
        <pt x="213" y="535" on="1"/>
        <pt x="213" y="568" on="0"/>
        <pt x="185" y="591" on="0"/>
        <pt x="157" y="591" on="1"/>
        <pt x="113" y="591" on="0"/>
        <pt x="51" y="563" on="1"/>
        <pt x="28" y="624" on="1"/>
        <pt x="116" y="678" on="0"/>
        <pt x="185" y="678" on="1"/>
        <pt x="304" y="678" on="0"/>
        <pt x="304" y="570" on="1"/>
        <pt x="304" y="435" on="1"/>
        <pt x="304" y="395" on="0"/>
        <pt x="331" y="346" on="1"/>
        <pt x="247" y="313" on="1"/>
        <pt x="230" y="344" on="0"/>
        <pt x="220" y="371" on="1"/>
        <pt x="179" y="316" on="0"/>
        <pt x="118" y="316" on="1"/>
      </contour>
      <contour>
        <pt x="109" y="416" on="0"/>
        <pt x="132" y="392" on="0"/>
        <pt x="176" y="392" on="0"/>
        <pt x="213" y="420" on="1"/>
        <pt x="213" y="462" on="1"/>
        <pt x="173" y="469" on="0"/>
        <pt x="153" y="469" on="1"/>
        <pt x="109" y="469" on="0"/>
        <pt x="109" y="434" on="1"/>
      </contour>
    </TTGlyph>
    <TTGlyph name="ordmasculine" xMin="19" yMin="308" xMax="340" yMax="678">
      <contour>
        <pt x="19" y="553" on="0"/>
        <pt x="123" y="678" on="0"/>
        <pt x="263" y="678" on="0"/>
        <pt x="340" y="595" on="0"/>
        <pt x="340" y="524" on="1"/>
        <pt x="340" y="431" on="0"/>
        <pt x="240" y="308" on="0"/>
        <pt x="101" y="308" on="0"/>
        <pt x="19" y="396" on="0"/>
        <pt x="19" y="463" on="1"/>
      </contour>
      <contour>
        <pt x="181" y="585" on="1"/>
        <pt x="108" y="585" on="0"/>
        <pt x="108" y="494" on="1"/>
        <pt x="108" y="447" on="0"/>
        <pt x="149" y="392" on="0"/>
        <pt x="183" y="392" on="1"/>
        <pt x="251" y="392" on="0"/>
        <pt x="251" y="585" on="0"/>
      </contour>
    </TTGlyph>
    <TTGlyph name="oslash" xMin="28" yMin="-99" xMax="457" yMax="611">
      <contour>
        <pt x="265" y="515" on="1"/>
        <pt x="311" y="515" on="0"/>
        <pt x="349" y="496" on="1"/>
        <pt x="413" y="611" on="1"/>
        <pt x="457" y="593" on="1"/>
        <pt x="388" y="469" on="1"/>
        <pt x="454" y="409" on="0"/>
        <pt x="454" y="164" on="0"/>
        <pt x="321" y="-11" on="0"/>
        <pt x="220" y="-11" on="1"/>
        <pt x="176" y="-11" on="0"/>
        <pt x="134" y="10" on="1"/>
        <pt x="74" y="-99" on="1"/>
        <pt x="31" y="-80" on="1"/>
        <pt x="96" y="37" on="1"/>
        <pt x="28" y="102" on="0"/>
        <pt x="28" y="209" on="1"/>
        <pt x="28" y="337" on="0"/>
        <pt x="166" y="515" on="0"/>
      </contour>
      <contour>
        <pt x="293" y="102" on="0"/>
        <pt x="342" y="175" on="0"/>
        <pt x="342" y="312" on="0"/>
        <pt x="321" y="348" on="1"/>
        <pt x="194" y="117" on="1"/>
        <pt x="216" y="102" on="0"/>
      </contour>
      <contour>
        <pt x="140" y="253" on="1"/>
        <pt x="140" y="192" on="0"/>
        <pt x="161" y="155" on="1"/>
        <pt x="286" y="381" on="1"/>
        <pt x="267" y="389" on="0"/>
        <pt x="243" y="389" on="1"/>
        <pt x="140" y="389" on="0"/>
      </contour>
    </TTGlyph>
    <TTGlyph name="otilde" xMin="28" yMin="-11" xMax="454" yMax="703">
      <contour>
        <pt x="28" y="337" on="0"/>
        <pt x="166" y="515" on="0"/>
        <pt x="351" y="515" on="0"/>
        <pt x="454" y="395" on="0"/>
        <pt x="454" y="296" on="1"/>
        <pt x="454" y="164" on="0"/>
        <pt x="321" y="-11" on="0"/>
        <pt x="220" y="-11" on="1"/>
        <pt x="137" y="-11" on="0"/>
        <pt x="28" y="114" on="0"/>
        <pt x="28" y="209" on="1"/>
      </contour>
      <contour>
        <pt x="342" y="244" on="1"/>
        <pt x="342" y="389" on="0"/>
        <pt x="243" y="389" on="1"/>
        <pt x="140" y="389" on="0"/>
        <pt x="140" y="253" on="1"/>
        <pt x="140" y="182" on="0"/>
        <pt x="198" y="102" on="0"/>
        <pt x="293" y="102" on="0"/>
        <pt x="342" y="175" on="0"/>
      </contour>
      <contour>
        <pt x="382" y="703" on="1"/>
        <pt x="410" y="660" on="1"/>
        <pt x="382" y="626" on="0"/>
        <pt x="321" y="574" on="0"/>
        <pt x="305" y="574" on="1"/>
        <pt x="290" y="576" on="0"/>
        <pt x="187" y="614" on="0"/>
        <pt x="172" y="616" on="1"/>
        <pt x="106" y="574" on="1"/>
        <pt x="78" y="617" on="1"/>
        <pt x="106" y="651" on="0"/>
        <pt x="167" y="703" on="0"/>
        <pt x="183" y="703" on="1"/>
        <pt x="198" y="701" on="0"/>
        <pt x="301" y="663" on="0"/>
        <pt x="316" y="661" on="1"/>
      </contour>
    </TTGlyph>
    <TTGlyph name="p" xMin="50" yMin="-213" xMax="476" yMax="509">
      <contour>
        <pt x="325" y="505" on="1"/>
        <pt x="389" y="505" on="0"/>
        <pt x="476" y="393" on="0"/>
        <pt x="476" y="298" on="1"/>
        <pt x="476" y="165" on="0"/>
        <pt x="339" y="0" on="0"/>
        <pt x="237" y="0" on="1"/>
        <pt x="216" y="0" on="0"/>
        <pt x="190" y="3" on="1"/>
        <pt x="195" y="-188" on="1"/>
        <pt x="58" y="-213" on="1"/>
        <pt x="71" y="243" on="1"/>
        <pt x="72" y="243" on="1"/>
        <pt x="68" y="377" on="0"/>
        <pt x="50" y="483" on="1"/>
        <pt x="171" y="509" on="1"/>
        <pt x="177" y="456" on="0"/>
        <pt x="181" y="404" on="1"/>
        <pt x="183" y="409" on="0"/>
        <pt x="220" y="454" on="0"/>
        <pt x="292" y="505" on="0"/>
      </contour>
      <contour>
        <pt x="286" y="375" on="1"/>
        <pt x="233" y="375" on="0"/>
        <pt x="183" y="346" on="1"/>
        <pt x="183" y="260" on="1"/>
        <pt x="187" y="117" on="1"/>
        <pt x="241" y="108" on="0"/>
        <pt x="269" y="108" on="1"/>
        <pt x="365" y="108" on="0"/>
        <pt x="365" y="375" on="0"/>
      </contour>
    </TTGlyph>
    <TTGlyph name="paragraph" xMin="7" yMin="-10" xMax="446" yMax="695">
      <contour>
        <pt x="151" y="256" on="0"/>
        <pt x="7" y="391" on="0"/>
        <pt x="7" y="581" on="0"/>
        <pt x="121" y="690" on="0"/>
        <pt x="217" y="690" on="1"/>
        <pt x="242" y="690" on="1"/>
        <pt x="255" y="256" on="1"/>
      </contour>
      <contour>
        <pt x="243" y="-10" on="1"/>
        <pt x="202" y="-10" on="0"/>
        <pt x="161" y="-1" on="1"/>
        <pt x="193" y="119" on="1"/>
        <pt x="226" y="108" on="0"/>
        <pt x="256" y="108" on="1"/>
        <pt x="318" y="108" on="0"/>
        <pt x="318" y="209" on="1"/>
        <pt x="304" y="670" on="1"/>
        <pt x="446" y="695" on="1"/>
        <pt x="432" y="244" on="1"/>
        <pt x="432" y="135" on="0"/>
        <pt x="326" y="-10" on="0"/>
      </contour>
    </TTGlyph>
    <TTGlyph name="parenleft" xMin="67" yMin="-144" xMax="283" yMax="741">
      <contour>
        <pt x="147" y="-101" on="0"/>
        <pt x="67" y="86" on="0"/>
        <pt x="67" y="493" on="0"/>
        <pt x="147" y="689" on="0"/>
        <pt x="253" y="741" on="1"/>
        <pt x="283" y="693" on="1"/>
        <pt x="213" y="648" on="0"/>
        <pt x="162" y="484" on="0"/>
        <pt x="162" y="117" on="0"/>
        <pt x="212" y="-52" on="0"/>
        <pt x="283" y="-96" on="1"/>
        <pt x="253" y="-144" on="1"/>
      </contour>
    </TTGlyph>
    <TTGlyph name="parenright" xMin="-5" yMin="-144" xMax="211" yMax="741">
      <contour>
        <pt x="131" y="698" on="0"/>
        <pt x="211" y="511" on="0"/>
        <pt x="211" y="104" on="0"/>
        <pt x="131" y="-92" on="0"/>
        <pt x="25" y="-144" on="1"/>
        <pt x="-5" y="-96" on="1"/>
        <pt x="65" y="-51" on="0"/>
        <pt x="116" y="113" on="0"/>
        <pt x="116" y="480" on="0"/>
        <pt x="66" y="649" on="0"/>
        <pt x="-5" y="693" on="1"/>
        <pt x="25" y="741" on="1"/>
      </contour>
    </TTGlyph>
    <TTGlyph name="percent" xMin="27" yMin="-119" xMax="948" yMax="758">
      <contour>
        <pt x="231" y="695" on="1"/>
        <pt x="304" y="695" on="0"/>
        <pt x="395" y="582" on="0"/>
        <pt x="395" y="491" on="1"/>
        <pt x="395" y="376" on="0"/>
        <pt x="286" y="243" on="0"/>
        <pt x="191" y="243" on="1"/>
        <pt x="119" y="243" on="0"/>
        <pt x="27" y="357" on="0"/>
        <pt x="27" y="555" on="0"/>
        <pt x="142" y="695" on="0"/>
      </contour>
      <contour>
        <pt x="257" y="319" on="0"/>
        <pt x="289" y="380" on="0"/>
        <pt x="289" y="545" on="0"/>
        <pt x="256" y="608" on="0"/>
        <pt x="169" y="608" on="0"/>
        <pt x="133" y="550" on="0"/>
        <pt x="133" y="394" on="0"/>
        <pt x="172" y="319" on="0"/>
      </contour>
      <contour>
        <pt x="784" y="449" on="1"/>
        <pt x="857" y="449" on="0"/>
        <pt x="948" y="336" on="0"/>
        <pt x="948" y="245" on="1"/>
        <pt x="948" y="130" on="0"/>
        <pt x="839" y="-3" on="0"/>
        <pt x="744" y="-3" on="1"/>
        <pt x="672" y="-3" on="0"/>
        <pt x="580" y="111" on="0"/>
        <pt x="580" y="309" on="0"/>
        <pt x="695" y="449" on="0"/>
      </contour>
      <contour>
        <pt x="810" y="73" on="0"/>
        <pt x="842" y="134" on="0"/>
        <pt x="842" y="299" on="0"/>
        <pt x="809" y="362" on="0"/>
        <pt x="722" y="362" on="0"/>
        <pt x="686" y="304" on="0"/>
        <pt x="686" y="148" on="0"/>
        <pt x="725" y="73" on="0"/>
      </contour>
      <contour>
        <pt x="306" y="-119" on="1"/>
        <pt x="227" y="-87" on="1"/>
        <pt x="648" y="758" on="1"/>
        <pt x="727" y="726" on="1"/>
      </contour>
    </TTGlyph>
    <TTGlyph name="period" xMin="30" yMin="-6" xMax="175" yMax="148">
      <contour>
        <pt x="30" y="99" on="0"/>
        <pt x="77" y="148" on="0"/>
        <pt x="110" y="148" on="1"/>
        <pt x="175" y="148" on="0"/>
        <pt x="175" y="82" on="1"/>
        <pt x="175" y="44" on="0"/>
        <pt x="128" y="-6" on="0"/>
        <pt x="65" y="-6" on="0"/>
        <pt x="30" y="35" on="0"/>
      </contour>
    </TTGlyph>
    <TTGlyph name="periodcentered" xMin="30" yMin="182" xMax="175" yMax="336">
      <contour>
        <pt x="30" y="287" on="0"/>
        <pt x="77" y="336" on="0"/>
        <pt x="110" y="336" on="1"/>
        <pt x="175" y="336" on="0"/>
        <pt x="175" y="270" on="1"/>
        <pt x="175" y="232" on="0"/>
        <pt x="128" y="182" on="0"/>
        <pt x="65" y="182" on="0"/>
        <pt x="30" y="223" on="0"/>
      </contour>
    </TTGlyph>
    <TTGlyph name="plus" xMin="17" yMin="60" xMax="408" yMax="462">
      <contour>
        <pt x="162" y="306" on="1"/>
        <pt x="162" y="453" on="1"/>
        <pt x="262" y="462" on="1"/>
        <pt x="262" y="306" on="1"/>
        <pt x="408" y="306" on="1"/>
        <pt x="400" y="215" on="1"/>
        <pt x="262" y="215" on="1"/>
        <pt x="262" y="69" on="1"/>
        <pt x="162" y="60" on="1"/>
        <pt x="162" y="215" on="1"/>
        <pt x="17" y="215" on="1"/>
        <pt x="25" y="306" on="1"/>
      </contour>
    </TTGlyph>
    <TTGlyph name="plusminus" xMin="17" yMin="-91" xMax="408" yMax="462">
      <contour>
        <pt x="162" y="306" on="1"/>
        <pt x="162" y="453" on="1"/>
        <pt x="262" y="462" on="1"/>
        <pt x="262" y="306" on="1"/>
        <pt x="408" y="306" on="1"/>
        <pt x="400" y="215" on="1"/>
        <pt x="262" y="215" on="1"/>
        <pt x="262" y="69" on="1"/>
        <pt x="162" y="60" on="1"/>
        <pt x="162" y="215" on="1"/>
        <pt x="17" y="215" on="1"/>
        <pt x="25" y="306" on="1"/>
      </contour>
      <contour>
        <pt x="17" y="-91" on="1"/>
        <pt x="25" y="0" on="1"/>
        <pt x="408" y="0" on="1"/>
        <pt x="400" y="-91" on="1"/>
      </contour>
    </TTGlyph>
    <TTGlyph name="q" xMin="25" yMin="-213" xMax="445" yMax="515">
      <contour>
        <pt x="321" y="96" on="1"/>
        <pt x="247" y="0" on="0"/>
        <pt x="119" y="0" on="0"/>
        <pt x="25" y="112" on="0"/>
        <pt x="25" y="207" on="1"/>
        <pt x="25" y="332" on="0"/>
        <pt x="164" y="504" on="0"/>
        <pt x="265" y="504" on="1"/>
        <pt x="360" y="491" on="1"/>
        <pt x="445" y="515" on="1"/>
        <pt x="433" y="260" on="1"/>
        <pt x="445" y="-188" on="1"/>
        <pt x="308" y="-213" on="1"/>
        <pt x="321" y="-11" on="1"/>
      </contour>
      <contour>
        <pt x="137" y="263" on="1"/>
        <pt x="137" y="123" on="0"/>
        <pt x="228" y="123" on="1"/>
        <pt x="273" y="123" on="0"/>
        <pt x="321" y="159" on="1"/>
        <pt x="321" y="243" on="1"/>
        <pt x="314" y="377" on="1"/>
        <pt x="252" y="387" on="0"/>
        <pt x="232" y="387" on="1"/>
        <pt x="188" y="387" on="0"/>
        <pt x="137" y="326" on="0"/>
      </contour>
    </TTGlyph>
    <TTGlyph name="question" xMin="0" yMin="-6" xMax="354" yMax="700">
      <contour>
        <pt x="78" y="99" on="0"/>
        <pt x="126" y="148" on="0"/>
        <pt x="190" y="148" on="0"/>
        <pt x="223" y="113" on="0"/>
        <pt x="223" y="45" on="0"/>
        <pt x="177" y="-6" on="0"/>
        <pt x="114" y="-6" on="0"/>
        <pt x="78" y="32" on="0"/>
      </contour>
      <contour>
        <pt x="220" y="478" on="1"/>
        <pt x="220" y="583" on="0"/>
        <pt x="0" y="588" on="1"/>
        <pt x="50" y="700" on="1"/>
        <pt x="198" y="687" on="0"/>
        <pt x="354" y="587" on="0"/>
        <pt x="354" y="504" on="1"/>
        <pt x="354" y="389" on="0"/>
        <pt x="165" y="247" on="1"/>
        <pt x="88" y="316" on="1"/>
        <pt x="220" y="401" on="0"/>
      </contour>
    </TTGlyph>
    <TTGlyph name="questiondown" xMin="0" yMin="-191" xMax="354" yMax="515">
      <contour>
        <pt x="276" y="410" on="0"/>
        <pt x="228" y="361" on="0"/>
        <pt x="164" y="361" on="0"/>
        <pt x="131" y="396" on="0"/>
        <pt x="131" y="464" on="0"/>
        <pt x="177" y="515" on="0"/>
        <pt x="240" y="515" on="0"/>
        <pt x="276" y="477" on="0"/>
      </contour>
      <contour>
        <pt x="134" y="31" on="1"/>
        <pt x="134" y="-74" on="0"/>
        <pt x="354" y="-79" on="1"/>
        <pt x="304" y="-191" on="1"/>
        <pt x="156" y="-178" on="0"/>
        <pt x="0" y="-78" on="0"/>
        <pt x="0" y="5" on="1"/>
        <pt x="0" y="119" on="0"/>
        <pt x="189" y="262" on="1"/>
        <pt x="266" y="193" on="1"/>
        <pt x="134" y="108" on="0"/>
      </contour>
    </TTGlyph>
    <TTGlyph name="quotedbl" xMin="46" yMin="390" xMax="321" yMax="634">
      <contour>
        <pt x="57" y="624" on="1"/>
        <pt x="166" y="634" on="1"/>
        <pt x="144" y="500" on="0"/>
        <pt x="103" y="390" on="1"/>
        <pt x="46" y="393" on="1"/>
        <pt x="57" y="519" on="0"/>
      </contour>
      <contour>
        <pt x="212" y="624" on="1"/>
        <pt x="321" y="634" on="1"/>
        <pt x="299" y="500" on="0"/>
        <pt x="258" y="390" on="1"/>
        <pt x="201" y="393" on="1"/>
        <pt x="212" y="519" on="0"/>
      </contour>
    </TTGlyph>
    <TTGlyph name="quotedblbase" xMin="0" yMin="-113" xMax="335" yMax="154">
      <contour>
        <pt x="165" y="67" on="1"/>
        <pt x="165" y="-18" on="0"/>
        <pt x="41" y="-113" on="1"/>
        <pt x="0" y="-83" on="1"/>
        <pt x="59" y="-14" on="0"/>
        <pt x="59" y="36" on="1"/>
        <pt x="59" y="67" on="0"/>
        <pt x="33" y="115" on="1"/>
        <pt x="131" y="154" on="1"/>
        <pt x="165" y="111" on="0"/>
      </contour>
      <contour>
        <pt x="335" y="67" on="1"/>
        <pt x="335" y="-18" on="0"/>
        <pt x="211" y="-113" on="1"/>
        <pt x="170" y="-83" on="1"/>
        <pt x="229" y="-14" on="0"/>
        <pt x="229" y="36" on="1"/>
        <pt x="229" y="67" on="0"/>
        <pt x="203" y="115" on="1"/>
        <pt x="301" y="154" on="1"/>
        <pt x="335" y="111" on="0"/>
      </contour>
    </TTGlyph>
    <TTGlyph name="quotedblleft" xMin="18" yMin="377" xMax="353" yMax="644">
      <contour>
        <pt x="18" y="464" on="1"/>
        <pt x="18" y="549" on="0"/>
        <pt x="142" y="644" on="1"/>
        <pt x="183" y="614" on="1"/>
        <pt x="124" y="545" on="0"/>
        <pt x="124" y="495" on="1"/>
        <pt x="124" y="464" on="0"/>
        <pt x="150" y="416" on="1"/>
        <pt x="52" y="377" on="1"/>
        <pt x="18" y="420" on="0"/>
      </contour>
      <contour>
        <pt x="188" y="464" on="1"/>
        <pt x="188" y="549" on="0"/>
        <pt x="312" y="644" on="1"/>
        <pt x="353" y="614" on="1"/>
        <pt x="294" y="545" on="0"/>
        <pt x="294" y="495" on="1"/>
        <pt x="294" y="464" on="0"/>
        <pt x="320" y="416" on="1"/>
        <pt x="222" y="377" on="1"/>
        <pt x="188" y="420" on="0"/>
      </contour>
    </TTGlyph>
    <TTGlyph name="quotedblright" xMin="10" yMin="377" xMax="345" yMax="644">
      <contour>
        <pt x="175" y="557" on="1"/>
        <pt x="175" y="472" on="0"/>
        <pt x="51" y="377" on="1"/>
        <pt x="10" y="407" on="1"/>
        <pt x="69" y="476" on="0"/>
        <pt x="69" y="526" on="1"/>
        <pt x="69" y="557" on="0"/>
        <pt x="43" y="605" on="1"/>
        <pt x="141" y="644" on="1"/>
        <pt x="175" y="601" on="0"/>
      </contour>
      <contour>
        <pt x="345" y="557" on="1"/>
        <pt x="345" y="472" on="0"/>
        <pt x="221" y="377" on="1"/>
        <pt x="180" y="407" on="1"/>
        <pt x="239" y="476" on="0"/>
        <pt x="239" y="526" on="1"/>
        <pt x="239" y="557" on="0"/>
        <pt x="213" y="605" on="1"/>
        <pt x="311" y="644" on="1"/>
        <pt x="345" y="601" on="0"/>
      </contour>
    </TTGlyph>
    <TTGlyph name="quoteleft" xMin="18" yMin="377" xMax="183" yMax="644">
      <contour>
        <pt x="18" y="464" on="1"/>
        <pt x="18" y="549" on="0"/>
        <pt x="142" y="644" on="1"/>
        <pt x="183" y="614" on="1"/>
        <pt x="124" y="545" on="0"/>
        <pt x="124" y="495" on="1"/>
        <pt x="124" y="464" on="0"/>
        <pt x="150" y="416" on="1"/>
        <pt x="52" y="377" on="1"/>
        <pt x="18" y="420" on="0"/>
      </contour>
    </TTGlyph>
    <TTGlyph name="quoteright" xMin="10" yMin="377" xMax="175" yMax="644">
      <contour>
        <pt x="175" y="557" on="1"/>
        <pt x="175" y="472" on="0"/>
        <pt x="51" y="377" on="1"/>
        <pt x="10" y="407" on="1"/>
        <pt x="69" y="476" on="0"/>
        <pt x="69" y="526" on="1"/>
        <pt x="69" y="557" on="0"/>
        <pt x="43" y="605" on="1"/>
        <pt x="141" y="644" on="1"/>
        <pt x="175" y="601" on="0"/>
      </contour>
    </TTGlyph>
    <TTGlyph name="quotesinglbase" xMin="0" yMin="-113" xMax="165" yMax="154">
      <contour>
        <pt x="165" y="67" on="1"/>
        <pt x="165" y="-18" on="0"/>
        <pt x="41" y="-113" on="1"/>
        <pt x="0" y="-83" on="1"/>
        <pt x="59" y="-14" on="0"/>
        <pt x="59" y="36" on="1"/>
        <pt x="59" y="67" on="0"/>
        <pt x="33" y="115" on="1"/>
        <pt x="131" y="154" on="1"/>
        <pt x="165" y="111" on="0"/>
      </contour>
    </TTGlyph>
    <TTGlyph name="quotesingle" xMin="46" yMin="390" xMax="166" yMax="634">
      <contour>
        <pt x="57" y="624" on="1"/>
        <pt x="166" y="634" on="1"/>
        <pt x="144" y="500" on="0"/>
        <pt x="103" y="390" on="1"/>
        <pt x="46" y="393" on="1"/>
        <pt x="57" y="519" on="0"/>
      </contour>
    </TTGlyph>
    <TTGlyph name="r" xMin="47" yMin="0" xMax="351" yMax="509">
      <contour>
        <pt x="47" y="483" on="1"/>
        <pt x="168" y="509" on="1"/>
        <pt x="177" y="432" on="0"/>
        <pt x="180" y="363" on="1"/>
        <pt x="271" y="504" on="0"/>
        <pt x="351" y="504" on="1"/>
        <pt x="340" y="348" on="1"/>
        <pt x="282" y="348" on="0"/>
        <pt x="215" y="327" on="0"/>
        <pt x="180" y="296" on="1"/>
        <pt x="180" y="260" on="1"/>
        <pt x="191" y="25" on="1"/>
        <pt x="57" y="0" on="1"/>
        <pt x="69" y="243" on="1"/>
        <pt x="65" y="377" on="0"/>
      </contour>
    </TTGlyph>
    <TTGlyph name="rcaron" xMin="2" yMin="0" xMax="351" yMax="713">
      <contour>
        <pt x="47" y="483" on="1"/>
        <pt x="168" y="509" on="1"/>
        <pt x="177" y="432" on="0"/>
        <pt x="180" y="363" on="1"/>
        <pt x="271" y="504" on="0"/>
        <pt x="351" y="504" on="1"/>
        <pt x="340" y="348" on="1"/>
        <pt x="282" y="348" on="0"/>
        <pt x="215" y="327" on="0"/>
        <pt x="180" y="296" on="1"/>
        <pt x="180" y="260" on="1"/>
        <pt x="191" y="25" on="1"/>
        <pt x="57" y="0" on="1"/>
        <pt x="69" y="243" on="1"/>
        <pt x="65" y="377" on="0"/>
      </contour>
      <contour>
        <pt x="117" y="566" on="1"/>
        <pt x="2" y="651" on="1"/>
        <pt x="14" y="713" on="1"/>
        <pt x="117" y="666" on="1"/>
        <pt x="222" y="713" on="1"/>
        <pt x="234" y="651" on="1"/>
      </contour>
    </TTGlyph>
    <TTGlyph name="rcommaaccent" xMin="35" yMin="-307" xMax="351" yMax="509">
      <contour>
        <pt x="47" y="483" on="1"/>
        <pt x="168" y="509" on="1"/>
        <pt x="177" y="432" on="0"/>
        <pt x="180" y="363" on="1"/>
        <pt x="271" y="504" on="0"/>
        <pt x="351" y="504" on="1"/>
        <pt x="340" y="348" on="1"/>
        <pt x="282" y="348" on="0"/>
        <pt x="215" y="327" on="0"/>
        <pt x="180" y="296" on="1"/>
        <pt x="180" y="260" on="1"/>
        <pt x="191" y="25" on="1"/>
        <pt x="57" y="0" on="1"/>
        <pt x="69" y="243" on="1"/>
        <pt x="65" y="377" on="0"/>
      </contour>
      <contour>
        <pt x="200" y="-127" on="1"/>
        <pt x="200" y="-212" on="0"/>
        <pt x="76" y="-307" on="1"/>
        <pt x="35" y="-277" on="1"/>
        <pt x="94" y="-208" on="0"/>
        <pt x="94" y="-158" on="1"/>
        <pt x="94" y="-127" on="0"/>
        <pt x="68" y="-79" on="1"/>
        <pt x="166" y="-40" on="1"/>
        <pt x="200" y="-83" on="0"/>
      </contour>
    </TTGlyph>
    <TTGlyph name="registered" xMin="20" yMin="315" xMax="406" yMax="697">
      <contour>
        <pt x="20" y="585" on="0"/>
        <pt x="133" y="697" on="0"/>
        <pt x="292" y="697" on="0"/>
        <pt x="406" y="585" on="0"/>
        <pt x="406" y="428" on="0"/>
        <pt x="292" y="315" on="0"/>
        <pt x="133" y="315" on="0"/>
        <pt x="20" y="428" on="0"/>
      </contour>
      <contour>
        <pt x="271" y="364" on="0"/>
        <pt x="355" y="447" on="0"/>
        <pt x="355" y="566" on="0"/>
        <pt x="271" y="649" on="0"/>
        <pt x="154" y="649" on="0"/>
        <pt x="71" y="566" on="0"/>
        <pt x="71" y="447" on="0"/>
        <pt x="153" y="364" on="0"/>
      </contour>
      <contour>
        <pt x="216" y="620" on="1"/>
        <pt x="246" y="620" on="0"/>
        <pt x="284" y="586" on="0"/>
        <pt x="284" y="560" on="1"/>
        <pt x="284" y="520" on="0"/>
        <pt x="249" y="499" on="1"/>
        <pt x="301" y="428" on="1"/>
        <pt x="256" y="405" on="1"/>
        <pt x="209" y="487" on="1"/>
        <pt x="193" y="487" on="1"/>
        <pt x="197" y="410" on="1"/>
        <pt x="147" y="410" on="1"/>
        <pt x="150" y="485" on="1"/>
        <pt x="147" y="620" on="1"/>
      </contour>
      <contour>
        <pt x="206" y="581" on="1"/>
        <pt x="197" y="581" on="1"/>
        <pt x="194" y="525" on="1"/>
        <pt x="210" y="525" on="1"/>
        <pt x="235" y="525" on="0"/>
        <pt x="235" y="556" on="1"/>
        <pt x="235" y="581" on="0"/>
      </contour>
    </TTGlyph>
    <TTGlyph name="s" xMin="7" yMin="-11" xMax="373" yMax="515">
      <contour>
        <pt x="209" y="93" on="1"/>
        <pt x="261" y="93" on="0"/>
        <pt x="261" y="139" on="1"/>
        <pt x="261" y="155" on="0"/>
        <pt x="216" y="183" on="0"/>
        <pt x="151" y="211" on="0"/>
        <pt x="86" y="246" on="0"/>
        <pt x="41" y="308" on="0"/>
        <pt x="41" y="348" on="1"/>
        <pt x="41" y="415" on="0"/>
        <pt x="159" y="515" on="0"/>
        <pt x="236" y="515" on="1"/>
        <pt x="272" y="515" on="0"/>
        <pt x="341" y="498" on="0"/>
        <pt x="373" y="480" on="1"/>
        <pt x="306" y="358" on="1"/>
        <pt x="299" y="364" on="0"/>
        <pt x="277" y="382" on="0"/>
        <pt x="216" y="411" on="0"/>
        <pt x="169" y="411" on="0"/>
        <pt x="144" y="390" on="0"/>
        <pt x="144" y="353" on="0"/>
        <pt x="213" y="316" on="0"/>
        <pt x="295" y="285" on="0"/>
        <pt x="364" y="214" on="0"/>
        <pt x="364" y="165" on="1"/>
        <pt x="364" y="95" on="0"/>
        <pt x="249" y="-11" on="0"/>
        <pt x="174" y="-11" on="1"/>
        <pt x="126" y="-11" on="0"/>
        <pt x="43" y="31" on="0"/>
        <pt x="25" y="52" on="1"/>
        <pt x="7" y="73" on="1"/>
        <pt x="86" y="165" on="1"/>
        <pt x="92" y="157" on="0"/>
        <pt x="114" y="133" on="0"/>
        <pt x="179" y="93" on="0"/>
      </contour>
    </TTGlyph>
    <TTGlyph name="section" xMin="13" yMin="-138" xMax="400" yMax="650">
      <contour>
        <pt x="115" y="6" on="0"/>
        <pt x="183" y="-34" on="0"/>
        <pt x="235" y="-34" on="0"/>
        <pt x="262" y="-13" on="0"/>
        <pt x="262" y="23" on="0"/>
        <pt x="213" y="59" on="0"/>
        <pt x="142" y="91" on="0"/>
        <pt x="71" y="130" on="0"/>
        <pt x="22" y="195" on="0"/>
        <pt x="22" y="236" on="1"/>
        <pt x="22" y="323" on="0"/>
        <pt x="112" y="385" on="1"/>
        <pt x="60" y="428" on="0"/>
        <pt x="60" y="556" on="0"/>
        <pt x="166" y="650" on="0"/>
        <pt x="246" y="650" on="1"/>
        <pt x="279" y="650" on="0"/>
        <pt x="346" y="633" on="0"/>
        <pt x="381" y="615" on="1"/>
        <pt x="324" y="493" on="1"/>
        <pt x="260" y="546" on="0"/>
        <pt x="206" y="546" on="1"/>
        <pt x="185" y="546" on="0"/>
        <pt x="161" y="527" on="0"/>
        <pt x="161" y="495" on="0"/>
        <pt x="210" y="461" on="0"/>
        <pt x="280" y="429" on="0"/>
        <pt x="351" y="390" on="0"/>
        <pt x="400" y="325" on="0"/>
        <pt x="400" y="283" on="1"/>
        <pt x="400" y="200" on="0"/>
        <pt x="314" y="131" on="1"/>
        <pt x="363" y="89" on="0"/>
        <pt x="363" y="-39" on="0"/>
        <pt x="259" y="-138" on="0"/>
        <pt x="185" y="-138" on="1"/>
        <pt x="139" y="-138" on="0"/>
        <pt x="53" y="-96" on="0"/>
        <pt x="33" y="-75" on="1"/>
        <pt x="13" y="-54" on="1"/>
        <pt x="84" y="38" on="1"/>
        <pt x="91" y="30" on="0"/>
      </contour>
      <contour>
        <pt x="124" y="266" on="1"/>
        <pt x="124" y="242" on="0"/>
        <pt x="152" y="223" on="1"/>
        <pt x="178" y="206" on="0"/>
        <pt x="242" y="177" on="0"/>
        <pt x="255" y="170" on="1"/>
        <pt x="299" y="217" on="0"/>
        <pt x="299" y="252" on="1"/>
        <pt x="299" y="277" on="0"/>
        <pt x="271" y="296" on="1"/>
        <pt x="251" y="310" on="0"/>
        <pt x="183" y="342" on="0"/>
        <pt x="171" y="348" on="1"/>
        <pt x="124" y="304" on="0"/>
      </contour>
    </TTGlyph>
    <TTGlyph name="semicolon" xMin="0" yMin="-113" xMax="175" yMax="411">
      <contour>
        <pt x="30" y="362" on="0"/>
        <pt x="77" y="411" on="0"/>
        <pt x="110" y="411" on="1"/>
        <pt x="175" y="411" on="0"/>
        <pt x="175" y="345" on="1"/>
        <pt x="175" y="307" on="0"/>
        <pt x="128" y="257" on="0"/>
        <pt x="65" y="257" on="0"/>
        <pt x="30" y="298" on="0"/>
      </contour>
      <contour>
        <pt x="165" y="67" on="1"/>
        <pt x="165" y="-18" on="0"/>
        <pt x="41" y="-113" on="1"/>
        <pt x="0" y="-83" on="1"/>
        <pt x="59" y="-14" on="0"/>
        <pt x="59" y="36" on="1"/>
        <pt x="59" y="67" on="0"/>
        <pt x="33" y="115" on="1"/>
        <pt x="131" y="154" on="1"/>
        <pt x="165" y="111" on="0"/>
      </contour>
    </TTGlyph>
    <TTGlyph name="seven" xMin="5" yMin="-11" xMax="438" yMax="644">
      <contour>
        <pt x="55" y="34" on="1"/>
        <pt x="306" y="528" on="1"/>
        <pt x="5" y="505" on="1"/>
        <pt x="27" y="643" on="1"/>
        <pt x="238" y="632" on="1"/>
        <pt x="438" y="644" on="1"/>
        <pt x="423" y="537" on="1"/>
        <pt x="261" y="202" on="1"/>
        <pt x="197" y="-11" on="1"/>
      </contour>
    </TTGlyph>
</ttFont>
